SplineFontDB: 2.0
FontName: THKoHo-Italic
FullName: THKoHo-Italic
FamilyName: TH KoHo
Weight: Book
Copyright: Copyright (c) 2006 by Department of Intellectual Property (DIP), Ministry of Commerce and Software Industry Promotion Agency (Public Organization) (SIPA). All rights reserved.
Version: 1.1
ItalicAngle: -12
UnderlinePosition: -35
UnderlineWidth: 30
Ascent: 800
Descent: 200
Order2: 1
XUID: [1021 375 425136265 16283230]
FSType: 0
OS2Version: 3
OS2_WeightWidthSlopeOnly: 0
OS2_UseTypoMetrics: 1
CreationTime: 1158666780
ModificationTime: 1196261198
PfmFamily: 17
TTFWeight: 400
TTFWidth: 5
LineGap: 30
VLineGap: 0
Panose: 2 0 5 6 0 0 0 2 0 4
OS2TypoAscent: 0
OS2TypoAOffset: 1
OS2TypoDescent: 0
OS2TypoDOffset: 1
OS2TypoLinegap: 0
OS2WinAscent: -43
OS2WinAOffset: 1
OS2WinDescent: -196
OS2WinDOffset: 1
HheadAscent: -43
HheadAOffset: 1
HheadDescent: 196
HheadDOffset: 1
OS2SubXSize: 700
OS2SubYSize: 650
OS2SubXOff: 0
OS2SubYOff: 140
OS2SupXSize: 700
OS2SupYSize: 650
OS2SupXOff: 0
OS2SupYOff: 477
OS2StrikeYSize: 30
OS2StrikeYPos: 250
OS2FamilyClass: 773
OS2Vendor: 'IPTH'
Lookup: 4 0 0 "'frac' Diagonal Fractions in Latin lookup 0"  {"'frac' Diagonal Fractions in Latin lookup 0 subtable"  } ['frac' ('latn' <'dflt' > ) ]
Lookup: 6 0 0 "'liga' Standard Ligatures in Latin lookup 1"  {"'liga' Standard Ligatures in Latin lookup 1 subtable"  } ['liga' ('latn' <'dflt' > ) ]
Lookup: 6 0 0 "'liga' Standard Ligatures in Latin lookup 2"  {"'liga' Standard Ligatures in Latin lookup 2 subtable"  } ['liga' ('latn' <'dflt' > ) ]
Lookup: 6 0 0 "'liga' Standard Ligatures in Latin lookup 3"  {"'liga' Standard Ligatures in Latin lookup 3 subtable"  } ['liga' ('latn' <'dflt' > ) ]
Lookup: 6 0 0 "'liga' Standard Ligatures in Latin lookup 4"  {"'liga' Standard Ligatures in Latin lookup 4 subtable"  } ['liga' ('latn' <'dflt' > ) ]
Lookup: 6 0 0 "'liga' Standard Ligatures in Latin lookup 5"  {"'liga' Standard Ligatures in Latin lookup 5 subtable"  } ['liga' ('latn' <'dflt' > ) ]

StartChar: .notdef
Encoding: 65536 -1 0
Width: 733
VWidth: 1467
Flags: W
HStem: 0 51<145 593> 968 52<342 788>
Fore
593 51 m 1,0,-1
 788 968 l 1,1,-1
 342 968 l 1,2,-1
 145 51 l 1,3,-1
 593 51 l 1,0,-1
640 0 m 1,4,-1
 92 0 l 1,5,-1
 302 1020 l 1,6,-1
 848 1020 l 1,7,-1
 640 0 l 1,4,-1
EndSplineSet
EndChar
StartChar: numbersign
Encoding: 35 35 4
Width: 528
VWidth: 1467
Flags: W
HStem: 0 21G<123 165.845 295 337.5> 219 30<88 188 238 361 409 503> 427 32<153 258 307 431 480 568>
VStem: 81 494<219 459 255 379>
Fore
467 427 m 1,0,1
 453 386 453 386 438 339 c 128,-1,2
 423 292 423 292 409 249 c 1,3,-1
 511 249 l 1,4,-1
 503 219 l 1,5,-1
 398 219 l 1,6,7
 380 163 380 163 361.5 109.5 c 128,-1,8
 343 56 343 56 332 0 c 1,9,-1
 295 0 l 1,10,-1
 361 219 l 1,11,-1
 224 219 l 1,12,-1
 160 0 l 1,13,-1
 123 0 l 1,14,-1
 188 219 l 1,15,-1
 81 219 l 1,16,-1
 88 249 l 1,17,-1
 201 249 l 1,18,19
 214 292 214 292 229.5 339 c 128,-1,20
 245 386 245 386 258 427 c 1,21,-1
 145 427 l 1,22,-1
 153 459 l 1,23,-1
 271 459 l 1,24,25
 289 511 289 511 309.5 572.5 c 128,-1,26
 330 634 330 634 348 685 c 1,27,-1
 381 685 l 1,28,-1
 307 459 l 1,29,-1
 445 459 l 1,30,31
 462 511 462 511 482 572.5 c 128,-1,32
 502 634 502 634 518 685 c 1,33,-1
 555 685 l 1,34,-1
 480 459 l 1,35,-1
 575 459 l 1,36,-1
 568 427 l 1,37,-1
 467 427 l 1,0,1
293 427 m 1,38,39
 282 386 282 386 266.5 339 c 128,-1,40
 251 292 251 292 238 249 c 1,41,-1
 374 249 l 1,42,43
 387 292 387 292 402.5 339 c 128,-1,44
 418 386 418 386 431 427 c 1,45,-1
 293 427 l 1,38,39
EndSplineSet
EndChar
StartChar: dollar
Encoding: 36 36 5
Width: 669
VWidth: 1467
Flags: W
HStem: -26 35<280.188 310 362 434.359> 690 30<388.125 461 515 574.277>
VStem: 632 47<571 632.154>
Fore
626 185 m 0,0,1
 619 134 619 134 592.5 95.5 c 128,-1,2
 566 57 566 57 528 31.5 c 128,-1,3
 490 6 490 6 445.5 -8 c 128,-1,4
 401 -22 401 -22 355 -26 c 1,5,-1
 330 -139 l 1,6,-1
 285 -139 l 1,7,-1
 310 -26 l 1,8,9
 270 -25 270 -25 231 -16 c 128,-1,10
 192 -7 192 -7 161.5 11 c 128,-1,11
 131 29 131 29 112.5 59 c 128,-1,12
 94 89 94 89 94 132 c 1,13,-1
 142 132 l 1,14,15
 144 100 144 100 160 77 c 128,-1,16
 176 54 176 54 200 39.5 c 128,-1,17
 224 25 224 25 255 17.5 c 128,-1,18
 286 10 286 10 317 9 c 1,19,-1
 387 339 l 1,20,21
 346 346 346 346 308 355.5 c 128,-1,22
 270 365 270 365 243 383.5 c 128,-1,23
 216 402 216 402 202 433.5 c 128,-1,24
 188 465 188 465 197 515 c 256,25,26
 205 565 205 565 231.5 603 c 128,-1,27
 258 641 258 641 295.5 666 c 128,-1,28
 333 691 333 691 378 705 c 128,-1,29
 423 719 423 719 468 720 c 1,30,-1
 490 828 l 1,31,-1
 537 828 l 1,32,-1
 515 719 l 1,33,34
 547 716 547 716 577 705.5 c 128,-1,35
 607 695 607 695 630 677.5 c 128,-1,36
 653 660 653 660 666 633 c 128,-1,37
 679 606 679 606 679 571 c 1,38,-1
 632 571 l 1,39,40
 629 626 629 626 594 653.5 c 128,-1,41
 559 681 559 681 508 688 c 1,42,-1
 440 371 l 1,43,44
 480 364 480 364 518 353.5 c 128,-1,45
 556 343 556 343 583 323.5 c 128,-1,46
 610 304 610 304 622.5 271 c 128,-1,47
 635 238 635 238 626 185 c 0,0,1
244 515 m 0,48,49
 238 478 238 478 248 454.5 c 128,-1,50
 258 431 258 431 279.5 416.5 c 128,-1,51
 301 402 301 402 331 393 c 128,-1,52
 361 384 361 384 395 379 c 1,53,-1
 461 690 l 1,54,55
 423 688 423 688 387 676.5 c 128,-1,56
 351 665 351 665 321.5 643 c 128,-1,57
 292 621 292 621 271.5 588.5 c 128,-1,58
 251 556 251 556 244 515 c 0,48,49
362 9 m 1,59,60
 399 13 399 13 435.5 26.5 c 128,-1,61
 472 40 472 40 503 62 c 128,-1,62
 534 84 534 84 555.5 114.5 c 128,-1,63
 577 145 577 145 582 185 c 0,64,65
 588 223 588 223 578 248 c 128,-1,66
 568 273 568 273 546.5 289 c 128,-1,67
 525 305 525 305 495 314 c 128,-1,68
 465 323 465 323 431 330 c 1,69,-1
 362 9 l 1,59,60
EndSplineSet
EndChar
StartChar: percent
Encoding: 37 37 6
Width: 852
VWidth: 1467
Flags: W
HStem: 1 21G<180 246.208> 305 40<236.501 299.125> 384 41<671.055 755.894> 690 20G<335.5 367 740.792 807>
VStem: 153 48<421.926 430 430 490.493> 413 53<515.657 567.5 567.5 619.764> 787 55.5<228.111 282.5 282.5 333.28>
Fore
461 508 m 0,0,1
 452 465 452 465 433 429 c 128,-1,2
 414 393 414 393 388 365 c 128,-1,3
 362 337 362 337 330.5 321 c 128,-1,4
 299 305 299 305 264 305 c 0,5,6
 233 305 233 305 209 321 c 128,-1,7
 185 337 185 337 170.5 365 c 128,-1,8
 156 393 156 393 153 430 c 128,-1,9
 150 467 150 467 158 508 c 256,10,11
 167 549 167 549 187 586.5 c 128,-1,12
 207 624 207 624 233.5 651.5 c 128,-1,13
 260 679 260 679 290 694.5 c 128,-1,14
 320 710 320 710 351 710 c 0,15,16
 383 710 383 710 408 694.5 c 128,-1,17
 433 679 433 679 447.5 651.5 c 128,-1,18
 462 624 462 624 466 586.5 c 128,-1,19
 470 549 470 549 461 508 c 0,0,1
210 511 m 2,20,21
 200 481 200 481 201 452 c 128,-1,22
 202 423 202 423 211 399.5 c 128,-1,23
 220 376 220 376 236 361 c 128,-1,24
 252 346 252 346 273 345 c 0,25,26
 295 343 295 343 317 357 c 128,-1,27
 339 371 339 371 357.5 394.5 c 128,-1,28
 376 418 376 418 389.5 448 c 128,-1,29
 403 478 403 478 409 509 c 0,30,31
 415 538 415 538 413 567.5 c 128,-1,32
 411 597 411 597 402 620.5 c 128,-1,33
 393 644 393 644 377 657.5 c 128,-1,34
 361 671 361 671 339 669 c 0,35,36
 317 666 317 666 296.5 650 c 128,-1,37
 276 634 276 634 258.5 610.5 c 128,-1,38
 241 587 241 587 227.5 560.5 c 128,-1,39
 214 534 214 534 210 511 c 2,20,21
728 425 m 0,40,41
 760 425 760 425 784 410 c 128,-1,42
 808 395 808 395 823 367 c 128,-1,43
 838 339 838 339 842.5 301.5 c 128,-1,44
 847 264 847 264 838 223 c 0,45,46
 829 180 829 180 810.5 143.5 c 128,-1,47
 792 107 792 107 766.5 79 c 128,-1,48
 741 51 741 51 708.5 35 c 128,-1,49
 676 19 676 19 640 21 c 0,50,51
 609 21 609 21 584.5 37 c 128,-1,52
 560 53 560 53 546.5 81 c 128,-1,53
 533 109 533 109 529 145.5 c 128,-1,54
 525 182 525 182 534 223 c 256,55,56
 543 264 543 264 562.5 301.5 c 128,-1,57
 582 339 582 339 608.5 367 c 128,-1,58
 635 395 635 395 666 410 c 128,-1,59
 697 425 697 425 728 425 c 0,40,41
650 60 m 0,60,61
 676 60 676 60 698 75.5 c 128,-1,62
 720 91 720 91 738 114.5 c 128,-1,63
 756 138 756 138 768.5 167.5 c 128,-1,64
 781 197 781 197 785 224 c 0,65,66
 789 254 789 254 787 282.5 c 128,-1,67
 785 311 785 311 776 334 c 128,-1,68
 767 357 767 357 752.5 370.5 c 128,-1,69
 738 384 738 384 716 384 c 0,70,71
 695 384 695 384 674.5 369.5 c 128,-1,72
 654 355 654 355 636.5 332.5 c 128,-1,73
 619 310 619 310 606.5 282 c 128,-1,74
 594 254 594 254 588 226 c 0,75,76
 577 161 577 161 593 112 c 128,-1,77
 609 63 609 63 650 60 c 0,60,61
807 713 m 1,78,-1
 230 1 l 1,79,-1
 180 1 l 1,80,-1
 757 713 l 1,81,-1
 807 713 l 1,78,-1
EndSplineSet
EndChar
StartChar: ampersand
Encoding: 38 38 7
Width: 642
VWidth: 1467
Flags: W
HStem: -13 44<192.901 355.48> 685 38<375.721 465.326>
Fore
560 0 m 1,0,1
 531 26 531 26 518.5 44 c 128,-1,2
 506 62 506 62 490 81 c 1,3,4
 417 29 417 29 355 8 c 128,-1,5
 293 -13 293 -13 232 -13 c 0,6,7
 188 -13 188 -13 152.5 2.5 c 128,-1,8
 117 18 117 18 94.5 45 c 128,-1,9
 72 72 72 72 63 108.5 c 128,-1,10
 54 145 54 145 65 188 c 0,11,12
 81 267 81 267 134.5 316 c 128,-1,13
 188 365 188 365 255 395 c 1,14,15
 233 436 233 436 225 475.5 c 128,-1,16
 217 515 217 515 226 550 c 0,17,18
 233 582 233 582 250.5 614 c 128,-1,19
 268 646 268 646 295.5 670 c 128,-1,20
 323 694 323 694 357.5 708.5 c 128,-1,21
 392 723 392 723 434 723 c 0,22,23
 500 723 500 723 532.5 683.5 c 128,-1,24
 565 644 565 644 550 580 c 0,25,26
 538 519 538 519 479 469.5 c 128,-1,27
 420 420 420 420 327 381 c 1,28,29
 352 346 352 346 377 311.5 c 128,-1,30
 402 277 402 277 424.5 247 c 128,-1,31
 447 217 447 217 467 192 c 128,-1,32
 487 167 487 167 502 150 c 1,33,34
 518 167 518 167 533.5 186 c 128,-1,35
 549 205 549 205 565 231.5 c 128,-1,36
 581 258 581 258 597 292.5 c 128,-1,37
 613 327 613 327 632 376 c 1,38,-1
 681 376 l 1,39,40
 607 189 607 189 525 114 c 1,41,42
 550 84 550 84 574.5 53.5 c 128,-1,43
 599 23 599 23 625 0 c 1,44,-1
 560 0 l 1,0,1
505 574 m 0,45,46
 509 593 509 593 506 612.5 c 128,-1,47
 503 632 503 632 493.5 648.5 c 128,-1,48
 484 665 484 665 465.5 675 c 128,-1,49
 447 685 447 685 421 685 c 256,50,51
 395 685 395 685 370 673.5 c 128,-1,52
 345 662 345 662 324.5 643.5 c 128,-1,53
 304 625 304 625 290 602.5 c 128,-1,54
 276 580 276 580 271 556 c 0,55,56
 263 512 263 512 276 476 c 128,-1,57
 289 440 289 440 304 412 c 1,58,59
 340 428 340 428 374 445 c 128,-1,60
 408 462 408 462 435 482 c 128,-1,61
 462 502 462 502 480.5 524.5 c 128,-1,62
 499 547 499 547 505 574 c 0,45,46
254 31 m 0,63,64
 315 31 315 31 370 55 c 128,-1,65
 425 79 425 79 467 113 c 1,66,67
 458 125 458 125 438 149 c 128,-1,68
 418 173 418 173 391.5 206 c 128,-1,69
 365 239 365 239 336 279.5 c 128,-1,70
 307 320 307 320 277 364 c 1,71,72
 258 355 258 355 232.5 340.5 c 128,-1,73
 207 326 207 326 182.5 305.5 c 128,-1,74
 158 285 158 285 138.5 257.5 c 128,-1,75
 119 230 119 230 112 195 c 0,76,77
 104 158 104 158 112 128 c 128,-1,78
 120 98 120 98 140 76 c 128,-1,79
 160 54 160 54 189.5 42.5 c 128,-1,80
 219 31 219 31 254 31 c 0,63,64
EndSplineSet
EndChar
StartChar: quotesingle
Encoding: 39 39 8
Width: 190
VWidth: 1467
Flags: W
HStem: 496 236<210 211>
VStem: 173 38<501.886 531.617>
Fore
211 496 m 1,0,-1
 173 496 l 1,1,-1
 210 732 l 1,2,-1
 277 732 l 1,3,-1
 211 496 l 1,0,-1
EndSplineSet
EndChar
StartChar: parenleft
Encoding: 40 40 9
Width: 284
VWidth: 1467
Flags: W
VStem: 130 41<141.32 273.042>
Fore
217 -85 m 1,0,1
 194 -51 194 -51 173.5 -8.5 c 128,-1,2
 153 34 153 34 142 87.5 c 128,-1,3
 131 141 131 141 130 204.5 c 128,-1,4
 129 268 129 268 145 343 c 0,5,6
 163 423 163 423 191 486.5 c 128,-1,7
 219 550 219 550 252.5 603 c 128,-1,8
 286 656 286 656 324 699 c 128,-1,9
 362 742 362 742 401 781 c 1,10,-1
 445 781 l 1,11,12
 349 693 349 693 283 590 c 128,-1,13
 217 487 217 487 186 343 c 0,14,15
 172 273 172 273 171 213 c 128,-1,16
 170 153 170 153 181 101.5 c 128,-1,17
 192 50 192 50 212 3.5 c 128,-1,18
 232 -43 232 -43 258 -85 c 1,19,-1
 217 -85 l 1,0,1
EndSplineSet
EndChar
StartChar: parenright
Encoding: 41 41 10
Width: 284
VWidth: 1467
Flags: W
VStem: 245 41<350.403 555.305>
Fore
270 348 m 256,0,1
 254 270 254 270 226 205.5 c 128,-1,2
 198 141 198 141 164.5 88 c 128,-1,3
 131 35 131 35 92.5 -7.5 c 128,-1,4
 54 -50 54 -50 18 -85 c 1,5,-1
 -13 -85 l 1,6,7
 26 -41 26 -41 63 5 c 128,-1,8
 100 51 100 51 131.5 103.5 c 128,-1,9
 163 156 163 156 188 216 c 128,-1,10
 213 276 213 276 229 348 c 0,11,12
 244 420 244 420 245 480 c 128,-1,13
 246 540 246 540 236 592 c 128,-1,14
 226 644 226 644 206 690.5 c 128,-1,15
 186 737 186 737 161 781 c 1,16,-1
 201 781 l 1,17,18
 223 747 223 747 243 703.5 c 128,-1,19
 263 660 263 660 274.5 607.5 c 128,-1,20
 286 555 286 555 286 490 c 128,-1,21
 286 425 286 425 270 348 c 256,0,1
EndSplineSet
EndChar
StartChar: asterisk
Encoding: 42 42 11
Width: 422
VWidth: 1467
Flags: W
HStem: 512 75<136 172.85 471.1 509 120 525 136 136>
Fore
525 587 m 1,0,-1
 509 512 l 1,1,-1
 362 522 l 1,2,-1
 424 409 l 1,3,-1
 352 368 l 1,4,-1
 311 493 l 1,5,-1
 226 359 l 1,6,-1
 164 393 l 1,7,-1
 271 522 l 1,8,-1
 120 512 l 1,9,-1
 136 587 l 1,10,-1
 274 578 l 1,11,-1
 213 697 l 1,12,-1
 285 737 l 1,13,-1
 329 602 l 1,14,-1
 418 741 l 1,15,-1
 477 706 l 1,16,-1
 371 577 l 1,17,-1
 525 587 l 1,0,-1
EndSplineSet
EndChar
StartChar: plus
Encoding: 43 43 12
Width: 629
VWidth: 1467
Flags: W
HStem: 332 48<116 351 412 649>
Fore
402 332 m 1,0,-1
 346 73 l 1,1,-1
 295 73 l 1,2,-1
 351 332 l 1,3,-1
 106 332 l 1,4,-1
 116 380 l 1,5,-1
 361 380 l 1,6,-1
 415 635 l 1,7,-1
 467 635 l 1,8,-1
 412 380 l 1,9,-1
 659 380 l 1,10,-1
 649 332 l 1,11,-1
 402 332 l 1,0,-1
EndSplineSet
EndChar
StartChar: comma
Encoding: 44 44 13
Width: 184
VWidth: 1467
Flags: W
HStem: -109 194.5<44 107.5 107.5 107.5>
VStem: 16 137<-109 40 -109 -109> 45 108<8.52143 71.222>
Fore
138 82 m 0,0,1
 158 66 158 66 153 40 c 0,2,3
 141 -16 141 -16 107 -53.5 c 128,-1,4
 73 -91 73 -91 44 -109 c 1,5,-1
 16 -109 l 1,6,7
 40 -91 40 -91 64.5 -64 c 128,-1,8
 89 -37 89 -37 101 -4 c 1,9,10
 63 -21 63 -21 47 -3 c 0,11,12
 37 9 37 9 45 30 c 128,-1,13
 53 51 53 51 72 67 c 0,14,15
 89 82 89 82 107.5 85.5 c 128,-1,16
 126 89 126 89 138 82 c 0,0,1
EndSplineSet
EndChar
StartChar: hyphen
Encoding: 45 45 14
Width: 316
VWidth: 1467
Flags: W
HStem: 273 51<91 336 81 346 91 91>
Fore
81 273 m 1,0,-1
 91 324 l 1,1,-1
 346 324 l 1,2,-1
 336 273 l 1,3,-1
 81 273 l 1,0,-1
EndSplineSet
EndChar
StartChar: period
Encoding: 46 46 15
Width: 193
VWidth: 1467
Flags: W
HStem: -15 115<79.5005 121.5>
VStem: 60 79.5<2 43 43 84>
Fore
113 100 m 1,0,1
 131 101 131 101 139.5 84 c 128,-1,2
 148 67 148 67 144 43 c 0,3,4
 138 19 138 19 122 2 c 128,-1,5
 106 -15 106 -15 88 -15 c 0,6,7
 69 -15 69 -15 60 2 c 128,-1,8
 51 19 51 19 59 43 c 0,9,10
 63 67 63 67 79 84 c 128,-1,11
 95 101 95 101 113 100 c 1,0,1
EndSplineSet
EndChar
StartChar: slash
Encoding: 47 47 16
Width: 394
VWidth: 1467
Flags: W
HStem: 703 20G<485.397 544>
Fore
12 -43 m 1,0,-1
 -22 -43 l 1,1,-1
 499 723 l 1,2,-1
 544 723 l 1,3,-1
 12 -43 l 1,0,-1
EndSplineSet
EndChar
StartChar: zero
Encoding: 48 48 17
Width: 698
VWidth: 1467
Flags: W
HStem: -3 29<270.749 390.32> 690 29<406.159 581.985>
Fore
657 628 m 0,0,1
 678 585 678 585 683 534 c 128,-1,2
 688 483 688 483 676 408 c 0,3,4
 666 349 666 349 653.5 300 c 128,-1,5
 641 251 641 251 621 204 c 0,6,7
 596 148 596 148 561.5 108.5 c 128,-1,8
 527 69 527 69 490 43.5 c 128,-1,9
 453 18 453 18 416.5 7 c 128,-1,10
 380 -4 380 -4 352 -3 c 0,11,12
 304 -1 304 -1 263 18.5 c 128,-1,13
 222 38 222 38 194 75 c 128,-1,14
 166 112 166 112 155.5 165.5 c 128,-1,15
 145 219 145 219 157 289 c 0,16,17
 170 358 170 358 185.5 415 c 128,-1,18
 201 472 201 472 224 519 c 256,19,20
 248 566 248 566 276.5 603 c 128,-1,21
 305 640 305 640 339 665 c 0,22,23
 368 687 368 687 405 702 c 128,-1,24
 442 717 442 717 492 719 c 0,25,26
 565 717 565 717 601 696.5 c 128,-1,27
 637 676 637 676 657 628 c 0,0,1
597 245 m 0,28,29
 610 288 610 288 618 327.5 c 128,-1,30
 626 367 626 367 634 414 c 0,31,32
 647 494 647 494 638 556 c 0,33,34
 625 622 625 622 594 657.5 c 128,-1,35
 563 693 563 693 486 690 c 0,36,37
 440 690 440 690 402 670 c 128,-1,38
 364 650 364 650 334 617.5 c 128,-1,39
 304 585 304 585 280.5 545 c 128,-1,40
 257 505 257 505 242 464 c 0,41,42
 227 424 227 424 216 381.5 c 128,-1,43
 205 339 205 339 198 292 c 0,44,45
 189 238 189 238 192 190 c 128,-1,46
 195 142 195 142 214 106 c 128,-1,47
 233 70 233 70 268.5 49 c 128,-1,48
 304 28 304 28 359 26 c 0,49,50
 402 25 402 25 440 45.5 c 128,-1,51
 478 66 478 66 509 98.5 c 128,-1,52
 540 131 540 131 562.5 169.5 c 128,-1,53
 585 208 585 208 597 245 c 0,28,29
EndSplineSet
EndChar
StartChar: one
Encoding: 49 49 18
Width: 698
VWidth: 1467
Flags: W
HStem: 0 21G<335 388.017>
VStem: 335 189<0 697 1.53064e-18 1.53064e-18>
Fore
467 654 m 1,0,-1
 395 616 l 1,1,-1
 402 654 l 1,2,-1
 486 697 l 1,3,-1
 524 697 l 1,4,-1
 384 0 l 1,5,-1
 335 0 l 1,6,-1
 467 654 l 1,0,-1
EndSplineSet
EndChar
StartChar: two
Encoding: 50 50 19
Width: 698
VWidth: 1467
Flags: W
HStem: -1 34<154 191.065 191.065 259.573 259.573 372.488 372.488 505.164 505.164 555> 679 34<431.733 549.333 521.577 577.09>
Fore
112 35 m 1,0,1
 161 79 161 79 274 167 c 0,2,3
 330 214 330 214 377.5 252.5 c 128,-1,4
 425 291 425 291 464 324 c 0,5,6
 503 358 503 358 534 392.5 c 128,-1,7
 565 427 565 427 594 458 c 0,8,9
 621 490 621 490 635 516.5 c 128,-1,10
 649 543 649 543 653 565 c 0,11,12
 662 599 662 599 649 626 c 0,13,14
 641 641 641 641 632.5 651.5 c 128,-1,15
 624 662 624 662 603 671 c 0,16,17
 582 678 582 678 553 678.5 c 128,-1,18
 524 679 524 679 490 679 c 0,19,20
 468 679 468 679 439.5 670.5 c 128,-1,21
 411 662 411 662 380 646.5 c 128,-1,22
 349 631 349 631 317.5 612 c 128,-1,23
 286 593 286 593 255 572 c 1,24,-1
 266 615 l 1,25,26
 342 668 342 668 399 690.5 c 128,-1,27
 456 713 456 713 503 713 c 0,28,29
 549 713 549 713 578 709.5 c 128,-1,30
 607 706 607 706 632 693 c 0,31,32
 676 669 676 669 688 634 c 0,33,34
 695 618 695 618 696 600 c 128,-1,35
 697 582 697 582 694 566 c 0,36,37
 688 544 688 544 679.5 520 c 128,-1,38
 671 496 671 496 646 467 c 0,39,40
 624 439 624 439 595 406 c 128,-1,41
 566 373 566 373 533 343 c 0,42,43
 497 311 497 311 459 278 c 128,-1,44
 421 245 421 245 374 207 c 0,45,46
 329 170 329 170 274.5 126 c 128,-1,47
 220 82 220 82 154 29 c 1,48,49
 201 29 201 29 227.5 28.5 c 128,-1,50
 254 28 254 28 292 31 c 0,51,52
 380 34 380 34 452.5 33 c 128,-1,53
 525 32 525 32 563 34 c 1,54,-1
 555 -1 l 1,55,-1
 101 -1 l 1,56,-1
 112 35 l 1,0,1
EndSplineSet
EndChar
StartChar: three
Encoding: 51 51 20
Width: 698
VWidth: 1467
Flags: W
HStem: -4 30<270.654 337.141> 349 34<308 324.396 324.396 331.657 332.343 361.273 361.273 370 370 458 459 480.233> 673 30<415.468 572.142>
Fore
308 384 m 1,0,1
 329 383 329 383 340.5 383 c 128,-1,2
 352 383 352 383 358 383 c 0,3,4
 439 384 439 384 497 412 c 0,5,6
 556 437 556 437 585 475 c 0,7,8
 602 494 602 494 609 505 c 128,-1,9
 616 516 616 516 619 537 c 0,10,11
 634 613 634 613 585 644 c 0,12,13
 538 676 538 676 449 673 c 0,14,15
 402 671 402 671 366 662 c 128,-1,16
 330 653 330 653 286 640 c 1,17,-1
 296 676 l 1,18,19
 349 687 349 687 383 694 c 128,-1,20
 417 701 417 701 449 703 c 0,21,22
 531 706 531 706 580 688 c 0,23,24
 604 678 604 678 624 664.5 c 128,-1,25
 644 651 644 651 656 635 c 1,26,27
 675 599 675 599 669 556 c 0,28,29
 653 474 653 474 602.5 433.5 c 128,-1,30
 552 393 552 393 459 376 c 1,31,-1
 458 373 l 1,32,33
 547 374 547 374 590 335 c 0,34,35
 634 295 634 295 621 214 c 0,36,37
 609 167 609 167 587 132 c 0,38,39
 574 113 574 113 557 96 c 128,-1,40
 540 79 540 79 518 63 c 0,41,42
 497 50 497 50 471.5 37.5 c 128,-1,43
 446 25 446 25 417 15 c 0,44,45
 386 6 386 6 361.5 2.5 c 128,-1,46
 337 -1 337 -1 302 -4 c 0,47,48
 291 -4 291 -4 270 -2 c 128,-1,49
 249 0 249 0 225.5 3.5 c 128,-1,50
 202 7 202 7 180 12.5 c 128,-1,51
 158 18 158 18 145 25 c 1,52,-1
 147 59 l 1,53,54
 192 40 192 40 228 31.5 c 128,-1,55
 264 23 264 23 315 26 c 0,56,57
 346 26 346 26 368 32 c 128,-1,58
 390 38 390 38 420 48 c 0,59,60
 478 69 478 69 522 112 c 0,61,62
 563 148 563 148 572 205 c 0,63,64
 590 296 590 296 533 324 c 0,65,66
 478 357 478 357 370 354 c 1,67,68
 362 352 362 352 352.5 352 c 128,-1,69
 343 352 343 352 332 351 c 0,70,71
 321 349 321 349 313 349 c 128,-1,72
 305 349 305 349 301 349 c 1,73,-1
 308 384 l 1,0,1
EndSplineSet
EndChar
StartChar: four
Encoding: 52 52 21
Width: 698
VWidth: 1467
Flags: W
HStem: 1 21G<447.5 489> 197 30<202 483 534 619> 683 20G<527.5 637>
VStem: 160 477<197 703 128.774 133.715>
Fore
619 197 m 1,0,-1
 528 197 l 1,1,2
 527 191 527 191 523 172 c 128,-1,3
 519 153 519 153 513.5 125.5 c 128,-1,4
 508 98 508 98 501 66 c 128,-1,5
 494 34 494 34 489 3 c 1,6,-1
 442 1 l 1,7,8
 453 57 453 57 458.5 85 c 128,-1,9
 464 113 464 113 467.5 130 c 128,-1,10
 471 147 471 147 474 159.5 c 128,-1,11
 477 172 477 172 483 197 c 1,12,-1
 160 197 l 1,13,-1
 169 236 l 1,14,15
 274 359 274 359 380 479.5 c 128,-1,16
 486 600 486 600 569 703 c 1,17,-1
 637 703 l 1,18,19
 624 646 624 646 608.5 575.5 c 128,-1,20
 593 505 593 505 579 437.5 c 128,-1,21
 565 370 565 370 552.5 313.5 c 128,-1,22
 540 257 540 257 534 227 c 1,23,-1
 625 227 l 1,24,-1
 619 197 l 1,0,-1
487 227 m 1,25,26
 496 276 496 276 509 334 c 128,-1,27
 522 392 522 392 535.5 451.5 c 128,-1,28
 549 511 549 511 561.5 567.5 c 128,-1,29
 574 624 574 624 582 668 c 1,30,-1
 202 227 l 1,31,-1
 487 227 l 1,25,26
EndSplineSet
EndChar
StartChar: five
Encoding: 53 53 22
Width: 698
VWidth: 1467
Flags: W
HStem: -9 31<174.231 369.445> 374 31<311.393 524.562> 675 28<362 618.827>
Fore
722 703 m 1,0,-1
 715 666 l 1,1,2
 596 675 596 675 456 675 c 2,3,-1
 362 675 l 1,4,-1
 268 393 l 1,5,6
 317 399 317 399 352 402 c 128,-1,7
 387 405 387 405 412 405 c 0,8,9
 546 405 546 405 597 357 c 256,10,11
 649 308 649 308 632 230 c 0,12,13
 618 158 618 158 562 103 c 0,14,15
 508 45 508 45 430 19 c 0,16,17
 390 3 390 3 350 -3 c 128,-1,18
 310 -9 310 -9 267 -9 c 0,19,20
 198 -9 198 -9 122 9 c 1,21,-1
 122 45 l 1,22,23
 164 34 164 34 202.5 28 c 128,-1,24
 241 22 241 22 279 22 c 0,25,26
 389 22 389 22 480 78 c 0,27,28
 568 134 568 134 588 230 c 0,29,30
 602 296 602 296 553 336 c 0,31,32
 503 374 503 374 387 374 c 0,33,34
 301 374 301 374 217 361 c 1,35,-1
 327 703 l 1,36,-1
 722 703 l 1,0,-1
EndSplineSet
EndChar
StartChar: six
Encoding: 54 54 23
Width: 698
VWidth: 1467
Flags: W
HStem: -4 29<249.955 423.742> 374 37<346.11 497.198> 689 20G<492.5 577>
Fore
638 311 m 1,0,1
 643 289 643 289 644.5 265 c 128,-1,2
 646 241 646 241 640 214 c 0,3,4
 632 183 632 183 618 157 c 128,-1,5
 604 131 604 131 587 106 c 0,6,7
 546 53 546 53 484 25 c 0,8,9
 424 -4 424 -4 349 -4 c 0,10,11
 285 -4 285 -4 235 13 c 0,12,13
 179 34 179 34 154 76 c 0,14,15
 126 122 126 122 141 197 c 0,16,17
 145 219 145 219 153 242.5 c 128,-1,18
 161 266 161 266 173 291 c 0,19,20
 183 314 183 314 200 342 c 128,-1,21
 217 370 217 370 239 401 c 0,22,23
 258 430 258 430 286 463.5 c 128,-1,24
 314 497 314 497 349 536 c 0,25,26
 381 574 381 574 424 617 c 128,-1,27
 467 660 467 660 518 709 c 1,28,-1
 577 709 l 1,29,30
 412 566 412 566 310 430 c 0,31,32
 295 412 295 412 283 394.5 c 128,-1,33
 271 377 271 377 260 361 c 1,34,35
 293 379 293 379 344.5 395.5 c 128,-1,36
 396 412 396 412 452 411 c 0,37,38
 490 411 490 411 525 402 c 128,-1,39
 560 393 560 393 582 380 c 0,40,41
 622 357 622 357 638 311 c 1,0,1
553 123 m 0,42,43
 585 167 585 167 597 220 c 0,44,45
 612 288 612 288 578 333 c 0,46,47
 562 357 562 357 528 366.5 c 128,-1,48
 494 376 494 376 447 374 c 0,49,50
 395 373 395 373 331.5 351.5 c 128,-1,51
 268 330 268 330 219 289 c 1,52,53
 197 244 197 244 188 202 c 0,54,55
 176 147 176 147 194 107 c 256,56,57
 211 67 211 67 251 45 c 0,58,59
 289 25 289 25 345 25 c 0,60,61
 380 25 380 25 411.5 32.5 c 128,-1,62
 443 40 443 40 468 51 c 0,63,64
 524 82 524 82 553 123 c 0,42,43
EndSplineSet
EndChar
StartChar: seven
Encoding: 55 55 24
Width: 698
VWidth: 1467
Flags: W
HStem: -1 21G<180 256> 667 34<283 379.822 379.822 549.51 549.51 673>
Fore
673 671 m 1,0,1
 577 671 577 671 480 667 c 128,-1,2
 383 663 383 663 276 666 c 1,3,-1
 283 701 l 1,4,-1
 717 701 l 1,5,-1
 707 662 l 1,6,7
 650 582 650 582 588.5 498.5 c 128,-1,8
 527 415 527 415 465 330.5 c 128,-1,9
 403 246 403 246 343 162 c 128,-1,10
 283 78 283 78 229 -1 c 1,11,-1
 180 -1 l 1,12,13
 295 154 295 154 417.5 320 c 128,-1,14
 540 486 540 486 673 671 c 1,0,1
EndSplineSet
EndChar
StartChar: eight
Encoding: 56 56 25
Width: 698
VWidth: 1467
Flags: W
HStem: -1 27<284.236 347.938 347.938 397.896> 348 31<368.25 477.053> 690 29<409.094 551.229>
Fore
643 201 m 0,0,1
 631 138 631 138 593 94 c 0,2,3
 566 69 566 69 545 55 c 128,-1,4
 524 41 524 41 490 26 c 0,5,6
 459 15 459 15 423 7 c 128,-1,7
 387 -1 387 -1 348 -1 c 0,8,9
 346 -1 346 -1 345 -3 c 1,10,11
 305 -3 305 -3 273 2 c 128,-1,12
 241 7 241 7 213 19 c 0,13,14
 186 31 186 31 168.5 46.5 c 128,-1,15
 151 62 151 62 139 82 c 0,16,17
 119 123 119 123 128 175 c 0,18,19
 150 324 150 324 329 364 c 1,20,21
 270 379 270 379 241 421 c 0,22,23
 216 458 216 458 223 516 c 0,24,25
 232 562 232 562 257.5 599.5 c 128,-1,26
 283 637 283 637 320 664 c 128,-1,27
 357 691 357 691 401 705 c 128,-1,28
 445 719 445 719 489 719 c 2,29,-1
 502 719 l 2,30,31
 540 720 540 720 576.5 710 c 128,-1,32
 613 700 613 700 640.5 678.5 c 128,-1,33
 668 657 668 657 681.5 625.5 c 128,-1,34
 695 594 695 594 690 553 c 0,35,36
 678 480 678 480 637 439.5 c 128,-1,37
 596 399 596 399 521 367 c 1,38,39
 593 351 593 351 623 306 c 128,-1,40
 653 261 653 261 643 201 c 0,0,1
298 414 m 256,41,42
 337 376 337 376 415 379 c 2,43,-1
 421 379 l 2,44,45
 478 381 478 381 524 399 c 0,46,47
 572 423 572 423 604.5 460 c 128,-1,48
 637 497 637 497 646 547 c 0,49,50
 653 619 653 619 609.5 656 c 128,-1,51
 566 693 566 693 489 690 c 2,52,-1
 481 690 l 2,53,54
 443 687 443 687 408 675 c 128,-1,55
 373 663 373 663 344 641 c 128,-1,56
 315 619 315 619 295.5 588.5 c 128,-1,57
 276 558 276 558 270 516 c 0,58,59
 258 452 258 452 298 414 c 256,41,42
559 117 m 0,60,61
 575 138 575 138 584.5 157 c 128,-1,62
 594 176 594 176 599 201 c 0,63,64
 604 241 604 241 592 269.5 c 128,-1,65
 580 298 580 298 555.5 315.5 c 128,-1,66
 531 333 531 333 496 341 c 128,-1,67
 461 349 461 349 421 348 c 2,68,-1
 417 348 l 2,69,70
 383 348 383 348 353 342 c 128,-1,71
 323 336 323 336 296 326 c 0,72,73
 270 314 270 314 248.5 300 c 128,-1,74
 227 286 227 286 211 267 c 0,75,76
 198 248 198 248 188 227.5 c 128,-1,77
 178 207 178 207 175 182 c 0,78,79
 161 112 161 112 213 67 c 0,80,81
 263 26 263 26 354 26 c 2,82,-1
 358 26 l 2,83,84
 421 29 421 29 471 53 c 0,85,86
 522 76 522 76 559 117 c 0,60,61
EndSplineSet
EndChar
StartChar: nine
Encoding: 57 57 26
Width: 698
VWidth: 1467
Flags: W
HStem: -1 21G<267 351.5> 295 37<351.185 496.89> 681 31<421.096 593.077>
Fore
205 396 m 0,0,1
 200 418 200 418 199 441.5 c 128,-1,2
 198 465 198 465 204 492 c 0,3,4
 211 522 211 522 225 549.5 c 128,-1,5
 239 577 239 577 257 602 c 0,6,7
 301 654 301 654 359 682 c 0,8,9
 420 712 420 712 496 712 c 0,10,11
 558 712 558 712 609 694 c 0,12,13
 663 673 663 673 691 631 c 0,14,15
 704 607 704 607 708 577 c 128,-1,16
 712 547 712 547 703 509 c 0,17,18
 698 487 698 487 691 463.5 c 128,-1,19
 684 440 684 440 672 417 c 256,20,21
 660 393 660 393 644 365 c 128,-1,22
 628 337 628 337 606 307 c 0,23,24
 585 276 585 276 558 242 c 128,-1,25
 531 208 531 208 494 170 c 0,26,27
 461 134 461 134 419 90.5 c 128,-1,28
 377 47 377 47 326 -1 c 1,29,-1
 267 -1 l 1,30,31
 351 70 351 70 417 139 c 128,-1,32
 483 208 483 208 534 276 c 0,33,34
 549 295 549 295 560.5 312 c 128,-1,35
 572 329 572 329 584 345 c 1,36,37
 550 327 550 327 498.5 311 c 128,-1,38
 447 295 447 295 392 295 c 0,39,40
 354 296 354 296 318.5 305 c 128,-1,41
 283 314 283 314 263 327 c 0,42,43
 222 349 222 349 205 396 c 0,0,1
291 582 m 0,44,45
 274 562 274 562 263 538 c 128,-1,46
 252 514 252 514 246 487 c 0,47,48
 232 418 232 418 266 373 c 0,49,50
 282 349 282 349 316.5 339.5 c 128,-1,51
 351 330 351 330 398 332 c 0,52,53
 449 335 449 335 512 355.5 c 128,-1,54
 575 376 575 376 624 417 c 1,55,56
 637 442 637 442 645 463 c 128,-1,57
 653 484 653 484 657 505 c 0,58,59
 668 558 668 558 650 599 c 0,60,61
 632 638 632 638 593 660 c 0,62,63
 552 681 552 681 499 681 c 0,64,65
 464 681 464 681 433 673.5 c 128,-1,66
 402 666 402 666 376 654 c 0,67,68
 351 640 351 640 329 622 c 128,-1,69
 307 604 307 604 291 582 c 0,44,45
EndSplineSet
EndChar
StartChar: colon
Encoding: 58 58 27
Width: 201
VWidth: 1467
Flags: W
HStem: 3 493<95 201 201 201>
VStem: 67.5 79.5<20 102> 149.5 78<398 480.5>
Fore
120 117 m 1,0,1
 138 119 138 119 147 102 c 128,-1,2
 156 85 156 85 150 60 c 0,3,4
 145 37 145 37 129 20 c 128,-1,5
 113 3 113 3 95 3 c 0,6,7
 76 3 76 3 67.5 20 c 128,-1,8
 59 37 59 37 65 60 c 0,9,10
 70 85 70 85 86.5 102 c 128,-1,11
 103 119 103 119 120 117 c 1,0,1
201 496 m 1,12,13
 219 497 219 497 227.5 480.5 c 128,-1,14
 236 464 236 464 230 439 c 0,15,16
 226 415 226 415 210 398 c 128,-1,17
 194 381 194 381 176 381 c 256,18,19
 158 381 158 381 149.5 398 c 128,-1,20
 141 415 141 415 147 439 c 0,21,22
 153 464 153 464 169 480.5 c 128,-1,23
 185 497 185 497 201 496 c 1,12,13
EndSplineSet
EndChar
StartChar: semicolon
Encoding: 59 59 28
Width: 203
VWidth: 1467
Flags: W
VStem: 16 214<-109 439 -109 -109> 45 108<8.52143 71.222> 149.5 78<398 480.5>
Fore
138 82 m 0,0,1
 158 66 158 66 153 40 c 0,2,3
 141 -16 141 -16 107 -53.5 c 128,-1,4
 73 -91 73 -91 44 -109 c 1,5,-1
 16 -109 l 1,6,7
 40 -91 40 -91 64.5 -64 c 128,-1,8
 89 -37 89 -37 101 -4 c 1,9,10
 63 -21 63 -21 47 -3 c 0,11,12
 37 9 37 9 45 30 c 128,-1,13
 53 51 53 51 72 67 c 0,14,15
 89 82 89 82 107.5 85.5 c 128,-1,16
 126 89 126 89 138 82 c 0,0,1
201 496 m 1,17,18
 219 497 219 497 227.5 480.5 c 128,-1,19
 236 464 236 464 230 439 c 0,20,21
 226 415 226 415 210 398 c 128,-1,22
 194 381 194 381 176 381 c 256,23,24
 158 381 158 381 149.5 398 c 128,-1,25
 141 415 141 415 147 439 c 0,26,27
 153 464 153 464 169 480.5 c 128,-1,28
 185 497 185 497 201 496 c 1,17,18
EndSplineSet
EndChar
StartChar: less
Encoding: 60 60 29
Width: 517
VWidth: 1467
Flags: W
HStem: -7 21G<443 461.091>
VStem: 103 478<280 574 280 280>
Fore
456 -7 m 1,0,1
 430 44 430 44 389 90 c 128,-1,2
 348 136 348 136 299.5 173.5 c 128,-1,3
 251 211 251 211 199.5 238.5 c 128,-1,4
 148 266 148 266 103 280 c 1,5,6
 156 298 156 298 217.5 326 c 128,-1,7
 279 354 279 354 342 391 c 128,-1,8
 405 428 405 428 466.5 473.5 c 128,-1,9
 528 519 528 519 581 574 c 1,10,-1
 568 516 l 1,11,12
 528 483 528 483 481 447.5 c 128,-1,13
 434 412 434 412 383.5 380.5 c 128,-1,14
 333 349 333 349 282.5 323.5 c 128,-1,15
 232 298 232 298 185 283 c 1,16,17
 224 270 224 270 264.5 246 c 128,-1,18
 305 222 305 222 342.5 190 c 128,-1,19
 380 158 380 158 412.5 121.5 c 128,-1,20
 445 85 445 85 470 48 c 1,21,-1
 456 -7 l 1,0,1
EndSplineSet
EndChar
StartChar: equal
Encoding: 61 61 30
Width: 629
VWidth: 1467
Flags: W
HStem: 180 47<82 616> 346 47<117 651>
Fore
109 346 m 1,0,-1
 117 393 l 1,1,-1
 660 393 l 1,2,-1
 651 346 l 1,3,-1
 109 346 l 1,0,-1
72 180 m 1,4,-1
 82 227 l 1,5,-1
 625 227 l 1,6,-1
 616 180 l 1,7,-1
 72 180 l 1,4,-1
EndSplineSet
EndChar
StartChar: greater
Encoding: 62 62 31
Width: 535
VWidth: 1467
Flags: W
HStem: -10 21G<68.8596 91>
VStem: 65 479<-10 283 -10 -10>
Fore
189 571 m 1,0,1
 216 519 216 519 256 473 c 128,-1,2
 296 427 296 427 344.5 389.5 c 128,-1,3
 393 352 393 352 445 325 c 128,-1,4
 497 298 497 298 544 283 c 1,5,6
 490 266 490 266 428.5 238 c 128,-1,7
 367 210 367 210 304 172.5 c 128,-1,8
 241 135 241 135 179 89.5 c 128,-1,9
 117 44 117 44 65 -10 c 1,10,-1
 76 47 l 1,11,12
 116 81 116 81 163 116 c 128,-1,13
 210 151 210 151 260.5 182.5 c 128,-1,14
 311 214 311 214 362.5 240 c 128,-1,15
 414 266 414 266 461 280 c 1,16,17
 421 293 421 293 380.5 317.5 c 128,-1,18
 340 342 340 342 303.5 373.5 c 128,-1,19
 267 405 267 405 234 441 c 128,-1,20
 201 477 201 477 178 515 c 1,21,-1
 189 571 l 1,0,1
EndSplineSet
EndChar
StartChar: question
Encoding: 63 63 32
Width: 478
VWidth: 1467
Flags: W
VStem: 147.5 34<482.86 491.5 491.5 530.098> 182 79<20 102> 229 38<182 204.188>
Fore
308 537 m 0,0,1
 285 490 285 490 249 462 c 128,-1,2
 213 434 213 434 183 443 c 128,-1,3
 153 452 153 452 147.5 491.5 c 128,-1,4
 142 531 142 531 164 580 c 0,5,6
 172 593 172 593 181.5 606 c 128,-1,7
 191 619 191 619 201 631 c 0,8,9
 229 665 229 665 268 689 c 128,-1,10
 307 713 307 713 346 720 c 0,11,12
 420 737 420 737 468 709.5 c 128,-1,13
 516 682 516 682 532.5 632 c 128,-1,14
 549 582 549 582 529 521.5 c 128,-1,15
 509 461 509 461 446 408 c 0,16,17
 440 403 440 403 421.5 392 c 128,-1,18
 403 381 403 381 381 365 c 128,-1,19
 359 349 359 349 338.5 330 c 128,-1,20
 318 311 318 311 307 291 c 0,21,22
 293 267 293 267 285 248 c 128,-1,23
 277 229 277 229 273 213 c 0,24,25
 267 195 267 195 267 180 c 1,26,-1
 229 182 l 1,27,28
 227 197 227 197 233 214 c 0,29,30
 241 246 241 246 270 304 c 0,31,32
 282 324 282 324 304 345.5 c 128,-1,33
 326 367 326 367 349 384 c 0,34,35
 376 405 376 405 408 425 c 0,36,37
 456 462 456 462 479 510 c 128,-1,38
 502 558 502 558 497 599.5 c 128,-1,39
 492 641 492 641 459.5 667.5 c 128,-1,40
 427 694 427 694 368 688 c 0,41,42
 339 685 339 685 301 668 c 1,43,44
 324 654 324 654 327 617.5 c 128,-1,45
 330 581 330 581 308 537 c 0,0,1
198 569 m 256,46,47
 192 556 192 556 187.5 540 c 128,-1,48
 183 524 183 524 181.5 509 c 128,-1,49
 180 494 180 494 182.5 482.5 c 128,-1,50
 185 471 185 471 194 468 c 0,51,52
 204 465 204 465 215.5 471.5 c 128,-1,53
 227 478 227 478 238 490.5 c 128,-1,54
 249 503 249 503 259.5 518 c 128,-1,55
 270 533 270 533 276 546 c 256,56,57
 282 559 282 559 287 575 c 128,-1,58
 292 591 292 591 292.5 606.5 c 128,-1,59
 293 622 293 622 290.5 633 c 128,-1,60
 288 644 288 644 277 649 c 0,61,62
 268 651 268 651 257 644 c 128,-1,63
 246 637 246 637 235 624.5 c 128,-1,64
 224 612 224 612 214 597 c 128,-1,65
 204 582 204 582 198 569 c 256,46,47
235 117 m 1,66,67
 252 119 252 119 261 102 c 128,-1,68
 270 85 270 85 264 60 c 0,69,70
 260 37 260 37 243.5 20 c 128,-1,71
 227 3 227 3 210 3 c 0,72,73
 191 3 191 3 182 20 c 128,-1,74
 173 37 173 37 179 60 c 0,75,76
 185 85 185 85 201 102 c 128,-1,77
 217 119 217 119 235 117 c 1,66,67
EndSplineSet
EndChar
StartChar: at
Encoding: 64 64 33
Width: 886
VWidth: 1467
Flags: W
HStem: -153 37<283.323 442.301> 392 31.5<457.773 544.092> 547 35<450.426 693.193>
Fore
515 238 m 0,0,1
 525 239 525 239 541.5 245 c 128,-1,2
 558 251 558 251 573 259.5 c 128,-1,3
 588 268 588 268 600 278.5 c 128,-1,4
 612 289 612 289 615 302 c 0,5,6
 618 318 618 318 612.5 337.5 c 128,-1,7
 607 357 607 357 591 370 c 0,8,9
 574 384 574 384 545 389.5 c 128,-1,10
 516 395 516 395 481.5 392 c 128,-1,11
 447 389 447 389 412 379.5 c 128,-1,12
 377 370 377 370 349 357 c 1,13,-1
 364 393 l 1,14,15
 396 408 396 408 431.5 415.5 c 128,-1,16
 467 423 467 423 500 423.5 c 128,-1,17
 533 424 533 424 563.5 418 c 128,-1,18
 594 412 594 412 618 399 c 0,19,20
 643 387 643 387 653 361 c 128,-1,21
 663 335 663 335 656 301 c 2,22,-1
 612 92 l 2,23,24
 609 81 609 81 606.5 64 c 128,-1,25
 604 47 604 47 607 38 c 1,26,27
 635 40 635 40 668 56.5 c 128,-1,28
 701 73 701 73 730.5 102 c 128,-1,29
 760 131 760 131 782.5 169 c 128,-1,30
 805 207 805 207 816 251 c 0,31,32
 829 313 829 313 818.5 367 c 128,-1,33
 808 421 808 421 777.5 461.5 c 128,-1,34
 747 502 747 502 695.5 524.5 c 128,-1,35
 644 547 644 547 577 547 c 256,36,37
 509 547 509 547 440 521.5 c 128,-1,38
 371 496 371 496 311.5 449.5 c 128,-1,39
 252 403 252 403 209 338 c 128,-1,40
 166 273 166 273 148 192 c 0,41,42
 135 126 135 126 148 70.5 c 128,-1,43
 161 15 161 15 195 -27 c 128,-1,44
 229 -69 229 -69 279 -92.5 c 128,-1,45
 329 -116 329 -116 389 -116 c 0,46,47
 440 -116 440 -116 486.5 -106.5 c 128,-1,48
 533 -97 533 -97 574 -75 c 1,49,-1
 587 -104 l 1,50,51
 536 -131 536 -131 483 -142 c 128,-1,52
 430 -153 430 -153 377 -153 c 0,53,54
 308 -153 308 -153 252.5 -128 c 128,-1,55
 197 -103 197 -103 160 -58 c 128,-1,56
 123 -13 123 -13 109 50 c 128,-1,57
 95 113 95 113 112 188 c 0,58,59
 129 266 129 266 171 337 c 128,-1,60
 213 408 213 408 275 463 c 128,-1,61
 337 518 337 518 417 550 c 128,-1,62
 497 582 497 582 591 582 c 0,63,64
 668 582 668 582 723.5 557.5 c 128,-1,65
 779 533 779 533 813 489 c 128,-1,66
 847 445 847 445 858 385.5 c 128,-1,67
 869 326 869 326 854 257 c 0,68,69
 842 202 842 202 814 157 c 128,-1,70
 786 112 786 112 749.5 78 c 128,-1,71
 713 44 713 44 674 25 c 128,-1,72
 635 6 635 6 602 6 c 1,73,-1
 594 7 l 1,74,75
 580 13 580 13 572.5 27 c 128,-1,76
 565 41 565 41 566 57 c 1,77,78
 553 48 553 48 531 36.5 c 128,-1,79
 509 25 509 25 481 16 c 128,-1,80
 453 7 453 7 421 3 c 128,-1,81
 389 -1 389 -1 357 6 c 0,82,83
 314 15 314 15 294 41 c 128,-1,84
 274 67 274 67 285 114 c 0,85,86
 293 154 293 154 318 176 c 128,-1,87
 343 198 343 198 376 209 c 128,-1,88
 409 220 409 220 446 225 c 128,-1,89
 483 230 483 230 515 238 c 0,0,1
607 251 m 1,90,91
 582 235 582 235 559 224.5 c 128,-1,92
 536 214 536 214 509 210 c 256,93,94
 483 205 483 205 452 199.5 c 128,-1,95
 421 194 421 194 393 183.5 c 128,-1,96
 365 173 365 173 345.5 157 c 128,-1,97
 326 141 326 141 320 114 c 0,98,99
 313 84 313 84 328 62 c 128,-1,100
 343 40 343 40 373 37 c 0,101,102
 411 31 411 31 441 35.5 c 128,-1,103
 471 40 471 40 495 50 c 128,-1,104
 519 60 519 60 538.5 72.5 c 128,-1,105
 558 85 558 85 575 97 c 1,106,-1
 607 251 l 1,90,91
EndSplineSet
EndChar
StartChar: A
Encoding: 65 65 34
Width: 649
VWidth: 1467
Flags: W
HStem: 0 21G<48 102.821 544.952 599> 229 39<213 531>
Fore
534 229 m 1,0,-1
 195 229 l 1,1,-1
 94 0 l 1,2,-1
 48 0 l 1,3,-1
 292 544 l 2,4,5
 308 578 308 578 327 611 c 128,-1,6
 346 644 346 644 368 669.5 c 128,-1,7
 390 695 390 695 415 710.5 c 128,-1,8
 440 726 440 726 470 725 c 0,9,10
 505 722 505 722 523 704.5 c 128,-1,11
 541 687 541 687 550 661 c 128,-1,12
 559 635 559 635 562 603.5 c 128,-1,13
 565 572 565 572 569 544 c 2,14,-1
 599 0 l 1,15,-1
 546 0 l 1,16,-1
 534 229 l 1,0,-1
531 268 m 1,17,-1
 521 519 l 2,18,19
 518 550 518 550 517 574.5 c 128,-1,20
 516 599 516 599 509 631 c 0,21,22
 503 659 503 659 488.5 670.5 c 128,-1,23
 474 682 474 682 455.5 680 c 128,-1,24
 437 678 437 678 419 663.5 c 128,-1,25
 401 649 401 649 387 625 c 0,26,27
 371 596 371 596 359.5 573 c 128,-1,28
 348 550 348 550 332 519 c 2,29,-1
 213 268 l 1,30,-1
 531 268 l 1,17,-1
EndSplineSet
EndChar
StartChar: B
Encoding: 66 66 35
Width: 660
VWidth: 1467
Flags: W
HStem: 0 38<148 405.64> 408 41<370 469.478> 675 37<282 563.646>
Fore
489 427 m 1,0,1
 514 421 514 421 544 407 c 128,-1,2
 574 393 574 393 597.5 368 c 128,-1,3
 621 343 621 343 632 305 c 128,-1,4
 643 267 643 267 629 213 c 0,5,6
 615 145 615 145 583.5 103.5 c 128,-1,7
 552 62 552 62 513 39 c 128,-1,8
 474 16 474 16 433 8 c 128,-1,9
 392 0 392 0 358 0 c 2,10,-1
 103 0 l 1,11,-1
 248 712 l 1,12,-1
 514 712 l 2,13,14
 553 712 553 712 573.5 701 c 128,-1,15
 594 690 594 690 610 669 c 0,16,17
 641 631 641 631 628 569 c 0,18,19
 618 522 618 522 578 481 c 0,20,21
 540 442 540 442 489 427 c 1,0,1
368 38 m 2,22,23
 398 38 398 38 431 46 c 128,-1,24
 464 54 464 54 494 74 c 128,-1,25
 524 94 524 94 548 129 c 128,-1,26
 572 164 572 164 584 217 c 0,27,28
 593 261 593 261 581 295.5 c 128,-1,29
 569 330 569 330 545.5 354.5 c 128,-1,30
 522 379 522 379 492 392 c 128,-1,31
 462 405 462 405 434 408 c 2,32,-1
 361 408 l 1,33,-1
 370 449 l 1,34,-1
 443 449 l 2,35,36
 465 449 465 449 488 458.5 c 128,-1,37
 511 468 511 468 530.5 485 c 128,-1,38
 550 502 550 502 565.5 523 c 128,-1,39
 581 544 581 544 585 566 c 0,40,41
 594 612 594 612 571.5 644 c 128,-1,42
 549 676 549 676 503 675 c 2,43,-1
 282 675 l 1,44,45
 267 606 267 606 249.5 521.5 c 128,-1,46
 232 437 232 437 214.5 351.5 c 128,-1,47
 197 266 197 266 179 184.5 c 128,-1,48
 161 103 161 103 148 38 c 1,49,-1
 368 38 l 2,22,23
EndSplineSet
EndChar
StartChar: C
Encoding: 67 67 36
Width: 632
VWidth: 1467
Flags: W
HStem: 599 21G<650.5 698>
VStem: 654 44<602.16 664.082>
Fore
226 56 m 256,0,1
 252 38 252 38 297 30.5 c 128,-1,2
 342 23 342 23 390.5 29 c 128,-1,3
 439 35 439 35 483 55.5 c 128,-1,4
 527 76 527 76 552 114 c 1,5,-1
 588 98 l 1,6,7
 556 53 556 53 501 28 c 128,-1,8
 446 3 446 3 386.5 -5 c 128,-1,9
 327 -13 327 -13 271.5 -4.5 c 128,-1,10
 216 4 216 4 183 26 c 0,11,12
 154 47 154 47 135.5 77 c 128,-1,13
 117 107 117 107 126 145 c 2,14,-1
 217 568 l 2,15,16
 224 606 224 606 255 636 c 128,-1,17
 286 666 286 666 324 685 c 0,18,19
 365 707 365 707 424.5 716 c 128,-1,20
 484 725 484 725 540 717.5 c 128,-1,21
 596 710 596 710 640.5 685 c 128,-1,22
 685 660 685 660 698 615 c 1,23,-1
 654 599 l 1,24,25
 647 637 647 637 612 657.5 c 128,-1,26
 577 678 577 678 530.5 684 c 128,-1,27
 484 690 484 690 435.5 682.5 c 128,-1,28
 387 675 387 675 354 657 c 0,29,30
 320 638 320 638 293 609.5 c 128,-1,31
 266 581 266 581 258 549 c 0,32,33
 248 502 248 502 238.5 453.5 c 128,-1,34
 229 405 229 405 217 355 c 0,35,36
 205 304 205 304 195.5 257.5 c 128,-1,37
 186 211 186 211 176 164 c 0,38,39
 169 131 169 131 184.5 102 c 128,-1,40
 200 73 200 73 226 56 c 256,0,1
EndSplineSet
EndChar
StartChar: D
Encoding: 68 68 37
Width: 669
VWidth: 1467
Flags: W
HStem: 0 37<148 287.777> 697 20G<241 300.5>
Fore
104 0 m 1,0,1
 114 75 114 75 129 149.5 c 128,-1,2
 144 224 144 224 160 299 c 0,3,4
 163 315 163 315 166.5 329 c 128,-1,5
 170 343 170 343 173 359 c 0,6,7
 176 374 l 0,8,-1
 185 418 l 0,9,10
 202 493 202 493 217.5 568 c 128,-1,11
 233 643 233 643 249 717 c 1,12,13
 352 717 352 717 438 707 c 128,-1,14
 524 697 524 697 581 659.5 c 128,-1,15
 638 622 638 622 659.5 551 c 128,-1,16
 681 480 681 480 657 359 c 0,17,18
 635 264 635 264 603 200 c 128,-1,19
 571 136 571 136 530 96 c 128,-1,20
 489 56 489 56 439.5 36 c 128,-1,21
 390 16 390 16 336 8 c 128,-1,22
 282 0 282 0 223 0 c 128,-1,23
 164 0 164 0 104 0 c 1,0,1
613 359 m 0,24,25
 631 443 631 443 622 504.5 c 128,-1,26
 613 566 613 566 574.5 606 c 128,-1,27
 536 646 536 646 464 664 c 128,-1,28
 392 682 392 682 285 681 c 1,29,30
 268 600 268 600 250.5 520 c 128,-1,31
 233 440 233 440 217 359 c 0,32,33
 183 199 l 128,-1,34
 166 119 166 119 148 37 c 1,35,36
 261 32 261 32 341 48.5 c 128,-1,37
 421 65 421 65 475.5 103.5 c 128,-1,38
 530 142 530 142 562 206 c 128,-1,39
 594 270 594 270 613 359 c 0,24,25
EndSplineSet
EndChar
StartChar: E
Encoding: 69 69 38
Width: 642
VWidth: 1467
Flags: W
HStem: -6 37<311.899 555> 321 40<219 512> 675 38<448.844 698>
Fore
496 675 m 1,0,1
 455 675 455 675 414.5 666 c 128,-1,2
 374 657 374 657 339.5 633 c 128,-1,3
 305 609 305 609 278 565.5 c 128,-1,4
 251 522 251 522 238 452 c 2,5,-1
 219 361 l 1,6,-1
 521 361 l 1,7,-1
 512 321 l 1,8,-1
 210 321 l 1,9,-1
 195 255 l 2,10,11
 179 185 179 185 187 141.5 c 128,-1,12
 195 98 195 98 220 74 c 128,-1,13
 245 50 245 50 281.5 40.5 c 128,-1,14
 318 31 318 31 359 31 c 2,15,-1
 562 31 l 1,16,-1
 555 -6 l 1,17,-1
 355 -6 l 2,18,19
 299 -4 299 -4 253.5 4.5 c 128,-1,20
 208 13 208 13 179 40 c 128,-1,21
 150 67 150 67 140.5 118.5 c 128,-1,22
 131 170 131 170 150 257 c 2,23,-1
 191 450 l 2,24,25
 210 537 210 537 240.5 588.5 c 128,-1,26
 271 640 271 640 312.5 667 c 128,-1,27
 354 694 354 694 403 703 c 128,-1,28
 452 712 452 712 508 713 c 2,29,-1
 707 713 l 1,30,-1
 698 675 l 1,31,-1
 496 675 l 1,0,1
EndSplineSet
EndChar
StartChar: F
Encoding: 70 70 39
Width: 627
VWidth: 1467
Flags: W
HStem: -1 21G<95 145.308> 324 40<220 512> 678 38<449.638 701>
Fore
499 678 m 1,0,1
 456 678 456 678 416 669 c 128,-1,2
 376 660 376 660 340.5 636 c 128,-1,3
 305 612 305 612 278.5 568.5 c 128,-1,4
 252 525 252 525 239 455 c 2,5,-1
 220 364 l 1,6,-1
 521 364 l 1,7,-1
 512 324 l 1,8,-1
 211 324 l 1,9,-1
 141 -1 l 1,10,-1
 95 -1 l 1,11,-1
 192 453 l 2,12,13
 211 540 211 540 242.5 591.5 c 128,-1,14
 274 643 274 643 314.5 670 c 128,-1,15
 355 697 355 697 404 706 c 128,-1,16
 453 715 453 715 508 716 c 2,17,-1
 709 716 l 1,18,-1
 701 678 l 1,19,-1
 499 678 l 1,0,1
EndSplineSet
EndChar
StartChar: G
Encoding: 71 71 40
Width: 689
VWidth: 1467
Flags: W
HStem: -7 39<312.669 425.18> 358 40<505 548.703> 597 21G<658 706>
VStem: 662 44<600.431 659.47>
Fore
505 398 m 1,0,1
 599 398 599 398 640.5 354 c 128,-1,2
 682 310 682 310 660 211 c 0,3,4
 644 144 644 144 611 101.5 c 128,-1,5
 578 59 578 59 537.5 34.5 c 128,-1,6
 497 10 497 10 454.5 1.5 c 128,-1,7
 412 -7 412 -7 379 -7 c 2,8,-1
 357 -6 l 2,9,10
 302 -4 302 -4 256 4.5 c 128,-1,11
 210 13 210 13 180.5 40 c 128,-1,12
 151 67 151 67 141.5 118.5 c 128,-1,13
 132 170 132 170 151 257 c 2,14,-1
 219 566 l 2,15,16
 226 604 226 604 257.5 634.5 c 128,-1,17
 289 665 289 665 327 684 c 0,18,19
 368 706 368 706 428.5 714.5 c 128,-1,20
 489 723 489 723 546 716 c 128,-1,21
 603 709 603 709 648 684 c 128,-1,22
 693 659 693 659 706 613 c 1,23,-1
 662 597 l 1,24,25
 654 635 654 635 617.5 655.5 c 128,-1,26
 581 676 581 676 534 682 c 128,-1,27
 487 688 487 688 438 680.5 c 128,-1,28
 389 673 389 673 357 656 c 0,29,30
 321 637 321 637 294 608.5 c 128,-1,31
 267 580 267 580 260 547 c 0,32,33
 254 522 254 522 249 495 c 128,-1,34
 244 468 244 468 236.5 434.5 c 128,-1,35
 229 401 229 401 219.5 357.5 c 128,-1,36
 210 314 210 314 197 255 c 0,37,38
 180 185 180 185 188.5 141.5 c 128,-1,39
 197 98 197 98 221.5 74 c 128,-1,40
 246 50 246 50 283 41 c 128,-1,41
 320 32 320 32 362 32 c 2,42,-1
 398 32 l 2,43,44
 425 32 425 32 458.5 41 c 128,-1,45
 492 50 492 50 522.5 71 c 128,-1,46
 553 92 553 92 577.5 127.5 c 128,-1,47
 602 163 602 163 613 217 c 0,48,49
 622 261 622 261 615.5 287.5 c 128,-1,50
 609 314 609 314 592 329.5 c 128,-1,51
 575 345 575 345 549.5 350 c 128,-1,52
 524 355 524 355 496 358 c 1,53,-1
 505 398 l 1,0,1
EndSplineSet
EndChar
StartChar: H
Encoding: 72 72 41
Width: 658
VWidth: 1467
Flags: W
HStem: -3 21G<94 145.233 509 560.262> 323 39<219 578> 695 20G<243.71 295 657.751 709>
Fore
662 715 m 1,0,-1
 709 715 l 1,1,-1
 556 -3 l 1,2,-1
 509 -3 l 1,3,-1
 578 323 l 1,4,-1
 210 323 l 1,5,-1
 141 -3 l 1,6,-1
 94 -3 l 1,7,-1
 248 715 l 1,8,-1
 295 715 l 1,9,-1
 219 362 l 1,10,-1
 587 362 l 1,11,-1
 662 715 l 1,0,-1
EndSplineSet
EndChar
StartChar: I
Encoding: 73 73 42
Width: 214
VWidth: 1467
Flags: W
HStem: 0 21G<82 132.073> 697 20G<222.955 274>
VStem: 82 192<0 717 1.53064e-18 1.53064e-18>
Fore
274 717 m 1,0,-1
 128 0 l 1,1,-1
 82 0 l 1,2,-1
 227 717 l 1,3,-1
 274 717 l 1,0,-1
EndSplineSet
EndChar
StartChar: J
Encoding: 74 74 43
Width: 491
VWidth: 1467
Flags: W
HStem: -12.5 38<201.073 295.125> 690 20G<489 541>
VStem: 95 47<86.009 142 142 144.969>
Fore
142 145 m 1,0,1
 136 104 136 104 149.5 76 c 128,-1,2
 163 48 163 48 185.5 35.5 c 128,-1,3
 208 23 208 23 238 25.5 c 128,-1,4
 268 28 268 28 296 45 c 128,-1,5
 324 62 324 62 347 93.5 c 128,-1,6
 370 125 370 125 380 172 c 0,7,8
 390 223 390 223 405.5 294 c 128,-1,9
 421 365 421 365 437 440.5 c 128,-1,10
 453 516 453 516 468.5 587.5 c 128,-1,11
 484 659 484 659 494 710 c 1,12,-1
 541 710 l 1,13,14
 530 653 530 653 514.5 579.5 c 128,-1,15
 499 506 499 506 483 429 c 128,-1,16
 467 352 467 352 451.5 278.5 c 128,-1,17
 436 205 436 205 423 148 c 0,18,19
 411 97 411 97 379.5 61 c 128,-1,20
 348 25 348 25 308 6.5 c 128,-1,21
 268 -12 268 -12 225.5 -12.5 c 128,-1,22
 183 -13 183 -13 151 4 c 128,-1,23
 119 21 119 21 102 55 c 128,-1,24
 85 89 85 89 95 142 c 0,25,26
 95 144 95 144 97 145 c 1,27,-1
 142 145 l 1,0,1
EndSplineSet
EndChar
StartChar: K
Encoding: 75 75 44
Width: 685
VWidth: 1467
Flags: W
HStem: -1 21G<104 154.711 536 586.298> 696 20G<244.95 296 635.141 723>
Fore
445 486 m 1,0,1
 490 481 490 481 531 467 c 128,-1,2
 572 453 572 453 599 424 c 128,-1,3
 626 395 626 395 636.5 347 c 128,-1,4
 647 299 647 299 631 227 c 2,5,-1
 582 -1 l 1,6,-1
 536 -1 l 1,7,-1
 585 224 l 2,8,9
 600 289 600 289 587.5 331 c 128,-1,10
 575 373 575 373 546.5 398 c 128,-1,11
 518 423 518 423 477.5 434 c 128,-1,12
 437 445 437 445 396 447 c 1,13,-1
 205 291 l 1,14,-1
 151 0 l 1,15,-1
 104 0 l 1,16,-1
 249 716 l 1,17,-1
 296 716 l 1,18,-1
 220 359 l 1,19,-1
 660 713 l 1,20,-1
 723 713 l 1,21,-1
 445 486 l 1,0,1
EndSplineSet
EndChar
StartChar: L
Encoding: 76 76 45
Width: 616
VWidth: 1467
Flags: W
HStem: 0 37<310.11 379.389 379.389 425.665 425.665 556> 696 20G<243.717 295>
VStem: 141.5 423.5<37 124.5 -61.1115 -14.8346>
Fore
556 -1 m 1,0,1
 549 -1 549 -1 519 -1 c 128,-1,2
 489 -1 489 -1 456 -1 c 128,-1,3
 423 -1 423 -1 395.5 -0.5 c 128,-1,4
 368 0 368 0 364 0 c 0,5,6
 307 1 307 1 259 10 c 128,-1,7
 211 19 211 19 181 46 c 128,-1,8
 151 73 151 73 141.5 124.5 c 128,-1,9
 132 176 132 176 151 263 c 2,10,-1
 248 716 l 1,11,-1
 295 716 l 1,12,-1
 197 260 l 2,13,14
 180 189 180 189 188.5 146 c 128,-1,15
 197 103 197 103 221.5 78.5 c 128,-1,16
 246 54 246 54 283 45.5 c 128,-1,17
 320 37 320 37 361 37 c 2,18,-1
 565 37 l 1,19,-1
 556 -1 l 1,0,1
EndSplineSet
EndChar
StartChar: M
Encoding: 77 77 46
Width: 836
VWidth: 1467
Flags: W
HStem: 0 21G<103 148.5 700 748.028> 695 20G<243.944 305 823 888>
Fore
292 715 m 1,0,1
 318 700 318 700 349.5 673.5 c 128,-1,2
 381 647 381 647 412 614 c 128,-1,3
 443 581 443 581 470 542 c 128,-1,4
 497 503 497 503 515 465 c 1,5,6
 555 509 555 509 599 548.5 c 128,-1,7
 643 588 643 588 686 620.5 c 128,-1,8
 729 653 729 653 768.5 677 c 128,-1,9
 808 701 808 701 838 715 c 1,10,-1
 888 715 l 1,11,-1
 744 0 l 1,12,-1
 700 0 l 1,13,14
 703 23 703 23 712.5 76 c 128,-1,15
 722 129 722 129 735 195 c 128,-1,16
 748 261 748 261 763.5 335 c 128,-1,17
 779 409 779 409 793 475 c 128,-1,18
 807 541 807 541 818 593.5 c 128,-1,19
 829 646 829 646 833 669 c 1,20,21
 819 665 819 665 791.5 647 c 128,-1,22
 764 629 764 629 730.5 604.5 c 128,-1,23
 697 580 697 580 661 550.5 c 128,-1,24
 625 521 625 521 592.5 491 c 128,-1,25
 560 461 560 461 534.5 433.5 c 128,-1,26
 509 406 509 406 497 387 c 1,27,28
 481 436 481 436 454.5 481.5 c 128,-1,29
 428 527 428 527 397.5 564.5 c 128,-1,30
 367 602 367 602 336 629 c 128,-1,31
 305 656 305 656 279 668 c 1,32,33
 274 647 274 647 264 596.5 c 128,-1,34
 254 546 254 546 240 479 c 128,-1,35
 226 412 226 412 211.5 338 c 128,-1,36
 197 264 197 264 183 196 c 128,-1,37
 169 128 169 128 159.5 75 c 128,-1,38
 150 22 150 22 147 0 c 1,39,-1
 103 0 l 1,40,-1
 248 715 l 1,41,-1
 292 715 l 1,0,1
EndSplineSet
EndChar
StartChar: N
Encoding: 78 78 47
Width: 721
VWidth: 1467
Flags: W
HStem: -7 21G<103 158.046 513.5 536.5> 695 20G<243.944 299.826 720.5 772>
Fore
606 150 m 0,0,1
 616 201 616 201 632.5 276.5 c 128,-1,2
 649 352 649 352 666.5 432 c 128,-1,3
 684 512 684 512 699.5 587.5 c 128,-1,4
 715 663 715 663 726 715 c 1,5,-1
 772 715 l 1,6,-1
 649 134 l 2,7,8
 632 57 632 57 595 25.5 c 128,-1,9
 558 -6 558 -6 515 -7 c 1,10,11
 512 3 512 3 493.5 50 c 128,-1,12
 475 97 475 97 449.5 160.5 c 128,-1,13
 424 224 424 224 394.5 297.5 c 128,-1,14
 365 371 365 371 339.5 435.5 c 128,-1,15
 314 500 314 500 296.5 546.5 c 128,-1,16
 279 593 279 593 276 603 c 1,17,-1
 154 0 l 1,18,-1
 103 0 l 1,19,-1
 248 715 l 1,20,-1
 292 715 l 1,21,-1
 553 48 l 1,22,23
 577 54 577 54 586.5 79 c 128,-1,24
 596 104 596 104 606 150 c 0,0,1
EndSplineSet
EndChar
StartChar: O
Encoding: 79 79 48
Width: 705
VWidth: 1467
Flags: W
HStem: -15.5 37<257.315 454.437> 691 37.5<393.563 589.2>
Fore
211 541 m 0,0,1
 224 603 224 603 270.5 645 c 128,-1,2
 317 687 317 687 378 708 c 128,-1,3
 439 729 439 729 504 728.5 c 128,-1,4
 569 728 569 728 621 707.5 c 128,-1,5
 673 687 673 687 702 645 c 128,-1,6
 731 603 731 603 717 541 c 0,7,8
 706 489 706 489 697 444 c 128,-1,9
 688 399 688 399 678.5 356.5 c 128,-1,10
 669 314 669 314 659.5 269 c 128,-1,11
 650 224 650 224 638 172 c 0,12,13
 625 109 625 109 579 67.5 c 128,-1,14
 533 26 533 26 472 5.5 c 128,-1,15
 411 -15 411 -15 345 -15.5 c 128,-1,16
 279 -16 279 -16 227 5 c 128,-1,17
 175 26 175 26 146 68 c 128,-1,18
 117 110 117 110 131 172 c 0,19,20
 142 224 142 224 151.5 269 c 128,-1,21
 161 314 161 314 170.5 356.5 c 128,-1,22
 180 399 180 399 190 444 c 128,-1,23
 200 489 200 489 211 541 c 0,0,1
251 521 m 0,24,25
 241 472 241 472 232 433.5 c 128,-1,26
 223 395 223 395 215.5 356.5 c 128,-1,27
 208 318 208 318 199.5 278.5 c 128,-1,28
 191 239 191 239 180 191 c 0,29,30
 169 134 169 134 191.5 96.5 c 128,-1,31
 214 59 214 59 256 40 c 128,-1,32
 298 21 298 21 352 21.5 c 128,-1,33
 406 22 406 22 456 40.5 c 128,-1,34
 506 59 506 59 545 97 c 128,-1,35
 584 135 584 135 596 191 c 0,36,37
 606 239 606 239 615 278.5 c 128,-1,38
 624 318 624 318 631 356.5 c 128,-1,39
 638 395 638 395 647 433.5 c 128,-1,40
 656 472 656 472 666 521 c 0,41,42
 678 578 678 578 655 615.5 c 128,-1,43
 632 653 632 653 590.5 672 c 128,-1,44
 549 691 549 691 495.5 691 c 128,-1,45
 442 691 442 691 392 672 c 128,-1,46
 342 653 342 653 302.5 615 c 128,-1,47
 263 577 263 577 251 521 c 0,24,25
EndSplineSet
EndChar
StartChar: P
Encoding: 80 80 49
Width: 669
VWidth: 1467
Flags: W
HStem: 0 21G<103 150> 274 40<207 479.907> 673 39<283 530.223>
Fore
103 0 m 1,0,-1
 248 712 l 1,1,-1
 503 712 l 2,2,3
 537 712 537 712 573.5 700 c 128,-1,4
 610 688 610 688 639 661 c 128,-1,5
 668 634 668 634 681.5 589 c 128,-1,6
 695 544 695 544 682 477 c 0,7,8
 673 433 673 433 648.5 396 c 128,-1,9
 624 359 624 359 586.5 332 c 128,-1,10
 549 305 549 305 502.5 289.5 c 128,-1,11
 456 274 456 274 405 274 c 2,12,-1
 198 274 l 1,13,14
 182 200 182 200 167.5 127 c 128,-1,15
 153 54 153 54 147 0 c 1,16,-1
 103 0 l 1,0,-1
414 314 m 2,17,18
 446 317 446 317 481 326 c 128,-1,19
 516 335 516 335 548 352.5 c 128,-1,20
 580 370 580 370 604 399 c 128,-1,21
 628 428 628 428 637 472 c 0,22,23
 649 525 649 525 639 563.5 c 128,-1,24
 629 602 629 602 608 626 c 128,-1,25
 587 650 587 650 557 661.5 c 128,-1,26
 527 673 527 673 499 673 c 2,27,-1
 283 673 l 1,28,29
 267 599 267 599 247 507 c 128,-1,30
 227 415 227 415 207 314 c 1,31,-1
 414 314 l 2,17,18
EndSplineSet
EndChar
StartChar: Q
Encoding: 81 81 50
Width: 705
VWidth: 1467
Flags: W
HStem: -101 39<542.725 584> 693 36<393.522 594.663>
Fore
584 -101 m 1,0,1
 559 -101 559 -101 532.5 -97.5 c 128,-1,2
 506 -94 506 -94 480.5 -83.5 c 128,-1,3
 455 -73 455 -73 434.5 -55.5 c 128,-1,4
 414 -38 414 -38 402 -10 c 1,5,6
 346 -18 346 -18 293.5 -10.5 c 128,-1,7
 241 -3 241 -3 201 20.5 c 128,-1,8
 161 44 161 44 141.5 82 c 128,-1,9
 122 120 122 120 134 173 c 2,10,-1
 213 543 l 2,11,12
 226 604 226 604 272 646 c 128,-1,13
 318 688 318 688 379 708.5 c 128,-1,14
 440 729 440 729 506 729 c 128,-1,15
 572 729 572 729 624 708.5 c 128,-1,16
 676 688 676 688 705 646 c 128,-1,17
 734 604 734 604 720 543 c 2,18,-1
 643 173 l 2,19,20
 628 106 628 106 575 62.5 c 128,-1,21
 522 19 522 19 461 0 c 1,22,23
 474 -37 474 -37 510.5 -50 c 128,-1,24
 547 -63 547 -63 585 -62 c 2,25,-1
 593 -62 l 1,26,-1
 584 -101 l 1,0,1
183 192 m 2,27,28
 172 135 172 135 194.5 97.5 c 128,-1,29
 217 60 217 60 259 41 c 128,-1,30
 301 22 301 22 355 22.5 c 128,-1,31
 409 23 409 23 459 41.5 c 128,-1,32
 509 60 509 60 548 98 c 128,-1,33
 587 136 587 136 599 192 c 2,34,-1
 669 522 l 2,35,36
 681 580 681 580 658 617 c 128,-1,37
 635 654 635 654 593.5 673.5 c 128,-1,38
 552 693 552 693 498.5 693 c 128,-1,39
 445 693 445 693 395 673.5 c 128,-1,40
 345 654 345 654 305.5 616 c 128,-1,41
 266 578 266 578 254 522 c 2,42,-1
 183 192 l 2,27,28
EndSplineSet
EndChar
StartChar: R
Encoding: 82 82 51
Width: 642
VWidth: 1467
Flags: W
HStem: -3 21G<94 142 505 556.127> 343 40<222 354.568> 672 38<285 486.155 486.155 490.954 490.954 521 536 565.764>
Fore
490 357 m 1,0,1
 516 345 516 345 538 327.5 c 128,-1,2
 560 310 560 310 572.5 282 c 128,-1,3
 585 254 585 254 587.5 215 c 128,-1,4
 590 176 590 176 578 123 c 2,5,-1
 552 -3 l 1,6,-1
 505 -3 l 1,7,-1
 533 120 l 2,8,9
 549 194 549 194 531.5 237 c 128,-1,10
 514 280 514 280 478 303 c 128,-1,11
 442 326 442 326 394 334 c 128,-1,12
 346 342 346 342 304 343 c 2,13,-1
 213 343 l 1,14,15
 205 307 205 307 200 282.5 c 0,16,-1
 179.5 185.5 l 0,17,18
 164 113 164 113 154.5 69 c 128,-1,19
 145 25 145 25 139 -1 c 1,20,-1
 94 -1 l 1,21,-1
 246 710 l 1,22,-1
 464 710 l 2,23,24
 497 710 497 710 536 704 c 128,-1,25
 575 698 575 698 605 678.5 c 128,-1,26
 635 659 635 659 650 620 c 128,-1,27
 665 581 665 581 651 514 c 0,28,29
 640 450 640 450 596.5 411.5 c 128,-1,30
 553 373 553 373 490 357 c 1,0,1
285 672 m 1,31,32
 276 634 276 634 269.5 603 c 128,-1,33
 263 572 263 572 256 540 c 128,-1,34
 249 508 249 508 240.5 470.5 c 128,-1,35
 232 433 232 433 222 383 c 1,36,-1
 392 383 l 2,37,38
 424 386 424 386 458.5 389.5 c 128,-1,39
 493 393 493 393 523 405 c 128,-1,40
 553 417 553 417 576 441 c 128,-1,41
 599 465 599 465 607 509 c 0,42,43
 619 562 619 562 608 594 c 128,-1,44
 597 626 597 626 574.5 644 c 128,-1,45
 552 662 552 662 521 667 c 128,-1,46
 490 672 490 672 461 672 c 2,47,-1
 285 672 l 1,31,32
EndSplineSet
EndChar
StartChar: S
Encoding: 83 83 52
Width: 695
VWidth: 1467
Flags: W
HStem: -16 35<287.522 385.915> 582 21G<643.5 691> 701 31<442.228 532.531>
VStem: 104 49<85.2682 144> 644 47<582 636.794>
Fore
594 197 m 0,0,1
 603 255 603 255 574.5 284 c 128,-1,2
 546 313 546 313 499.5 327.5 c 128,-1,3
 453 342 453 342 397.5 350 c 128,-1,4
 342 358 342 358 296.5 375 c 128,-1,5
 251 392 251 392 224 425.5 c 128,-1,6
 197 459 197 459 208 527 c 0,7,8
 217 578 217 578 245.5 617 c 128,-1,9
 274 656 274 656 314 681.5 c 128,-1,10
 354 707 354 707 400.5 719.5 c 128,-1,11
 447 732 447 732 494 732 c 0,12,13
 531 732 531 732 566.5 723.5 c 128,-1,14
 602 715 602 715 629 697 c 128,-1,15
 656 679 656 679 673.5 650.5 c 128,-1,16
 691 622 691 622 691 582 c 1,17,-1
 644 582 l 1,18,19
 643 615 643 615 629 637.5 c 128,-1,20
 615 660 615 660 592 674 c 128,-1,21
 569 688 569 688 540.5 694.5 c 128,-1,22
 512 701 512 701 481 701 c 0,23,24
 442 701 442 701 404.5 689.5 c 128,-1,25
 367 678 367 678 336 656 c 128,-1,26
 305 634 305 634 284 601.5 c 128,-1,27
 263 569 263 569 255 527 c 0,28,29
 245 470 245 470 273.5 443.5 c 128,-1,30
 302 417 302 417 348.5 403.5 c 128,-1,31
 395 390 395 390 450.5 383 c 128,-1,32
 506 376 506 376 551.5 358 c 128,-1,33
 597 340 597 340 623.5 303.5 c 128,-1,34
 650 267 650 267 638 197 c 0,35,36
 629 141 629 141 597.5 100.5 c 128,-1,37
 566 60 566 60 523.5 34.5 c 128,-1,38
 481 9 481 9 430.5 -3.5 c 128,-1,39
 380 -16 380 -16 332 -16 c 0,40,41
 291 -16 291 -16 250.5 -8 c 128,-1,42
 210 0 210 0 177.5 19 c 128,-1,43
 145 38 145 38 124.5 69 c 128,-1,44
 104 100 104 100 104 144 c 1,45,-1
 153 144 l 1,46,47
 154 109 154 109 172.5 84.5 c 128,-1,48
 191 60 191 60 218 46 c 128,-1,49
 245 32 245 32 278 25.5 c 128,-1,50
 311 19 311 19 345 19 c 0,51,52
 384 19 384 19 425.5 30 c 128,-1,53
 467 41 467 41 502 64 c 128,-1,54
 537 87 537 87 562 120 c 128,-1,55
 587 153 587 153 594 197 c 0,0,1
EndSplineSet
EndChar
StartChar: T
Encoding: 84 84 53
Width: 689
VWidth: 1467
Flags: W
HStem: 0 21G<320 370.976> 669 46<224 453 500 744>
Fore
754 715 m 1,0,-1
 744 668 l 1,1,-1
 500 669 l 1,2,-1
 367 0 l 1,3,-1
 320 0 l 1,4,-1
 453 669 l 1,5,-1
 214 669 l 1,6,-1
 224 715 l 1,7,-1
 464 715 l 1,8,-1
 512 715 l 1,9,-1
 754 715 l 1,0,-1
EndSplineSet
EndChar
StartChar: U
Encoding: 85 85 54
Width: 705
VWidth: 1467
Flags: W
HStem: -15 37.5<260.315 457.437> 695 20G<247 296 710 753.5>
VStem: 249 47<656.603 715>
Fore
757 715 m 1,0,1
 750 678 750 678 734.5 604.5 c 128,-1,2
 719 531 719 531 701.5 449 c 128,-1,3
 684 367 684 367 667.5 290.5 c 128,-1,4
 651 214 651 214 643 173 c 0,5,6
 629 110 629 110 582.5 69 c 128,-1,7
 536 28 536 28 475 6.5 c 128,-1,8
 414 -15 414 -15 348 -15 c 128,-1,9
 282 -15 282 -15 230 5.5 c 128,-1,10
 178 26 178 26 149 68 c 128,-1,11
 120 110 120 110 134 173 c 0,12,13
 139 201 139 201 148.5 245 c 128,-1,14
 158 289 158 289 169 341 c 128,-1,15
 180 393 180 393 192 449 c 128,-1,16
 204 505 204 505 215 555.5 c 128,-1,17
 226 606 226 606 235.5 648 c 128,-1,18
 245 690 245 690 249 715 c 1,19,-1
 296 715 l 1,20,21
 291 691 291 691 282.5 650.5 c 128,-1,22
 274 610 274 610 263 561 c 128,-1,23
 252 512 252 512 240.5 458.5 c 128,-1,24
 229 405 229 405 218.5 354.5 c 128,-1,25
 208 304 208 304 198.5 261.5 c 128,-1,26
 189 219 189 219 183 192 c 0,27,28
 172 135 172 135 194.5 97.5 c 128,-1,29
 217 60 217 60 259 41 c 128,-1,30
 301 22 301 22 355 22.5 c 128,-1,31
 409 23 409 23 459 41.5 c 128,-1,32
 509 60 509 60 548 98 c 128,-1,33
 587 136 587 136 599 192 c 0,34,35
 604 219 604 219 613 261.5 c 128,-1,36
 622 304 622 304 633 353.5 c 128,-1,37
 644 403 644 403 656 457.5 c 128,-1,38
 668 512 668 512 678 561 c 128,-1,39
 688 610 688 610 697 650.5 c 128,-1,40
 706 691 706 691 710 713 c 1,41,-1
 757 715 l 1,0,1
EndSplineSet
EndChar
StartChar: V
Encoding: 86 86 55
Width: 685
VWidth: 1467
Flags: W
HStem: -10 21G<318.5 354.5> 695 20G<216 261.962 709.577 764>
VStem: 216 45<642.2 715> 238 48<106.347 137.212 137.212 140 140 167.124 167.124 267.8>
Fore
512 170 m 2,0,1
 500 141 500 141 485 110 c 128,-1,2
 470 79 470 79 449 53.5 c 128,-1,3
 428 28 428 28 400.5 9.5 c 128,-1,4
 373 -9 373 -9 336 -10 c 0,5,6
 301 -9 301 -9 280.5 7 c 128,-1,7
 260 23 260 23 250.5 48 c 128,-1,8
 241 73 241 73 238 104.5 c 128,-1,9
 235 136 235 136 235 170 c 2,10,-1
 216 715 l 1,11,-1
 261 715 l 1,12,-1
 286 195 l 2,13,14
 288 164 288 164 290 140 c 128,-1,15
 292 116 292 116 296 87 c 0,16,17
 301 65 301 65 313.5 52.5 c 128,-1,18
 326 40 326 40 343.5 38.5 c 128,-1,19
 361 37 361 37 380 47 c 128,-1,20
 399 57 399 57 415 84 c 0,21,22
 434 113 434 113 446 137 c 128,-1,23
 458 161 458 161 474 195 c 2,24,-1
 719 715 l 1,25,-1
 764 715 l 1,26,-1
 512 170 l 2,0,1
EndSplineSet
EndChar
StartChar: W
Encoding: 87 87 56
Width: 872
VWidth: 1467
Flags: W
HStem: -1 21G<183 243 602 666.938> 692 20G<217.99 263 883 942>
VStem: 219 44<642.681 712>
Fore
183 -1 m 1,0,-1
 219 712 l 1,1,-1
 263 712 l 1,2,-1
 239 60 l 1,3,4
 301 110 301 110 346.5 177 c 128,-1,5
 392 244 392 244 428 313.5 c 128,-1,6
 464 383 464 383 491.5 449 c 128,-1,7
 519 515 519 515 544 566 c 1,8,9
 549 533 549 533 553.5 486 c 128,-1,10
 558 439 558 439 562 386 c 128,-1,11
 566 333 566 333 571.5 279.5 c 128,-1,12
 577 226 577 226 584 180.5 c 128,-1,13
 591 135 591 135 602 103.5 c 128,-1,14
 613 72 613 72 628 62 c 1,15,16
 656 131 656 131 691 215 c 128,-1,17
 726 299 726 299 763 386.5 c 128,-1,18
 800 474 800 474 835 558.5 c 128,-1,19
 870 643 870 643 896 712 c 1,20,-1
 942 712 l 1,21,-1
 659 -1 l 1,22,-1
 616 -1 l 1,23,24
 588 12 588 12 568.5 59.5 c 128,-1,25
 549 107 549 107 536.5 171.5 c 128,-1,26
 524 236 524 236 519.5 307.5 c 128,-1,27
 515 379 515 379 519 437 c 1,28,29
 499 368 499 368 463.5 296 c 128,-1,30
 428 224 428 224 386.5 163.5 c 128,-1,31
 345 103 345 103 302.5 58 c 128,-1,32
 260 13 260 13 226 -1 c 1,33,-1
 183 -1 l 1,0,-1
EndSplineSet
EndChar
StartChar: X
Encoding: 88 88 57
Width: 786
VWidth: 1467
Flags: W
HStem: -1 21G<95.7222 147 641 682.833> 696 20G<232 304.167 762.315 844>
Fore
694 -1 m 1,0,-1
 641 0 l 1,1,-1
 453 320 l 1,2,-1
 147 0 l 1,3,-1
 76 -1 l 1,4,-1
 431 359 l 1,5,-1
 232 716 l 1,6,-1
 293 716 l 1,7,-1
 470 399 l 1,8,-1
 782 716 l 1,9,-1
 844 716 l 1,10,-1
 493 359 l 1,11,-1
 694 -1 l 1,0,-1
EndSplineSet
EndChar
StartChar: Y
Encoding: 89 89 58
Width: 679
VWidth: 1467
Flags: W
HStem: -3 21G<304 355.214> 692 20G<207 265.5 673.5 756>
Fore
756 712 m 1,0,1
 688 624 688 624 611 524 c 128,-1,2
 534 424 534 424 467 340 c 0,3,4
 440 310 440 310 414 296 c 1,5,-1
 351 -3 l 1,6,-1
 304 -3 l 1,7,-1
 367 295 l 1,8,9
 351 304 351 304 343.5 320.5 c 128,-1,10
 336 337 336 337 332 345 c 0,11,12
 315 381 315 381 299 428 c 128,-1,13
 283 475 283 475 267 524.5 c 128,-1,14
 251 574 251 574 235.5 622.5 c 128,-1,15
 220 671 220 671 207 712 c 1,16,-1
 260 712 l 1,17,18
 271 671 271 671 286 626.5 c 128,-1,19
 301 582 301 582 316.5 537.5 c 128,-1,20
 332 493 332 493 346.5 449.5 c 128,-1,21
 361 406 361 406 373 370 c 0,22,23
 384 336 384 336 395 334.5 c 128,-1,24
 406 333 406 333 431 364 c 0,25,26
 496 443 496 443 568.5 535.5 c 128,-1,27
 641 628 641 628 706 712 c 1,28,-1
 756 712 l 1,0,1
EndSplineSet
EndChar
StartChar: Z
Encoding: 90 90 59
Width: 752
VWidth: 1467
Flags: W
HStem: -1 49<187.538 646> 668 45<244 715>
Fore
657 48 m 1,0,-1
 646 -1 l 1,1,-1
 222 -1 l 2,2,3
 183 -1 183 -1 159 10 c 128,-1,4
 135 21 135 21 122.5 37.5 c 128,-1,5
 110 54 110 54 106.5 75.5 c 128,-1,6
 103 97 103 97 107 117 c 1,7,8
 117 125 117 125 163.5 166.5 c 128,-1,9
 210 208 210 208 274.5 267 c 128,-1,10
 339 326 339 326 412.5 392 c 128,-1,11
 486 458 486 458 550.5 516.5 c 128,-1,12
 615 575 615 575 660.5 616 c 128,-1,13
 706 657 706 657 715 666 c 1,14,-1
 233 668 l 1,15,-1
 244 713 l 1,16,-1
 798 713 l 1,17,-1
 788 669 l 1,18,-1
 167 106 l 1,19,20
 170 84 170 84 187 66 c 128,-1,21
 204 48 204 48 249 48 c 2,22,-1
 657 48 l 1,0,-1
EndSplineSet
EndChar
StartChar: bracketleft
Encoding: 91 91 60
Width: 286
VWidth: 1467
Flags: W
HStem: -117 30<114 254> 694 29<282 427>
VStem: 69 364<-117 723 -117 -117>
Fore
69 -117 m 1,0,-1
 249 723 l 1,1,-1
 433 723 l 1,2,-1
 427 694 l 1,3,-1
 282 694 l 1,4,-1
 114 -87 l 1,5,-1
 261 -87 l 1,6,-1
 254 -117 l 1,7,-1
 69 -117 l 1,0,-1
EndSplineSet
EndChar
StartChar: backslash
Encoding: 92 92 61
Width: 390
VWidth: 1467
Flags: W
HStem: 702 20G<142 190.483>
VStem: 142 253<-44 722 722 722>
Fore
142 722 m 1,0,-1
 185 722 l 1,1,-1
 395 -44 l 1,2,-1
 354 -44 l 1,3,-1
 142 722 l 1,0,-1
EndSplineSet
EndChar
StartChar: bracketright
Encoding: 93 93 62
Width: 284
VWidth: 1467
Flags: W
HStem: -117 30<-13 120> 694 29<148 288>
VStem: -21 351<-117 723 -117.034 -117>
Fore
-21 -117 m 1,0,-1
 -13 -87 l 1,1,-1
 120 -87 l 1,2,-1
 288 694 l 1,3,-1
 142 694 l 1,4,-1
 148 723 l 1,5,-1
 330 723 l 1,6,-1
 151 -117 l 1,7,-1
 -21 -117 l 1,0,-1
EndSplineSet
EndChar
StartChar: asciicircum
Encoding: 94 94 63
Width: 629
VWidth: 1467
Flags: W
HStem: 568 20G<414.5 435> 697 20G<446.5 460>
VStem: 122 462<210 210 210 210>
Fore
122 210 m 1,0,1
 173 255 173 255 223 317.5 c 128,-1,2
 273 380 273 380 317 448 c 128,-1,3
 361 516 361 516 397.5 586 c 128,-1,4
 434 656 434 656 459 717 c 1,5,6
 461 656 461 656 468 588.5 c 128,-1,7
 475 521 475 521 490 453.5 c 128,-1,8
 505 386 505 386 528.5 323 c 128,-1,9
 552 260 552 260 584 210 c 1,10,-1
 528 210 l 1,11,12
 490 289 490 289 462 385 c 128,-1,13
 434 481 434 481 436 588 c 1,14,15
 393 484 393 484 322.5 386.5 c 128,-1,16
 252 289 252 289 176 210 c 1,17,-1
 122 210 l 1,0,1
EndSplineSet
EndChar
StartChar: underscore
Encoding: 95 95 64
Width: 528
VWidth: 1467
Flags: W
HStem: -248 32<-41 468>
Fore
-47 -248 m 1,0,-1
 -41 -216 l 1,1,-1
 474 -216 l 1,2,-1
 468 -248 l 1,3,-1
 -47 -248 l 1,0,-1
EndSplineSet
EndChar
StartChar: grave
Encoding: 96 96 65
Width: 316
VWidth: 1467
Flags: W
HStem: 527 207<285 330>
VStem: 257 73<708.125 734> 285 45<527 552.875>
Fore
257 734 m 1,0,-1
 330 734 l 1,1,-1
 330 527 l 1,2,-1
 285 527 l 1,3,-1
 257 734 l 1,0,-1
EndSplineSet
EndChar
StartChar: a
Encoding: 97 97 66
Width: 560
VWidth: 1467
Flags: W
HStem: -6 21G<450.5 463> 476 39.5<295.18 396.873>
VStem: 73 464<129 362 77.971 85.1228> 425 52.5<23.6244 56>
Fore
477 299 m 1,0,1
 445 279 445 279 415.5 266.5 c 128,-1,2
 386 254 386 254 352 248 c 256,3,4
 318 242 318 242 281 234.5 c 128,-1,5
 244 227 244 227 209.5 214.5 c 128,-1,6
 175 202 175 202 150 181.5 c 128,-1,7
 125 161 125 161 117 129 c 0,8,9
 110 89 110 89 127.5 62 c 128,-1,10
 145 35 145 35 183 31 c 0,11,12
 232 23 232 23 269.5 29 c 128,-1,13
 307 35 307 35 337 47.5 c 128,-1,14
 367 60 367 60 391 76 c 128,-1,15
 415 92 415 92 436 106 c 1,16,-1
 436 109 l 1,17,-1
 477 299 l 1,0,1
459 -6 m 1,18,19
 442 1 442 1 433 18 c 128,-1,20
 424 35 424 35 425 56 c 1,21,22
 409 45 409 45 382 30.5 c 128,-1,23
 355 16 355 16 320 5 c 128,-1,24
 285 -6 285 -6 244.5 -11 c 128,-1,25
 204 -16 204 -16 163 -7 c 0,26,27
 112 4 112 4 87 37 c 128,-1,28
 62 70 62 70 73 129 c 0,29,30
 84 179 84 179 115.5 206 c 128,-1,31
 147 233 147 233 188 247 c 128,-1,32
 229 261 229 261 274.5 267.5 c 128,-1,33
 320 274 320 274 361 283 c 0,34,35
 374 286 374 286 394 292.5 c 128,-1,36
 414 299 414 299 433 310 c 128,-1,37
 452 321 452 321 467.5 334.5 c 128,-1,38
 483 348 483 348 486 364 c 0,39,40
 490 384 490 384 483.5 407.5 c 128,-1,41
 477 431 477 431 456 447 c 0,42,43
 434 467 434 467 398 473.5 c 128,-1,44
 362 480 362 480 319.5 476 c 128,-1,45
 277 472 277 472 234 459.5 c 128,-1,46
 191 447 191 447 156 431 c 1,47,-1
 175 478 l 1,48,49
 214 496 214 496 257.5 505.5 c 128,-1,50
 301 515 301 515 342.5 515.5 c 128,-1,51
 384 516 384 516 422.5 508 c 128,-1,52
 461 500 461 500 490 484 c 0,53,54
 519 470 519 470 532.5 436.5 c 128,-1,55
 546 403 546 403 537 362 c 2,56,-1
 481 101 l 2,57,58
 477 78 477 78 477.5 60.5 c 128,-1,59
 478 43 478 43 499 23 c 1,60,61
 487 13 487 13 477 6.5 c 128,-1,62
 467 0 467 0 459 -6 c 1,18,19
EndSplineSet
Substitution2: "Single Substitution lookup 22 subtable" uni0E38
Substitution2: "Single Substitution lookup 22 subtable" uni0E38
EndChar
StartChar: b
Encoding: 98 98 67
Width: 630
VWidth: 1467
Flags: W
HStem: -6 38<293.875 415.968> 475.5 36<351.874 390 390 412.929 412.929 419.669 419.669 499.473> 684 20G<259.657 308>
VStem: 570 46.5<268.415 312.5 312.5 356.741>
Fore
437 514 m 0,0,1
 499 509 499 509 538 482 c 128,-1,2
 577 455 577 455 596 414.5 c 128,-1,3
 615 374 615 374 616.5 323.5 c 128,-1,4
 618 273 618 273 603 223 c 0,5,6
 590 179 590 179 565.5 137 c 128,-1,7
 541 95 541 95 509 63.5 c 128,-1,8
 477 32 477 32 436 13 c 128,-1,9
 395 -6 395 -6 349 -6 c 0,10,11
 307 -6 307 -6 279 0 c 128,-1,12
 251 6 251 6 231 14.5 c 128,-1,13
 211 23 211 23 198 34 c 128,-1,14
 185 45 185 45 170 57 c 1,15,-1
 169 57 l 1,16,17
 161 37 161 37 146.5 19 c 128,-1,18
 132 1 132 1 112 -6 c 1,19,20
 106 1 106 1 98.5 8 c 128,-1,21
 91 15 91 15 84 25 c 1,22,23
 113 44 113 44 121 61.5 c 128,-1,24
 129 79 129 79 134 103 c 2,25,-1
 145 157 l 1,26,-1
 188 354 l 1,27,-1
 264 704 l 1,28,-1
 308 704 l 1,29,-1
 252 446 l 1,30,31
 270 465 270 465 296.5 478.5 c 128,-1,32
 323 492 323 492 351 500 c 128,-1,33
 379 508 379 508 402 511.5 c 128,-1,34
 425 515 425 515 437 514 c 0,0,1
556 227 m 0,35,36
 569 270 569 270 570 312.5 c 128,-1,37
 571 355 571 355 557 390 c 128,-1,38
 543 425 543 425 512 449.5 c 128,-1,39
 481 474 481 474 431 480 c 0,40,41
 415 481 415 481 390 475.5 c 128,-1,42
 365 470 365 470 339 458 c 128,-1,43
 313 446 313 446 286.5 427.5 c 128,-1,44
 260 409 260 409 239 386 c 1,45,-1
 233 354 l 1,46,-1
 232 354 l 1,47,-1
 179 109 l 1,48,-1
 180 109 l 1,49,-1
 180 107 l 1,50,51
 207 75 207 75 245 52 c 128,-1,52
 283 29 283 29 346 32 c 0,53,54
 384 34 384 34 417 50 c 128,-1,55
 450 66 450 66 477.5 93 c 128,-1,56
 505 120 505 120 524.5 154.5 c 128,-1,57
 544 189 544 189 556 227 c 0,35,36
EndSplineSet
Substitution2: "Single Substitution lookup 22 subtable" uni0E39
Substitution2: "Single Substitution lookup 22 subtable" uni0E39
EndChar
StartChar: c
Encoding: 99 99 68
Width: 619
VWidth: 1467
Flags: W
Fore
172 367 m 0,0,1
 179 405 179 405 210 433.5 c 128,-1,2
 241 462 241 462 279 483 c 0,3,4
 320 505 320 505 375 513 c 128,-1,5
 430 521 430 521 482 513.5 c 128,-1,6
 534 506 534 506 573.5 481 c 128,-1,7
 613 456 613 456 626 412 c 1,8,-1
 584 396 l 1,9,10
 577 434 577 434 544.5 454.5 c 128,-1,11
 512 475 512 475 470 480.5 c 128,-1,12
 428 486 428 486 383.5 479 c 128,-1,13
 339 472 339 472 307 455 c 0,14,15
 273 436 273 436 247.5 408 c 128,-1,16
 222 380 222 380 214 348 c 0,17,18
 204 301 204 301 194.5 256 c 128,-1,19
 185 211 185 211 175 164 c 0,20,21
 167 132 167 132 182 104 c 128,-1,22
 197 76 197 76 223 57 c 0,23,24
 248 40 248 40 290 33 c 128,-1,25
 332 26 332 26 376 31.5 c 128,-1,26
 420 37 420 37 460 57.5 c 128,-1,27
 500 78 500 78 524 116 c 1,28,-1
 560 100 l 1,29,30
 530 56 530 56 478.5 31 c 128,-1,31
 427 6 427 6 372 -1.5 c 128,-1,32
 317 -9 317 -9 266.5 -1 c 128,-1,33
 216 7 216 7 183 29 c 0,34,35
 154 50 154 50 135 78.5 c 128,-1,36
 116 107 116 107 125 145 c 0,37,38
 136 201 136 201 148 256 c 128,-1,39
 160 311 160 311 172 367 c 0,0,1
EndSplineSet
Substitution2: "Single Substitution lookup 22 subtable" uni0E3A
Substitution2: "Single Substitution lookup 22 subtable" uni0E3A
EndChar
StartChar: d
Encoding: 100 100 69
Width: 595
VWidth: 1467
Flags: W
HStem: -6 38<222.331 325.125> 480 34<315.921 409.39 409.39 416.089 416.089 431 433.5 474.312> 684 20G<607.659 656>
VStem: 484 39<25.5934 56.3755>
Fore
527 103 m 2,0,1
 522 79 522 79 523 61.5 c 128,-1,2
 524 44 524 44 544 25 c 1,3,4
 533 15 533 15 522.5 8 c 128,-1,5
 512 1 512 1 503 -6 c 1,6,7
 487 1 487 1 480.5 19 c 128,-1,8
 474 37 474 37 474 57 c 1,9,10
 453 45 453 45 435 34 c 128,-1,11
 417 23 417 23 394 14.5 c 128,-1,12
 371 6 371 6 341 0 c 128,-1,13
 311 -6 311 -6 267 -6 c 0,14,15
 220 -6 220 -6 188 13 c 128,-1,16
 156 32 156 32 136.5 63.5 c 128,-1,17
 117 95 117 95 111.5 137 c 128,-1,18
 106 179 106 179 112 223 c 0,19,20
 119 273 119 273 141 323.5 c 128,-1,21
 163 374 163 374 199 414.5 c 128,-1,22
 235 455 235 455 285 482 c 128,-1,23
 335 509 335 509 399 514 c 0,24,25
 411 515 411 515 433.5 511.5 c 128,-1,26
 456 508 456 508 480.5 500 c 128,-1,27
 505 492 505 492 526 478.5 c 128,-1,28
 547 465 547 465 556 446 c 1,29,-1
 612 704 l 1,30,-1
 656 704 l 1,31,-1
 581 354 l 1,32,-1
 538 157 l 1,33,-1
 527 103 l 2,0,1
537 354 m 1,34,-1
 543 386 l 1,35,36
 534 409 534 409 515.5 427.5 c 128,-1,37
 497 446 497 446 475 458 c 128,-1,38
 453 470 453 470 431 475.5 c 128,-1,39
 409 481 409 481 392 480 c 0,40,41
 340 474 340 474 299 449.5 c 128,-1,42
 258 425 258 425 228 390 c 128,-1,43
 198 355 198 355 180.5 312.5 c 128,-1,44
 163 270 163 270 157 227 c 0,45,46
 153 189 153 189 158.5 154.5 c 128,-1,47
 164 120 164 120 179.5 93 c 128,-1,48
 195 66 195 66 221.5 50 c 128,-1,49
 248 34 248 34 286 32 c 0,50,51
 349 29 349 29 396 52 c 128,-1,52
 443 75 443 75 484 107 c 1,53,-1
 484 109 l 1,54,-1
 537 354 l 1,34,-1
EndSplineSet
EndChar
StartChar: e
Encoding: 101 101 70
Width: 619
VWidth: 1467
Flags: W
HStem: 220 40<197 423.7 423.7 470.938> 477.5 36.5<378.475 466.646>
VStem: 574 44<297.05 346 346 388>
Fore
125 141 m 0,0,1
 136 197 136 197 148 252 c 128,-1,2
 172 362 l 0,3,4
 179 401 179 401 210.5 429.5 c 128,-1,5
 242 458 242 458 280 478 c 0,6,7
 311 494 311 494 347.5 504 c 128,-1,8
 384 514 384 514 421.5 514 c 128,-1,9
 459 514 459 514 495 505 c 128,-1,10
 531 496 531 496 560 477 c 0,11,12
 588 458 588 458 606 424 c 128,-1,13
 624 390 624 390 618 351 c 0,14,15
 610 308 610 308 595.5 282.5 c 128,-1,16
 581 257 581 257 553 243 c 128,-1,17
 525 229 525 229 482 224.5 c 128,-1,18
 439 220 439 220 376 220 c 2,19,-1
 188 220 l 1,20,21
 183 201 183 201 182.5 196 c 128,-1,22
 182 191 182 191 181 188.5 c 128,-1,23
 180 186 180 186 179.5 182 c 128,-1,24
 179 178 179 178 176 160 c 0,25,26
 169 128 169 128 184.5 100 c 128,-1,27
 200 72 200 72 224 53 c 0,28,29
 251 35 251 35 292 28.5 c 128,-1,30
 333 22 333 22 377 27 c 128,-1,31
 421 32 421 32 461.5 52.5 c 128,-1,32
 502 73 502 73 525 112 c 1,33,-1
 560 95 l 1,34,35
 530 51 530 51 479 26 c 128,-1,36
 428 1 428 1 373 -6 c 128,-1,37
 318 -13 318 -13 267 -5 c 128,-1,38
 216 3 216 3 183 25 c 0,39,40
 154 45 154 45 135.5 74 c 128,-1,41
 117 103 117 103 125 141 c 0,0,1
534 445 m 0,42,43
 489 478 489 478 425 477.5 c 128,-1,44
 361 477 361 477 310 450 c 0,45,46
 276 431 276 431 249 403.5 c 128,-1,47
 222 376 222 376 214 343 c 0,48,49
 210 321 210 321 205.5 301.5 c 128,-1,50
 201 282 201 282 197 260 c 1,51,-1
 384 260 l 2,52,53
 430 260 430 260 463 260.5 c 128,-1,54
 496 261 496 261 518.5 270 c 128,-1,55
 541 279 541 279 554.5 296.5 c 128,-1,56
 568 314 568 314 574 346 c 0,57,58
 578 374 578 374 565.5 402 c 128,-1,59
 553 430 553 430 534 445 c 0,42,43
EndSplineSet
EndChar
StartChar: f
Encoding: 102 102 71
Width: 369
VWidth: 1467
Flags: W
HStem: -25 21G<85.5 99.5> 465 40<249 355> 668 38<375.854 449>
VStem: 62 396<4 706 -209.29 -196.906>
Fore
458 706 m 1,0,-1
 449 668 l 1,1,-1
 423 668 l 2,2,3
 376 668 376 668 345.5 657 c 128,-1,4
 315 646 315 646 296 625 c 128,-1,5
 277 604 277 604 267 574 c 128,-1,6
 257 544 257 544 249 505 c 1,7,-1
 364 505 l 1,8,-1
 355 465 l 1,9,-1
 241 465 l 1,10,-1
 167 122 l 1,11,-1
 150 37 l 2,12,13
 142 16 142 16 126 -1 c 128,-1,14
 110 -18 110 -18 89 -25 c 1,15,16
 82 -19 82 -19 75.5 -12.5 c 128,-1,17
 69 -6 69 -6 62 4 c 1,18,19
 91 23 91 23 99 41 c 128,-1,20
 107 59 107 59 112 82 c 2,21,-1
 202 499 l 2,22,23
 216 558 216 558 232.5 597.5 c 128,-1,24
 249 637 249 637 275.5 661 c 128,-1,25
 302 685 302 685 339.5 695.5 c 128,-1,26
 377 706 377 706 433 706 c 2,27,-1
 458 706 l 1,0,-1
EndSplineSet
EndChar
StartChar: g
Encoding: 103 103 72
Width: 595
VWidth: 1467
Flags: W
HStem: -224 36<229 320.529> -9 21G<242 279> 474 37<294.548 420.965>
VStem: 96 45<117.096 237.461>
Fore
600 511 m 1,0,1
 606 505 606 505 613.5 497.5 c 128,-1,2
 621 490 621 490 628 481 c 1,3,4
 599 462 599 462 590.5 444.5 c 128,-1,5
 582 427 582 427 578 403 c 2,6,-1
 566 349 l 1,7,-1
 524 151 l 1,8,-1
 489 -19 l 1,9,-1
 487 -23 l 2,10,11
 475 -81 475 -81 459 -119.5 c 128,-1,12
 443 -158 443 -158 417.5 -181.5 c 128,-1,13
 392 -205 392 -205 355 -214.5 c 128,-1,14
 318 -224 318 -224 264 -224 c 2,15,-1
 222 -224 l 1,16,-1
 229 -188 l 1,17,-1
 274 -188 l 2,18,19
 320 -188 320 -188 349.5 -177 c 128,-1,20
 379 -166 379 -166 397 -145.5 c 128,-1,21
 415 -125 415 -125 425.5 -95.5 c 128,-1,22
 436 -66 436 -66 443 -26 c 2,23,-1
 445 -19 l 1,24,-1
 443 -19 l 1,25,-1
 459 59 l 1,26,27
 442 40 442 40 415.5 26.5 c 128,-1,28
 389 13 389 13 361 5 c 128,-1,29
 333 -3 333 -3 309 -6 c 128,-1,30
 285 -9 285 -9 273 -9 c 0,31,32
 211 -4 211 -4 173 23 c 128,-1,33
 135 50 135 50 116 91 c 128,-1,34
 97 132 97 132 96 182 c 128,-1,35
 95 232 95 232 112 283 c 0,36,37
 125 327 125 327 148.5 369 c 128,-1,38
 172 411 172 411 203.5 442.5 c 128,-1,39
 235 474 235 474 275 492.5 c 128,-1,40
 315 511 315 511 361 511 c 0,41,42
 405 511 405 511 433 505.5 c 128,-1,43
 461 500 461 500 480.5 491.5 c 128,-1,44
 500 483 500 483 513.5 472 c 128,-1,45
 527 461 527 461 541 447 c 1,46,-1
 543 449 l 1,47,48
 550 470 550 470 565 486.5 c 128,-1,49
 580 503 580 503 600 511 c 1,0,1
531 399 m 1,50,51
 503 430 503 430 465.5 452.5 c 128,-1,52
 428 475 428 475 365 474 c 0,53,54
 327 472 327 472 293.5 456 c 128,-1,55
 260 440 260 440 232.5 413 c 128,-1,56
 205 386 205 386 184.5 350.5 c 128,-1,57
 164 315 164 315 154 279 c 0,58,59
 141 236 141 236 141 193.5 c 128,-1,60
 141 151 141 151 155.5 116 c 128,-1,61
 170 81 170 81 201 56.5 c 128,-1,62
 232 32 232 32 280 26 c 0,63,64
 296 23 296 23 321 29 c 128,-1,65
 346 35 346 35 373.5 47.5 c 128,-1,66
 401 60 401 60 426.5 78.5 c 128,-1,67
 452 97 452 97 472 120 c 1,68,-1
 531 399 l 1,50,51
EndSplineSet
EndChar
StartChar: h
Encoding: 104 104 73
Width: 591
VWidth: 1467
Flags: W
HStem: 1 21G<97 154.581 456 504.235> 470 45<350.585 496.488> 686 20G<244.5 256>
VStem: 229.5 50.5<627.25 675.407> 527.5 45<330.491 357 357 407.811>
Fore
450 515 m 0,0,1
 492 515 492 515 518 499 c 128,-1,2
 544 483 544 483 557.5 455 c 128,-1,3
 571 427 571 427 572.5 389 c 128,-1,4
 574 351 574 351 565 308 c 2,5,-1
 500 1 l 1,6,-1
 456 1 l 1,7,-1
 516 286 l 2,8,9
 525 324 525 324 527.5 357 c 128,-1,10
 530 390 530 390 522 415 c 128,-1,11
 514 440 514 440 492.5 455 c 128,-1,12
 471 470 471 470 431 470 c 0,13,14
 387 470 387 470 350 449 c 128,-1,15
 313 428 313 428 282.5 393.5 c 128,-1,16
 252 359 252 359 229.5 316 c 128,-1,17
 207 273 207 273 192 229 c 1,18,-1
 151 0 l 1,19,-1
 104 0 l 1,20,-1
 97 1 l 1,21,-1
 182 403 l 1,22,-1
 213 544 l 1,23,-1
 224 599 l 2,24,25
 230 622 230 622 229.5 639.5 c 128,-1,26
 229 657 229 657 207 676 c 1,27,28
 219 687 219 687 230 693.5 c 128,-1,29
 241 700 241 700 248 706 c 1,30,31
 264 698 264 698 273 681.5 c 128,-1,32
 282 665 282 665 280 644 c 1,33,-1
 266 577 l 1,34,-1
 220 361 l 1,35,36
 258 440 258 440 313 477.5 c 128,-1,37
 368 515 368 515 450 515 c 0,0,1
EndSplineSet
EndChar
StartChar: i
Encoding: 105 105 74
Width: 246
VWidth: 1467
Flags: W
HStem: -26 21G<128 140.5> 584 21G<235 252.5>
VStem: 103 53<3.59338 52.5> 217 78<601 683>
Fore
160 81 m 2,0,1
 156 57 156 57 156 39.5 c 128,-1,2
 156 22 156 22 176 3 c 1,3,4
 164 -7 164 -7 154.5 -14 c 128,-1,5
 145 -21 145 -21 136 -26 c 1,6,7
 120 -19 120 -19 110.5 -2 c 128,-1,8
 101 15 101 15 103 35 c 2,9,-1
 120 120 l 1,10,-1
 202 499 l 1,11,-1
 249 499 l 1,12,-1
 169 120 l 1,13,-1
 160 81 l 2,0,1
270 698 m 1,14,15
 286 700 286 700 295 683 c 128,-1,16
 304 666 304 666 298 641 c 0,17,18
 293 618 293 618 277 601 c 128,-1,19
 261 584 261 584 244 584 c 256,20,21
 226 584 226 584 217 601 c 128,-1,22
 208 618 208 618 214 641 c 0,23,24
 220 666 220 666 236 683 c 128,-1,25
 252 700 252 700 270 698 c 1,14,15
EndSplineSet
EndChar
StartChar: j
Encoding: 106 106 75
Width: 313
VWidth: 1467
Flags: W
HStem: -226 40<-29 -24.5471 -24.4532 40.4707> 584 21G<300.5 318.5>
VStem: 282 79<601 683>
Fore
318 499 m 1,0,-1
 208 -18 l 2,1,2
 195 -76 195 -76 178 -116.5 c 128,-1,3
 161 -157 161 -157 135.5 -181 c 128,-1,4
 110 -205 110 -205 74 -214.5 c 128,-1,5
 38 -224 38 -224 -13 -224 c 0,6,7
 -21 -224 -21 -224 -22 -224 c 128,-1,8
 -23 -224 -23 -224 -24.5 -225 c 128,-1,9
 -26 -226 -26 -226 -28.5 -226 c 128,-1,10
 -31 -226 -31 -226 -38 -226 c 1,11,-1
 -29 -186 l 1,12,-1
 -3 -186 l 2,13,14
 40 -186 40 -186 67.5 -175 c 128,-1,15
 95 -164 95 -164 113.5 -143 c 128,-1,16
 132 -122 132 -122 142.5 -91 c 128,-1,17
 153 -60 153 -60 160 -19 c 2,18,-1
 270 499 l 1,19,-1
 318 499 l 1,0,-1
335 698 m 1,20,21
 352 700 352 700 361 683 c 128,-1,22
 370 666 370 666 364 641 c 0,23,24
 359 618 359 618 343 601 c 128,-1,25
 327 584 327 584 310 584 c 0,26,27
 291 584 291 584 282 601 c 128,-1,28
 273 618 273 618 279 641 c 0,29,30
 285 666 285 666 301 683 c 128,-1,31
 317 700 317 700 335 698 c 1,20,21
EndSplineSet
EndChar
StartChar: k
Encoding: 107 107 76
Width: 559
VWidth: 1467
Flags: W
HStem: 1 21G<101 151.351 424 476.25> 482 20G<485.882 569> 687 20G<240.5 254>
VStem: 101 468<0 502 1.53064e-18 1.53064e-18> 226.5 50.5<628 677.407>
Fore
380 348 m 1,0,1
 411 343 411 343 439 332 c 128,-1,2
 467 321 467 321 485 300 c 128,-1,3
 503 279 503 279 509.5 245 c 128,-1,4
 516 211 516 211 506 161 c 2,5,-1
 472 1 l 1,6,-1
 424 1 l 1,7,-1
 458 160 l 2,8,9
 468 202 468 202 460.5 230 c 128,-1,10
 453 258 453 258 435.5 275.5 c 128,-1,11
 418 293 418 293 392.5 302 c 128,-1,12
 367 311 367 311 340 314 c 1,13,-1
 179 185 l 1,14,-1
 148 0 l 1,15,-1
 101 0 l 1,16,-1
 211 546 l 1,17,-1
 222 600 l 2,18,19
 227 624 227 624 226.5 641.5 c 128,-1,20
 226 659 226 659 205 678 c 1,21,22
 217 688 217 688 226.5 694.5 c 128,-1,23
 236 701 236 701 245 707 c 1,24,25
 263 700 263 700 271.5 683 c 128,-1,26
 280 666 280 666 277 646 c 2,27,-1
 263 574 l 1,28,-1
 192 248 l 1,29,-1
 511 502 l 1,30,-1
 569 502 l 1,31,-1
 380 348 l 1,0,1
EndSplineSet
EndChar
StartChar: l
Encoding: 108 108 77
Width: 240
VWidth: 1467
Flags: W
HStem: -26 21G<127 139.5> 684 20G<235 254.5>
VStem: 101 53<4.59351 53.1389> 226 53<619.143 676.937>
Fore
158 82 m 1,0,1
 154 59 154 59 154 41 c 128,-1,2
 154 23 154 23 175 4 c 1,3,4
 163 -6 163 -6 153.5 -12.5 c 128,-1,5
 144 -19 144 -19 135 -26 c 1,6,7
 119 -19 119 -19 109.5 -1.5 c 128,-1,8
 100 16 100 16 101 37 c 2,9,-1
 119 120 l 1,10,-1
 222 597 l 2,11,12
 226 621 226 621 226 638.5 c 128,-1,13
 226 656 226 656 205 675 c 1,14,15
 224 693 224 693 246 704 c 1,16,17
 263 697 263 697 271 680 c 128,-1,18
 279 663 279 663 279 643 c 1,19,-1
 264 580 l 1,20,-1
 158 82 l 1,0,1
EndSplineSet
EndChar
StartChar: m
Encoding: 109 109 78
Width: 724
VWidth: 1467
Flags: W
HStem: -29 21<94 146.342 337 385.828 611.5 622.5> 470.5 40<313.404 403.309>
VStem: 183 53<414.235 475.906> 414 45<392 432.685> 657 46.5<347.638 434.312>
Fore
643 72 m 1,0,1
 638 50 638 50 638 33 c 128,-1,2
 638 16 638 16 657 -1 c 1,3,4
 647 -10 647 -10 636.5 -16.5 c 128,-1,5
 626 -23 626 -23 619 -29 c 1,6,7
 604 -22 604 -22 595.5 -6.5 c 128,-1,8
 587 9 587 9 588 28 c 2,9,-1
 607 122 l 1,10,-1
 643 283 l 2,11,12
 654 345 654 345 657 385 c 128,-1,13
 660 425 660 425 649 446 c 0,14,15
 635 471 635 471 606 469.5 c 128,-1,16
 577 468 577 468 552 443 c 0,17,18
 533 424 533 424 514.5 400.5 c 128,-1,19
 496 377 496 377 479 342.5 c 128,-1,20
 462 308 462 308 445 259.5 c 128,-1,21
 428 211 428 211 414 144 c 0,22,23
 411 128 411 128 408.5 118.5 c 128,-1,24
 406 109 406 109 404.5 100.5 c 128,-1,25
 403 92 403 92 401 82 c 128,-1,26
 399 72 399 72 396 57 c 1,27,-1
 395 57 l 1,28,-1
 381 -1 l 1,29,-1
 337 -1 l 1,30,-1
 399 283 l 2,31,32
 411 345 411 345 414 385 c 128,-1,33
 417 425 417 425 405 446 c 0,34,35
 392 471 392 471 362 470.5 c 128,-1,36
 332 470 332 470 308 443 c 0,37,38
 291 424 291 424 271.5 394.5 c 128,-1,39
 252 365 252 365 234.5 329 c 128,-1,40
 217 293 217 293 202.5 253 c 128,-1,41
 188 213 188 213 179 172 c 0,42,43
 178 166 178 166 177 161.5 c 128,-1,44
 176 157 176 157 175 151 c 2,45,-1
 142 -1 l 1,46,-1
 94 -1 l 1,47,-1
 107 57 l 1,48,-1
 179 395 l 2,49,50
 183 418 183 418 183 435.5 c 128,-1,51
 183 453 183 453 163 474 c 1,52,53
 175 483 175 483 185 490 c 128,-1,54
 195 497 195 497 202 503 c 1,55,56
 219 496 219 496 227.5 479 c 128,-1,57
 236 462 236 462 236 442 c 1,58,-1
 223 379 l 1,59,-1
 223 377 l 1,60,61
 244 420 244 420 266 449 c 128,-1,62
 288 478 288 478 310 493 c 0,63,64
 337 512 337 512 371.5 510.5 c 128,-1,65
 406 509 406 509 427 493 c 256,66,67
 447 477 447 477 454.5 451 c 128,-1,68
 462 425 462 425 459 392 c 1,69,70
 483 430 483 430 508.5 455.5 c 128,-1,71
 534 481 534 481 553 493 c 0,72,73
 582 509 582 509 616 509 c 128,-1,74
 650 509 650 509 671 493 c 0,75,76
 701 468 701 468 703.5 418 c 128,-1,77
 706 368 706 368 693 307 c 2,78,-1
 647 95 l 1,79,-1
 643 72 l 1,0,1
EndSplineSet
EndChar
StartChar: n
Encoding: 110 110 79
Width: 600
VWidth: 1467
Flags: W
HStem: -28 21<101 153.404 485 497.5> 468 47<368.167 495.263>
VStem: 182.5 53.5<426.173 437.5 437.5 474.376> 527.5 45<330.491 404.493>
Fore
516 78 m 1,0,1
 511 53 511 53 512.5 35.5 c 128,-1,2
 514 18 514 18 538 0 c 1,3,4
 522 -9 522 -9 512 -15.5 c 128,-1,5
 502 -22 502 -22 493 -28 c 1,6,7
 477 -21 477 -21 469 -5.5 c 128,-1,8
 461 10 461 10 462 29 c 2,9,-1
 516 285 l 2,10,11
 525 323 525 323 527.5 356.5 c 128,-1,12
 530 390 530 390 521 415 c 128,-1,13
 512 440 512 440 491 454 c 128,-1,14
 470 468 470 468 430 468 c 0,15,16
 386 468 386 468 348 442.5 c 128,-1,17
 310 417 310 417 277.5 376 c 128,-1,18
 245 335 245 335 221 285.5 c 128,-1,19
 197 236 197 236 182 188 c 2,20,-1
 150 0 l 1,21,-1
 103 0 l 1,22,-1
 101 0 l 1,23,-1
 178 396 l 2,24,25
 182 420 182 420 182.5 437.5 c 128,-1,26
 183 455 183 455 163 475 c 1,27,28
 183 492 183 492 204 505 c 1,29,30
 219 497 219 497 228.5 480.5 c 128,-1,31
 238 464 238 464 236 443 c 2,32,-1
 210 318 l 1,33,34
 229 359 229 359 254 395 c 128,-1,35
 279 431 279 431 309 457.5 c 128,-1,36
 339 484 339 484 374 499.5 c 128,-1,37
 409 515 409 515 450 515 c 256,38,39
 492 515 492 515 518 499 c 128,-1,40
 544 483 544 483 557.5 455 c 128,-1,41
 571 427 571 427 572.5 389 c 128,-1,42
 574 351 574 351 565 308 c 2,43,-1
 516 78 l 1,0,1
EndSplineSet
EndChar
StartChar: o
Encoding: 111 111 80
Width: 604
VWidth: 1467
Flags: W
HStem: -13 36<215.773 391.836> 474 35<299.785 480.154>
VStem: 106 485<172 191 307 324 172 324 164.832 195.949>
Fore
135 324 m 0,0,1
 148 386 148 386 191.5 427 c 128,-1,2
 235 468 235 468 290 488.5 c 128,-1,3
 345 509 345 509 403.5 509 c 128,-1,4
 462 509 462 509 508.5 488.5 c 128,-1,5
 555 468 555 468 579.5 427 c 128,-1,6
 604 386 604 386 591 324 c 0,7,8
 584 289 584 289 580.5 273 c 128,-1,9
 577 257 577 257 575.5 250.5 c 128,-1,10
 574 244 574 244 574 241.5 c 128,-1,11
 574 239 574 239 572.5 234 c 128,-1,12
 571 229 571 229 568 215.5 c 128,-1,13
 565 202 565 202 559 172 c 0,14,15
 546 110 546 110 504 69 c 128,-1,16
 462 28 462 28 408.5 7.5 c 128,-1,17
 355 -13 355 -13 296.5 -13 c 128,-1,18
 238 -13 238 -13 191.5 7.5 c 128,-1,19
 145 28 145 28 119.5 69 c 128,-1,20
 94 110 94 110 106 172 c 0,21,22
 113 205 113 205 120.5 248 c 128,-1,23
 128 291 128 291 135 324 c 0,0,1
178 307 m 0,24,25
 176 299 176 299 173 283.5 c 128,-1,26
 170 268 170 268 167 250.5 c 128,-1,27
 164 233 164 233 160.5 216.5 c 128,-1,28
 157 200 157 200 156 191 c 0,29,30
 144 135 144 135 163 97.5 c 128,-1,31
 182 60 182 60 218 41.5 c 128,-1,32
 254 23 254 23 300 23 c 128,-1,33
 346 23 346 23 390 42.5 c 128,-1,34
 434 62 434 62 469.5 98.5 c 128,-1,35
 505 135 505 135 518 191 c 0,36,37
 524 213 524 213 525.5 221 c 128,-1,38
 527 229 527 229 528.5 236.5 c 128,-1,39
 530 244 530 244 533 257.5 c 128,-1,40
 536 271 536 271 543 305 c 0,41,42
 553 361 553 361 534 398.5 c 128,-1,43
 515 436 515 436 478.5 455 c 128,-1,44
 442 474 442 474 395 474 c 128,-1,45
 348 474 348 474 303 455.5 c 128,-1,46
 258 437 258 437 223.5 399.5 c 128,-1,47
 189 362 189 362 178 307 c 0,24,25
EndSplineSet
EndChar
StartChar: p
Encoding: 112 112 81
Width: 619
VWidth: 1467
Flags: W
HStem: -6 21G<307 344.5> 477 37<383.448 489.185>
VStem: 185 53<450 483.406>
Fore
600 286 m 0,0,1
 593 235 593 235 571 185 c 128,-1,2
 549 135 549 135 512 94 c 128,-1,3
 475 53 475 53 425.5 26 c 128,-1,4
 376 -1 376 -1 313 -6 c 0,5,6
 301 -6 301 -6 278 -3 c 128,-1,7
 255 0 255 0 231 8 c 128,-1,8
 207 16 207 16 185 29.5 c 128,-1,9
 163 43 163 43 154 62 c 1,10,-1
 103 -186 l 1,11,-1
 57 -186 l 1,12,-1
 126 154 l 1,13,-1
 169 352 l 1,14,-1
 179 406 l 2,15,16
 185 428 185 428 185 446.5 c 128,-1,17
 185 465 185 465 164 484 c 1,18,19
 185 500 185 500 205 514 c 1,20,21
 220 506 220 506 229.5 489 c 128,-1,22
 239 472 239 472 238 452 c 2,23,-1
 238 450 l 1,24,25
 257 464 257 464 276 475 c 128,-1,26
 295 486 295 486 317.5 494.5 c 128,-1,27
 340 503 340 503 370.5 508.5 c 128,-1,28
 401 514 401 514 445 514 c 0,29,30
 490 514 490 514 523 495.5 c 128,-1,31
 556 477 556 477 575 445.5 c 128,-1,32
 594 414 594 414 600 372 c 128,-1,33
 606 330 606 330 600 286 c 0,0,1
320 29 m 0,34,35
 373 35 373 35 414 59.5 c 128,-1,36
 455 84 455 84 484.5 119 c 128,-1,37
 514 154 514 154 531.5 196.5 c 128,-1,38
 549 239 549 239 553 282 c 0,39,40
 558 318 558 318 552.5 353.5 c 128,-1,41
 547 389 547 389 531.5 416 c 128,-1,42
 516 443 516 443 490 459 c 128,-1,43
 464 475 464 475 427 477 c 0,44,45
 362 480 362 480 315 456.5 c 128,-1,46
 268 433 268 433 227 402 c 1,47,-1
 167 123 l 1,48,49
 178 100 178 100 196 81.5 c 128,-1,50
 214 63 214 63 236 50.5 c 128,-1,51
 258 38 258 38 280 32 c 128,-1,52
 302 26 302 26 320 29 c 0,34,35
EndSplineSet
EndChar
StartChar: q
Encoding: 113 113 82
Width: 611
VWidth: 1467
Flags: W
HStem: -213 21G<455.5 468> -6 21G<258 294> 477 37<310.032 436.965>
VStem: 111 45<120.096 238.407> 430 53<-181.407 -131.8>
Fore
487 -104 m 2,0,1
 483 -128 483 -128 483 -145.5 c 128,-1,2
 483 -163 483 -163 503 -182 c 1,3,4
 492 -192 492 -192 482 -198.5 c 128,-1,5
 472 -205 472 -205 464 -213 c 1,6,7
 447 -205 447 -205 437.5 -187.5 c 128,-1,8
 428 -170 428 -170 430 -150 c 2,9,-1
 440 -98 l 1,10,-1
 474 62 l 1,11,12
 456 43 456 43 429.5 29.5 c 128,-1,13
 403 16 403 16 375.5 8 c 128,-1,14
 348 0 348 0 323.5 -3 c 128,-1,15
 299 -6 299 -6 289 -6 c 0,16,17
 227 -1 227 -1 187.5 26 c 128,-1,18
 148 53 148 53 130 94 c 128,-1,19
 112 135 112 135 111 185 c 128,-1,20
 110 235 110 235 125 286 c 0,21,22
 138 330 138 330 161.5 372 c 128,-1,23
 185 414 185 414 218 445.5 c 128,-1,24
 251 477 251 477 290.5 495.5 c 128,-1,25
 330 514 330 514 377 514 c 0,26,27
 421 514 421 514 449 508.5 c 128,-1,28
 477 503 477 503 496.5 494.5 c 128,-1,29
 516 486 516 486 529.5 475 c 128,-1,30
 543 464 543 464 558 450 c 1,31,-1
 558 452 l 1,32,33
 565 472 565 472 581 489 c 128,-1,34
 597 506 597 506 618 514 c 1,35,36
 625 508 625 508 631.5 500.5 c 128,-1,37
 638 493 638 493 646 484 c 1,38,39
 616 465 616 465 609 446.5 c 128,-1,40
 602 428 602 428 596 406 c 2,41,-1
 487 -104 l 2,0,1
296 29 m 0,42,43
 313 26 313 26 337.5 32 c 128,-1,44
 362 38 362 38 388.5 50.5 c 128,-1,45
 415 63 415 63 441 81.5 c 128,-1,46
 467 100 467 100 487 123 c 1,47,-1
 494 154 l 1,48,-1
 546 399 l 1,49,-1
 547 402 l 1,50,51
 519 433 519 433 481 455.5 c 128,-1,52
 443 478 443 478 380 477 c 0,53,54
 342 475 342 475 309 459 c 128,-1,55
 276 443 276 443 248 416 c 128,-1,56
 220 389 220 389 200 353.5 c 128,-1,57
 180 318 180 318 169 282 c 0,58,59
 156 239 156 239 156 196.5 c 128,-1,60
 156 154 156 154 170.5 119 c 128,-1,61
 185 84 185 84 215.5 59.5 c 128,-1,62
 246 35 246 35 296 29 c 0,42,43
EndSplineSet
EndChar
StartChar: r
Encoding: 114 114 83
Width: 365
VWidth: 1467
Flags: W
HStem: -26 21G<85.5 99.5> 467 36<310.076 401.968 402.032 406>
VStem: 62 353<3 505 344.994 434.013>
Fore
389 503 m 0,0,1
 396 503 396 503 398.5 503 c 128,-1,2
 401 503 401 503 402 504 c 128,-1,3
 403 505 403 505 405.5 505 c 128,-1,4
 408 505 408 505 415 505 c 1,5,-1
 406 467 l 1,6,-1
 380 467 l 2,7,8
 333 467 333 467 298.5 436.5 c 128,-1,9
 264 406 264 406 240.5 363 c 128,-1,10
 217 320 217 320 202.5 271 c 128,-1,11
 188 222 188 222 180 180 c 2,12,-1
 150 35 l 2,13,14
 142 15 142 15 126 -2 c 128,-1,15
 110 -19 110 -19 89 -26 c 1,16,17
 82 -21 82 -21 75.5 -14 c 128,-1,18
 69 -7 69 -7 62 3 c 1,19,20
 91 22 91 22 99 39.5 c 128,-1,21
 107 57 107 57 112 81 c 2,22,-1
 200 503 l 1,23,-1
 242 503 l 1,24,-1
 223 408 l 1,25,26
 254 450 254 450 295.5 477.5 c 128,-1,27
 337 505 337 505 389 503 c 0,0,1
EndSplineSet
EndChar
StartChar: s
Encoding: 115 115 84
Width: 490
VWidth: 1467
Flags: W
HStem: -12 37.5<164.079 178 204.5 215.031 215.031 227.727 221.379 287.85> 475 43<282.613 388.195>
VStem: 409 49<82.1742 180.732> 461 44<411 446.107>
Fore
409 134 m 0,0,1
 415 176 415 176 396 196.5 c 128,-1,2
 377 217 377 217 345.5 227.5 c 128,-1,3
 314 238 314 238 276.5 243.5 c 128,-1,4
 239 249 239 249 207.5 261.5 c 128,-1,5
 176 274 176 274 158.5 298.5 c 128,-1,6
 141 323 141 323 150 371 c 0,7,8
 156 408 156 408 176.5 436 c 128,-1,9
 197 464 197 464 225.5 482 c 128,-1,10
 254 500 254 500 287 509 c 128,-1,11
 320 518 320 518 354 518 c 0,12,13
 380 518 380 518 407 512 c 128,-1,14
 434 506 434 506 455.5 493 c 128,-1,15
 477 480 477 480 491 459.5 c 128,-1,16
 505 439 505 439 505 411 c 1,17,-1
 461 411 l 1,18,19
 461 434 461 434 450 446.5 c 128,-1,20
 439 459 439 459 422 465.5 c 128,-1,21
 405 472 405 472 383.5 473.5 c 128,-1,22
 362 475 362 475 340 475 c 0,23,24
 283 475 283 475 245 449 c 128,-1,25
 207 423 207 423 198 371 c 0,26,27
 192 330 192 330 211 311 c 128,-1,28
 230 292 230 292 261.5 282.5 c 128,-1,29
 293 273 293 273 330.5 268 c 128,-1,30
 368 263 368 263 399 249.5 c 128,-1,31
 430 236 430 236 447.5 210.5 c 128,-1,32
 465 185 465 185 458 134 c 0,33,34
 450 94 450 94 428 65.5 c 128,-1,35
 406 37 406 37 375.5 18.5 c 128,-1,36
 345 0 345 0 309 -9 c 128,-1,37
 273 -18 273 -18 238 -18 c 0,38,39
 208 -18 208 -18 178 -12 c 128,-1,40
 148 -6 148 -6 124 7.5 c 128,-1,41
 100 21 100 21 85 43 c 128,-1,42
 70 65 70 65 70 97 c 1,43,-1
 120 97 l 1,44,45
 122 72 122 72 133.5 57.5 c 128,-1,46
 145 43 145 43 163.5 35.5 c 128,-1,47
 182 28 182 28 204.5 25.5 c 128,-1,48
 227 23 227 23 251 23 c 0,49,50
 279 23 279 23 305.5 28.5 c 128,-1,51
 332 34 332 34 353 47 c 128,-1,52
 374 60 374 60 389.5 81.5 c 128,-1,53
 405 103 405 103 409 134 c 0,0,1
EndSplineSet
EndChar
StartChar: t
Encoding: 116 116 85
Width: 360
VWidth: 1467
Flags: W
HStem: -3 38<217.302 307> 464 38<248 355>
VStem: 125 237<105.5 502 417.465 535.244> 125 47.5<91.1667 151.685>
Fore
315 35 m 1,0,-1
 307 -3 l 1,1,-1
 282 -3 l 2,2,3
 226 -3 226 -3 192 7.5 c 128,-1,4
 158 18 158 18 141.5 42 c 128,-1,5
 125 66 125 66 125 105.5 c 128,-1,6
 125 145 125 145 138 205 c 2,7,-1
 220 585 l 2,8,9
 226 609 226 609 225 626.5 c 128,-1,10
 224 644 224 644 204 665 c 1,11,12
 214 673 214 673 224.5 680.5 c 128,-1,13
 235 688 235 688 244 694 c 1,14,15
 261 687 261 687 269 670 c 128,-1,16
 277 653 277 653 276 632 c 2,17,-1
 266 582 l 1,18,-1
 248 502 l 1,19,-1
 362 502 l 1,20,-1
 355 464 l 1,21,-1
 241 464 l 1,22,-1
 185 202 l 2,23,24
 175 163 175 163 172.5 131.5 c 128,-1,25
 170 100 170 100 180.5 79.5 c 128,-1,26
 191 59 191 59 216.5 47 c 128,-1,27
 242 35 242 35 289 35 c 2,28,-1
 315 35 l 1,0,-1
EndSplineSet
EndChar
StartChar: u
Encoding: 117 117 86
Width: 592
VWidth: 1467
Flags: W
HStem: -16 37<259.356 364.86> 483 20G<197.732 248 545.844 597>
VStem: 455 51<16.5934 48>
Fore
511 92 m 1,0,1
 506 70 506 70 506 52.5 c 128,-1,2
 506 35 506 35 527 16 c 1,3,4
 515 7 515 7 505.5 0.5 c 128,-1,5
 496 -6 496 -6 487 -12 c 1,6,7
 471 -4 471 -4 462 12 c 128,-1,8
 453 28 453 28 455 48 c 1,9,10
 418 16 418 16 375 0 c 128,-1,11
 332 -16 332 -16 289 -16 c 0,12,13
 252 -16 252 -16 219 -3.5 c 128,-1,14
 186 9 186 9 163.5 33 c 128,-1,15
 141 57 141 57 131.5 92.5 c 128,-1,16
 122 128 122 128 132 175 c 2,17,-1
 202 503 l 1,18,-1
 248 503 l 1,19,-1
 183 194 l 2,20,21
 175 151 175 151 180.5 118 c 128,-1,22
 186 85 186 85 203 63 c 128,-1,23
 220 41 220 41 245 31 c 128,-1,24
 270 21 270 21 299 21 c 0,25,26
 327 22 327 22 357 33.5 c 128,-1,27
 387 45 387 45 412 67 c 128,-1,28
 437 89 437 89 457 121 c 128,-1,29
 477 153 477 153 486 194 c 2,30,-1
 550 502 l 1,31,-1
 597 502 l 1,32,-1
 528 175 l 1,33,34
 525 167 525 167 523.5 160 c 128,-1,35
 522 153 522 153 519 145 c 1,36,-1
 522 145 l 1,37,-1
 511 92 l 1,0,1
EndSplineSet
EndChar
StartChar: v
Encoding: 118 118 87
Width: 473
VWidth: 1467
Flags: W
HStem: -10 21G<214.5 239.5> 482 20G<157 204.352 458.378 514>
VStem: 157 357<502 502 475.273 512.731> 157 52.5<76.3607 109.273 109.273 146.731 146.731 319 319 331.5 331.5 502>
Fore
359 153 m 2,0,1
 346 123 346 123 333.5 94 c 128,-1,2
 321 65 321 65 306 41.5 c 128,-1,3
 291 18 291 18 271.5 4 c 128,-1,4
 252 -10 252 -10 227 -10 c 256,5,6
 202 -10 202 -10 190 0 c 128,-1,7
 178 10 178 10 172 29 c 128,-1,8
 166 48 166 48 164.5 75.5 c 128,-1,9
 163 103 163 103 161 136 c 2,10,-1
 157 502 l 1,11,-1
 204 502 l 1,12,-1
 210 161 l 2,13,14
 210 154 210 154 209 132 c 128,-1,15
 208 110 208 110 209.5 86.5 c 128,-1,16
 211 63 211 63 217 45.5 c 128,-1,17
 223 28 223 28 236 28 c 0,18,19
 249 29 249 29 262.5 47 c 128,-1,20
 276 65 276 65 287 87 c 128,-1,21
 298 109 298 109 306.5 131 c 128,-1,22
 315 153 315 153 320 161 c 2,23,-1
 467 502 l 1,24,-1
 514 502 l 1,25,-1
 359 153 l 2,0,1
EndSplineSet
EndChar
StartChar: w
Encoding: 119 119 88
Width: 682
VWidth: 1467
Flags: W
HStem: 0 21G<145 216.5 472.5 537.515> 483 20G<159.404 207 649.5 719>
VStem: 145 46<54 117.367> 160 47<404.781 503>
Fore
145 0 m 1,0,-1
 160 503 l 1,1,-1
 207 503 l 1,2,-1
 191 54 l 1,3,4
 217 69 217 69 245.5 105 c 128,-1,5
 274 141 274 141 303.5 188 c 128,-1,6
 333 235 333 235 361 289 c 128,-1,7
 389 343 389 343 414 393 c 1,8,9
 421 343 421 343 425.5 290.5 c 128,-1,10
 430 238 430 238 436.5 190 c 128,-1,11
 443 142 443 142 455.5 107 c 128,-1,12
 468 72 468 72 490 57 c 1,13,14
 527 150 527 150 576.5 269.5 c 128,-1,15
 626 389 626 389 673 503 c 1,16,-1
 719 503 l 1,17,-1
 530 0 l 1,18,-1
 487 0 l 1,19,20
 458 16 458 16 440.5 41.5 c 128,-1,21
 423 67 423 67 412.5 101.5 c 128,-1,22
 402 136 402 136 397.5 177.5 c 128,-1,23
 393 219 393 219 389 266 c 1,24,25
 342 172 342 172 293.5 103 c 128,-1,26
 245 34 245 34 188 0 c 1,27,-1
 145 0 l 1,0,-1
EndSplineSet
EndChar
StartChar: x
Encoding: 120 120 89
Width: 536
VWidth: 1467
Flags: W
HStem: 0 21G<41 120.052 416.057 489> 482 20G<141 212.28 507.379 588>
Fore
201 502 m 1,0,-1
 320 291 l 1,1,-1
 527 502 l 1,2,-1
 588 502 l 1,3,-1
 340 251 l 1,4,-1
 489 0 l 1,5,-1
 428 0 l 1,6,-1
 302 211 l 1,7,-1
 101 0 l 1,8,-1
 41 0 l 1,9,-1
 280 251 l 1,10,-1
 141 502 l 1,11,-1
 201 502 l 1,0,-1
EndSplineSet
EndChar
StartChar: y
Encoding: 121 121 90
Width: 592
VWidth: 1467
Flags: W
HStem: -224 38<236 240.453 240.547 311.496> -15 37<246.97 374.539> 483 20G<196.719 246>
VStem: 129.5 498.5<94 503 82.5469 153.496>
Fore
628 503 m 1,0,1
 600 484 600 484 592.5 467 c 128,-1,2
 585 450 585 450 580 427 c 2,3,-1
 486 -18 l 2,4,5
 472 -76 472 -76 455.5 -116.5 c 128,-1,6
 439 -157 439 -157 412.5 -181 c 128,-1,7
 386 -205 386 -205 347 -214.5 c 128,-1,8
 308 -224 308 -224 252 -224 c 0,9,10
 245 -224 245 -224 243.5 -224 c 128,-1,11
 242 -224 242 -224 240.5 -225 c 128,-1,12
 239 -226 239 -226 237 -226 c 128,-1,13
 235 -226 235 -226 227 -226 c 1,14,-1
 236 -186 l 1,15,16
 244 -186 244 -186 246 -186 c 128,-1,17
 248 -186 248 -186 248.5 -186 c 128,-1,18
 249 -186 249 -186 252 -186 c 128,-1,19
 255 -186 255 -186 264 -186 c 0,20,21
 311 -186 311 -186 341 -175 c 128,-1,22
 371 -164 371 -164 390 -143.5 c 128,-1,23
 409 -123 409 -123 419.5 -91.5 c 128,-1,24
 430 -60 430 -60 437 -21 c 2,25,-1
 452 48 l 1,26,27
 417 18 417 18 373.5 1.5 c 128,-1,28
 330 -15 330 -15 288 -15 c 0,29,30
 251 -15 251 -15 218 -2.5 c 128,-1,31
 185 10 185 10 162 34.5 c 128,-1,32
 139 59 139 59 129.5 94 c 128,-1,33
 120 129 120 129 131 176 c 2,34,-1
 201 503 l 1,35,-1
 246 503 l 1,36,-1
 182 195 l 2,37,38
 173 153 173 153 179 120 c 128,-1,39
 185 87 185 87 202.5 65 c 128,-1,40
 220 43 220 43 245.5 32.5 c 128,-1,41
 271 22 271 22 301 22 c 0,42,43
 352 23 352 23 402 60 c 128,-1,44
 452 97 452 97 477 166 c 2,45,-1
 543 472 l 1,46,47
 552 492 552 492 567 508.5 c 128,-1,48
 582 525 582 525 603 533 c 1,49,50
 615 521 615 521 628 503 c 1,0,1
EndSplineSet
EndChar
StartChar: z
Encoding: 122 122 91
Width: 619
VWidth: 1467
Flags: W
HStem: -1 49<187.538 525> 458 45<198 550>
Fore
537 48 m 1,0,-1
 525 -1 l 1,1,-1
 222 -1 l 2,2,3
 183 -1 183 -1 159.5 10 c 128,-1,4
 136 21 136 21 123 37.5 c 128,-1,5
 110 54 110 54 107 74.5 c 128,-1,6
 104 95 104 95 107 116 c 1,7,8
 117 123 117 123 151 149.5 c 128,-1,9
 185 176 185 176 232 211 c 128,-1,10
 279 246 279 246 331 286 c 128,-1,11
 383 326 383 326 428.5 361 c 128,-1,12
 474 396 474 396 507.5 421.5 c 128,-1,13
 541 447 541 447 550 456 c 1,14,-1
 189 458 l 1,15,-1
 198 503 l 1,16,-1
 632 502 l 1,17,-1
 624 459 l 1,18,-1
 169 104 l 1,19,20
 170 84 170 84 187 66 c 128,-1,21
 204 48 204 48 249 48 c 2,22,-1
 537 48 l 1,0,-1
EndSplineSet
EndChar
StartChar: braceleft
Encoding: 123 123 92
Width: 255
VWidth: 1467
Flags: W
HStem: 715 35<322.995 393.574>
VStem: 65 343<310 750 536.268 803.075>
Fore
224 -116 m 1,0,1
 160 -100 160 -100 130.5 -38.5 c 128,-1,2
 101 23 101 23 128 151 c 2,3,-1
 151 260 l 1,4,5
 107 292 107 292 65 310 c 1,6,7
 89 318 89 318 117 332 c 128,-1,8
 145 346 145 346 173 362 c 1,9,-1
 201 484 l 2,10,11
 227 612 227 612 281.5 673 c 128,-1,12
 336 734 336 734 408 750 c 1,13,-1
 401 715 l 1,14,15
 343 698 343 698 301.5 640 c 128,-1,16
 260 582 260 582 241 486 c 2,17,-1
 216 370 l 1,18,19
 216 367 216 367 214 364 c 256,20,21
 212 358 l 128,-1,22
 211 355 211 355 208 352 c 0,23,24
 201 345 201 345 197 342 c 256,25,26
 192 339 192 339 189 337 c 0,27,28
 160 320 160 320 136 313 c 1,29,30
 158 304 158 304 179 288 c 0,31,32
 180 286 180 286 183 285 c 1,33,34
 185 283 185 283 189 276 c 1,35,36
 191 271 191 271 191 263 c 2,37,-1
 191 255 l 1,38,-1
 169 150 l 2,39,40
 148 53 148 53 166.5 -3.5 c 128,-1,41
 185 -60 185 -60 232 -78 c 1,42,-1
 224 -116 l 1,0,1
EndSplineSet
EndChar
StartChar: bar
Encoding: 124 124 93
Width: 231
VWidth: 1467
Flags: W
VStem: 48 253<-261 791 -791.479 -261>
Fore
48 -261 m 1,0,-1
 266 791 l 1,1,-1
 301 791 l 1,2,-1
 79 -261 l 1,3,-1
 48 -261 l 1,0,-1
EndSplineSet
EndChar
StartChar: braceright
Encoding: 125 125 94
Width: 262
VWidth: 1467
Flags: W
HStem: 715 35<156.728 213.789>
VStem: -18 329<-116 310 -4.5427 4.44315>
Fore
-10 -78 m 1,0,1
 38 -60 38 -60 79 -3.5 c 128,-1,2
 120 53 120 53 139 150 c 2,3,-1
 161 255 l 1,4,5
 163 258 163 258 164 263 c 0,6,7
 167 271 167 271 172 276 c 0,8,9
 179 283 179 283 182 285 c 256,10,11
 185 286 185 286 186 288 c 0,12,13
 217 304 217 304 242 313 c 1,14,15
 219 321 219 321 197 337 c 0,16,17
 194 339 194 339 192 342 c 256,18,19
 191 345 191 345 189.5 347 c 128,-1,20
 188 349 188 349 188 352 c 1,21,22
 185 357 185 357 185 364 c 0,23,24
 185 367 185 367 186 370 c 1,25,-1
 211 486 l 2,26,27
 255 681 255 681 148 715 c 1,28,-1
 156 750 l 1,29,30
 188 742 188 742 212 723 c 128,-1,31
 236 704 236 704 249.5 672.5 c 128,-1,32
 263 641 263 641 264.5 594 c 128,-1,33
 266 547 266 547 252 484 c 2,34,-1
 226 362 l 1,35,36
 248 346 248 346 269.5 332 c 128,-1,37
 291 318 291 318 311 310 c 1,38,39
 288 301 288 301 260.5 288.5 c 128,-1,40
 233 276 233 276 204 260 c 1,41,-1
 180 151 l 2,42,43
 154 23 154 23 99.5 -38.5 c 128,-1,44
 45 -100 45 -100 -18 -116 c 1,45,-1
 -10 -78 l 1,0,1
EndSplineSet
EndChar
StartChar: asciitilde
Encoding: 126 126 95
Width: 658
VWidth: 1467
Flags: W
HStem: 227 43<478.68 577.105> 332 42<184.045 296.796>
Fore
676 374 m 1,0,-1
 673 364 l 2,1,2
 666 326 666 326 650 300 c 128,-1,3
 634 274 634 274 614 258 c 128,-1,4
 594 242 594 242 571.5 234.5 c 128,-1,5
 549 227 549 227 527 227 c 0,6,7
 499 227 499 227 466.5 236 c 128,-1,8
 434 245 434 245 374 274 c 0,9,10
 342 291 342 291 312 311.5 c 128,-1,11
 282 332 282 332 244 332 c 0,12,13
 208 332 208 332 175 303 c 128,-1,14
 142 274 142 274 131 227 c 1,15,-1
 101 227 l 1,16,-1
 104 238 l 2,17,18
 119 302 119 302 162 338 c 128,-1,19
 205 374 205 374 252 374 c 0,20,21
 268 374 268 374 283 370.5 c 128,-1,22
 298 367 298 367 314 359.5 c 128,-1,23
 330 352 330 352 350 342 c 128,-1,24
 370 332 370 332 396 317 c 0,25,26
 428 301 428 301 465 285.5 c 128,-1,27
 502 270 502 270 540 270 c 0,28,29
 575 270 575 270 605 298.5 c 128,-1,30
 635 327 635 327 646 374 c 1,31,-1
 676 374 l 1,0,-1
EndSplineSet
EndChar
StartChar: uni0E33.alt1
Encoding: 65539 -1 96
Width: 462
VWidth: 1467
Flags: W
HStem: 555 38<235.758 350.74> 649 24<-219.145 -186.438> 795 24<-195.992 -147.716>
Fore
271 593 m 0,0,1
 317 593 317 593 353 578 c 128,-1,2
 389 563 389 563 411.5 537.5 c 128,-1,3
 434 512 434 512 443.5 477 c 128,-1,4
 453 442 453 442 445 402 c 2,5,-1
 361 12 l 1,6,-1
 317 12 l 1,7,-1
 393 373 l 2,8,9
 403 415 403 415 399 446.5 c 128,-1,10
 395 478 395 478 379 505 c 0,11,12
 345 555 345 555 270 555 c 0,13,14
 239 555 239 555 210 544 c 1,15,-1
 229 590 l 1,16,17
 241 593 241 593 250.5 593 c 128,-1,18
 260 593 260 593 271 593 c 0,0,1
-173 819 m 2,19,20
 -138 819 -138 819 -116.5 794 c 128,-1,21
 -95 769 -95 769 -101 734 c 0,22,23
 -109 698 -109 698 -140.5 673.5 c 128,-1,24
 -172 649 -172 649 -210 649 c 2,25,-1
 -211 649 l 2,26,27
 -249 649 -249 649 -270 673.5 c 128,-1,28
 -291 698 -291 698 -285 734 c 0,29,30
 -277 770 -277 770 -245 794.5 c 128,-1,31
 -213 819 -213 819 -175 819 c 2,32,-1
 -173 819 l 2,19,20
-202 673 m 2,33,34
 -192 673 -192 673 -181 679 c 128,-1,35
 -170 685 -170 685 -160.5 694 c 128,-1,36
 -151 703 -151 703 -145 714 c 128,-1,37
 -139 725 -139 725 -136 734 c 1,38,39
 -134 751 -134 751 -146 771.5 c 128,-1,40
 -158 792 -158 792 -178 795 c 1,41,-1
 -179 795 l 2,42,43
 -191 795 -191 795 -202.5 788.5 c 128,-1,44
 -214 782 -214 782 -223.5 773 c 128,-1,45
 -233 764 -233 764 -239.5 753 c 128,-1,46
 -246 742 -246 742 -248 734 c 2,47,48
 -251 725 -251 725 -248.5 714.5 c 128,-1,49
 -246 704 -246 704 -239.5 695.5 c 128,-1,50
 -233 687 -233 687 -224.5 680 c 128,-1,51
 -216 673 -216 673 -204 673 c 2,52,-1
 -202 673 l 2,33,34
EndSplineSet
EndChar
StartChar: quotedbl
Encoding: 34 34 97
Width: 318
VWidth: 1467
Flags: W
HStem: 525 207<207 222 337 354>
VStem: 178 44<531.105 555.874> 308 46<531.382 557.843>
Fore
354 525 m 1,0,-1
 308 525 l 1,1,-1
 337 732 l 1,2,-1
 412 734 l 1,3,-1
 354 525 l 1,0,-1
222 525 m 1,4,-1
 178 525 l 1,5,-1
 207 732 l 1,6,-1
 282 734 l 1,7,-1
 222 525 l 1,4,-1
EndSplineSet
EndChar
StartChar: exclam
Encoding: 33 33 98
Width: 227
VWidth: 1467
Flags: W
HStem: 0 139<99.625 150.953> 705 20G<228.046 301>
VStem: 77.5 94<24.1799 93.0219 93.0219 115.109> 129 47<213.115 299.933> 232 69<651.564 725>
Fore
139 139 m 0,0,1
 161 139 161 139 171.5 119.5 c 128,-1,2
 182 100 182 100 176 70 c 0,3,4
 169 41 169 41 151.5 21 c 128,-1,5
 134 1 134 1 117 0 c 1,6,7
 89 1 89 1 77.5 21 c 128,-1,8
 66 41 66 41 73 70 c 0,9,10
 79 100 79 100 99 119.5 c 128,-1,11
 119 139 119 139 139 139 c 0,0,1
129 204 m 1,12,-1
 232 725 l 1,13,-1
 301 725 l 1,14,-1
 176 204 l 1,15,-1
 129 204 l 1,12,-1
EndSplineSet
EndChar
StartChar: uni0E4E.alt1
Encoding: 65540 -1 99
Width: 0
VWidth: 1467
Flags: W
HStem: 651 31<-165.27 -103.358> 803 19<-83.1348 -50> 933 34<-38.429 38.2601>
VStem: -238 289<709 967 709 709>
Fore
51 967 m 1,0,-1
 32 933 l 1,1,2
 -69 951 -69 951 -85 873 c 0,3,4
 -95 828 -95 828 -35 826 c 1,5,-1
 -50 803 l 1,6,7
 -164 792 -164 792 -176 717 c 0,8,9
 -182 671 -182 671 -84 682 c 1,10,-1
 -100 651 l 1,11,12
 -251 629 -251 629 -238 709 c 0,13,14
 -216 808 -216 808 -101 822 c 1,15,16
 -145 842 -145 842 -138 883 c 0,17,18
 -107 998 -107 998 51 967 c 1,0,-1
EndSplineSet
EndChar
StartChar: exclamdown
Encoding: 161 161 100
Width: 217
VWidth: 1467
Flags: W
HStem: 492 20G<194 215.5>
VStem: 25 214<-210 442 -327.821 -210> 142.5 93.5<392.5 491>
Fore
25 -210 m 1,0,-1
 139 307 l 1,1,-1
 186 307 l 1,2,-1
 88 -210 l 1,3,-1
 25 -210 l 1,0,-1
173 373 m 256,4,5
 153 373 153 373 142.5 392.5 c 128,-1,6
 132 412 132 412 138 442 c 0,7,8
 145 471 145 471 164 491 c 128,-1,9
 183 511 183 511 205 512 c 0,10,11
 226 511 226 511 236 491 c 128,-1,12
 246 471 246 471 239 442 c 0,13,14
 233 412 233 412 213.5 392.5 c 128,-1,15
 194 373 194 373 173 373 c 256,4,5
EndSplineSet
EndChar
StartChar: cent
Encoding: 162 162 101
Width: 626
VWidth: 1467
Flags: W
HStem: -18 21G<292 331.112> 89 34<253.75 315 357 460.344> 578 34<461 548.623> 700 20G<444.636 484>
VStem: 603 44<497.439 549.514>
Fore
357 123 m 1,0,1
 409 123 409 123 462 143 c 128,-1,2
 515 163 515 163 544 210 c 1,3,-1
 581 194 l 1,4,5
 543 141 543 141 478.5 116 c 128,-1,6
 414 91 414 91 349 89 c 1,7,-1
 327 -18 l 1,8,-1
 292 -18 l 1,9,-1
 315 91 l 1,10,11
 249 95 249 95 202 123 c 0,12,13
 173 144 173 144 154.5 172.5 c 128,-1,14
 136 201 136 201 144 239 c 2,15,-1
 191 461 l 2,16,17
 200 499 200 499 230.5 527.5 c 128,-1,18
 261 556 261 556 299 577 c 0,19,20
 357 606 357 606 425 610 c 1,21,-1
 449 720 l 1,22,-1
 484 720 l 1,23,-1
 461 612 l 1,24,25
 525 610 525 610 578 585 c 128,-1,26
 631 560 631 560 647 506 c 1,27,-1
 603 490 l 1,28,29
 594 537 594 537 550 557.5 c 128,-1,30
 506 578 506 578 453 578 c 1,31,-1
 357 123 l 1,0,1
242 151 m 0,32,33
 274 131 274 131 323 126 c 1,34,-1
 418 575 l 1,35,36
 367 568 367 568 327 549 c 0,37,38
 293 530 293 530 267 502 c 128,-1,39
 241 474 241 474 233 442 c 2,40,-1
 195 258 l 2,41,42
 188 226 188 226 202.5 198 c 128,-1,43
 217 170 217 170 242 151 c 0,32,33
EndSplineSet
EndChar
StartChar: sterling
Encoding: 163 163 102
Width: 560
VWidth: 1467
Flags: W
HStem: -1 44<173 533> 321 41<166 286 326 496> 662 35<445.259 572.788>
VStem: 286 37.5<235.625 274.5 275 291.365 291.365 294.357 294.357 321 362 419.94>
Fore
88 -1 m 1,0,-1
 95 31 l 1,1,2
 176 70 176 70 218.5 123 c 128,-1,3
 261 176 261 176 274 235 c 0,4,5
 279 255 279 255 282 275 c 128,-1,6
 285 295 285 295 286 321 c 1,7,-1
 158 321 l 1,8,-1
 166 362 l 1,9,-1
 286 362 l 1,10,11
 286 387 286 387 287.5 424 c 128,-1,12
 289 461 289 461 296 494 c 0,13,14
 305 538 305 538 328 575.5 c 128,-1,15
 351 613 351 613 381.5 639.5 c 128,-1,16
 412 666 412 666 451 681.5 c 128,-1,17
 490 697 490 697 533 697 c 0,18,19
 578 697 578 697 605 687.5 c 128,-1,20
 632 678 632 678 650 669 c 1,21,-1
 626 637 l 1,22,23
 612 644 612 644 587 653 c 128,-1,24
 562 662 562 662 524 662 c 0,25,26
 453 662 453 662 403.5 614 c 128,-1,27
 354 566 354 566 337 493 c 0,28,29
 329 455 329 455 327.5 421 c 128,-1,30
 326 387 326 387 326 362 c 1,31,-1
 503 362 l 1,32,-1
 496 321 l 1,33,-1
 324 321 l 1,34,35
 323.5 308 l 2,36,37
 323 295 323 295 320 274.5 c 128,-1,38
 317 254 317 254 311 228 c 128,-1,39
 305 202 305 202 293 178 c 0,40,41
 286 157 286 157 272 136.5 c 128,-1,42
 258 116 258 116 241 98.5 c 128,-1,43
 224 81 224 81 206 66 c 128,-1,44
 188 51 188 51 173 43 c 1,45,-1
 543 43 l 1,46,-1
 533 -1 l 1,47,-1
 88 -1 l 1,0,-1
EndSplineSet
EndChar
StartChar: currency
Encoding: 164 164 103
Width: 664
VWidth: 1467
Flags: W
HStem: 31 36<253.041 429.031> 518 36<391.901 514.872>
Fore
566 34 m 1,0,-1
 521 94 l 1,1,2
 483 63 483 63 433.5 47 c 128,-1,3
 384 31 384 31 336 31 c 128,-1,4
 288 31 288 31 244.5 45.5 c 128,-1,5
 201 60 201 60 173 89 c 1,6,-1
 104 31 l 1,7,-1
 84 57 l 1,8,-1
 154 119 l 1,9,10
 144 139 144 139 140 162.5 c 128,-1,11
 136 186 136 186 144 216 c 0,12,13
 150 249 150 249 158 292 c 128,-1,14
 166 335 166 335 173 368 c 0,15,16
 186 433 186 433 232 475 c 1,17,-1
 194 528 l 1,18,-1
 227 558 l 1,19,-1
 267 503 l 1,20,21
 307 530 307 530 353 542.5 c 128,-1,22
 399 555 399 555 445.5 554 c 128,-1,23
 492 553 492 553 532 539 c 128,-1,24
 572 525 572 525 599 497 c 1,25,-1
 669 556 l 1,26,-1
 691 528 l 1,27,-1
 619 468 l 1,28,29
 629 447 629 447 633 422.5 c 128,-1,30
 637 398 637 398 629 368 c 2,31,-1
 597 216 l 2,32,33
 584 161 584 161 550 123 c 1,34,-1
 599 60 l 1,35,-1
 566 34 l 1,0,-1
194 235 m 0,36,37
 182 179 182 179 200.5 141.5 c 128,-1,38
 219 104 219 104 255 85.5 c 128,-1,39
 291 67 291 67 337 67 c 128,-1,40
 383 67 383 67 427.5 86.5 c 128,-1,41
 472 106 472 106 507.5 142.5 c 128,-1,42
 543 179 543 179 556 235 c 0,43,44
 560 257 560 257 562.5 265 c 128,-1,45
 565 273 565 273 565.5 280.5 c 128,-1,46
 566 288 566 288 569 301.5 c 128,-1,47
 572 315 572 315 580 349 c 0,48,49
 591 405 591 405 571.5 442.5 c 128,-1,50
 552 480 552 480 516 499 c 128,-1,51
 480 518 480 518 432 518 c 128,-1,52
 384 518 384 518 340 499.5 c 128,-1,53
 296 481 296 481 261 443.5 c 128,-1,54
 226 406 226 406 214 351 c 0,55,56
 213 343 213 343 210.5 328 c 128,-1,57
 208 313 208 313 204.5 295 c 128,-1,58
 201 277 201 277 198 260.5 c 128,-1,59
 195 244 195 244 194 235 c 0,36,37
EndSplineSet
EndChar
StartChar: yen
Encoding: 165 165 104
Width: 693
VWidth: 1467
Flags: W
HStem: -1 21G<315 366.419> 85 47<94 335 392 628> 251 47<129 370 427 663>
Fore
478 342 m 0,0,1
 453 313 453 313 427 298 c 1,2,-1
 673 298 l 1,3,-1
 663 251 l 1,4,-1
 417 251 l 1,5,-1
 392 132 l 1,6,-1
 638 132 l 1,7,-1
 628 85 l 1,8,-1
 381 85 l 1,9,-1
 362 -1 l 1,10,-1
 315 -1 l 1,11,-1
 335 85 l 1,12,-1
 84 85 l 1,13,-1
 94 132 l 1,14,-1
 345 132 l 1,15,-1
 370 251 l 1,16,-1
 119 251 l 1,17,-1
 129 298 l 1,18,-1
 377 298 l 1,19,20
 361 307 361 307 354.5 323 c 128,-1,21
 348 339 348 339 345 346 c 0,22,23
 329 383 329 383 311 427.5 c 128,-1,24
 293 472 293 472 276.5 519 c 128,-1,25
 260 566 260 566 244.5 612.5 c 128,-1,26
 229 659 229 659 216 700 c 1,27,-1
 268 700 l 1,28,29
 293 618 293 618 326 532 c 128,-1,30
 359 446 359 446 384 371 c 0,31,32
 396 337 396 337 407 336 c 128,-1,33
 418 335 418 335 443 365 c 0,34,35
 509 445 509 445 579.5 530.5 c 128,-1,36
 650 616 650 616 715 700 c 1,37,-1
 764 700 l 1,38,39
 697 612 697 612 621.5 518.5 c 128,-1,40
 546 425 546 425 478 342 c 0,0,1
EndSplineSet
EndChar
StartChar: brokenbar
Encoding: 166 166 105
Width: 224
VWidth: 1467
Flags: W
HStem: 695 20G<234.645 282>
VStem: 50 232<-180 715 -904.894 -715.068>
Fore
158 343 m 1,0,-1
 239 715 l 1,1,-1
 282 715 l 1,2,-1
 201 343 l 1,3,-1
 158 343 l 1,0,-1
50 -180 m 1,4,-1
 126 192 l 1,5,-1
 169 192 l 1,6,-1
 89 -180 l 1,7,-1
 50 -180 l 1,4,-1
EndSplineSet
EndChar
StartChar: section
Encoding: 167 167 106
Width: 544
VWidth: 1467
Flags: W
HStem: -63 41<212.969 301.687> 430 42<346.251 407.633> 671 42<343.202 449.195>
VStem: 84 50<11.9557 51> 521 44<606 641.107>
Fore
471 88 m 0,0,1
 464 48 464 48 442 19.5 c 128,-1,2
 420 -9 420 -9 389 -27 c 128,-1,3
 358 -45 358 -45 322 -54 c 128,-1,4
 286 -63 286 -63 251 -63 c 0,5,6
 222 -63 222 -63 192.5 -57 c 128,-1,7
 163 -51 163 -51 138.5 -38 c 128,-1,8
 114 -25 114 -25 99 -3 c 128,-1,9
 84 19 84 19 84 51 c 1,10,-1
 134 51 l 1,11,12
 135 26 135 26 146.5 11.5 c 128,-1,13
 158 -3 158 -3 176.5 -10.5 c 128,-1,14
 195 -18 195 -18 218 -20 c 128,-1,15
 241 -22 241 -22 264 -22 c 0,16,17
 292 -22 292 -22 318.5 -17 c 128,-1,18
 345 -12 345 -12 366 1.5 c 128,-1,19
 387 15 387 15 402.5 36 c 128,-1,20
 418 57 418 57 423 88 c 0,21,22
 430 131 430 131 409.5 151.5 c 128,-1,23
 389 172 389 172 355 183 c 0,24,25
 324 194 324 194 286.5 199.5 c 128,-1,26
 249 205 249 205 219 217 c 128,-1,27
 189 229 189 229 171.5 254 c 128,-1,28
 154 279 154 279 163 326 c 0,29,30
 170 373 170 373 201 406 c 128,-1,31
 232 439 232 439 273 455 c 1,32,33
 239 467 239 467 220.5 491 c 128,-1,34
 202 515 202 515 211 566 c 0,35,36
 217 603 217 603 237 631 c 128,-1,37
 257 659 257 659 285.5 677 c 128,-1,38
 314 695 314 695 347 704 c 128,-1,39
 380 713 380 713 414 713 c 0,40,41
 440 713 440 713 467 707 c 128,-1,42
 494 701 494 701 515.5 688 c 128,-1,43
 537 675 537 675 551 654.5 c 128,-1,44
 565 634 565 634 565 606 c 1,45,-1
 521 606 l 1,46,47
 521 629 521 629 510 641.5 c 128,-1,48
 499 654 499 654 483 661 c 128,-1,49
 467 668 467 668 445.5 669.5 c 128,-1,50
 424 671 424 671 402 671 c 0,51,52
 345 671 345 671 306 644.5 c 128,-1,53
 267 618 267 618 260 566 c 0,54,55
 251 518 251 518 277.5 499 c 128,-1,56
 304 480 304 480 346 471 c 1,57,58
 354 472 354 472 367 472 c 0,59,60
 390 472 390 472 413.5 468 c 128,-1,61
 437 464 437 464 457 454.5 c 128,-1,62
 477 445 477 445 492.5 429.5 c 128,-1,63
 508 414 508 414 514 393 c 0,64,65
 524 367 524 367 518 329 c 0,66,67
 511 282 511 282 483 251 c 128,-1,68
 455 220 455 220 417 202 c 1,69,70
 446 189 446 189 463 163.5 c 128,-1,71
 480 138 480 138 471 88 c 0,0,1
213 326 m 0,72,73
 208 295 208 295 218.5 276.5 c 128,-1,74
 229 258 229 258 249.5 247 c 128,-1,75
 270 236 270 236 296.5 231 c 128,-1,76
 323 226 323 226 351 222 c 1,77,78
 395 227 395 227 428 252 c 128,-1,79
 461 277 461 277 470 329 c 0,80,81
 477 379 477 379 450 399.5 c 128,-1,82
 423 420 423 420 381 430 c 1,83,-1
 355 430 l 2,84,85
 298 430 298 430 259 403.5 c 128,-1,86
 220 377 220 377 213 326 c 0,72,73
EndSplineSet
EndChar
StartChar: dieresis
Encoding: 168 168 107
Width: 316
VWidth: 1467
Flags: W
HStem: 587 108<186.799 214.046 372.949 400.046>
VStem: 155.5 75<603 680> 342 74.5<618.148 660.577 660.577 679.468>
Fore
390 695 m 1,0,1
 408 697 408 697 416.5 680 c 128,-1,2
 425 663 425 663 420 641 c 128,-1,3
 415 619 415 619 400.5 603 c 128,-1,4
 386 587 386 587 368 587 c 256,5,6
 351 587 351 587 342 603 c 128,-1,7
 333 619 333 619 339 641 c 256,8,9
 345 663 345 663 359.5 680 c 128,-1,10
 374 697 374 697 390 695 c 1,0,1
204 695 m 1,11,12
 222 697 222 697 230.5 680 c 128,-1,13
 239 663 239 663 233 641 c 0,14,15
 229 619 229 619 214.5 603 c 128,-1,16
 200 587 200 587 182 587 c 256,17,18
 164 587 164 587 155.5 603 c 128,-1,19
 147 619 147 619 153 641 c 256,20,21
 158 663 158 663 173 680 c 128,-1,22
 188 697 188 697 204 695 c 1,11,12
EndSplineSet
EndChar
StartChar: copyright
Encoding: 169 169 108
Width: 831
VWidth: 1467
Flags: W
HStem: -20 37<289.238 542.999> 687 37<424.001 677.762>
Fore
210 537 m 2,0,1
 223 600 223 600 278 641 c 128,-1,2
 333 682 333 682 408 703.5 c 128,-1,3
 483 725 483 725 563.5 724 c 128,-1,4
 644 723 644 723 710 702.5 c 128,-1,5
 776 682 776 682 813.5 640.5 c 128,-1,6
 851 599 851 599 838 537 c 2,7,-1
 760 167 l 2,8,9
 747 106 747 106 691 64 c 128,-1,10
 635 22 635 22 561 1.5 c 128,-1,11
 487 -19 487 -19 405.5 -20 c 128,-1,12
 324 -21 324 -21 259 0.5 c 128,-1,13
 194 22 194 22 155.5 63 c 128,-1,14
 117 104 117 104 131 167 c 2,15,-1
 210 537 l 2,0,1
786 516 m 2,16,17
 798 574 798 574 766.5 611.5 c 128,-1,18
 735 649 735 649 679.5 668 c 128,-1,19
 624 687 624 687 555 687 c 128,-1,20
 486 687 486 687 422 668 c 128,-1,21
 358 649 358 649 309.5 610.5 c 128,-1,22
 261 572 261 572 249 516 c 2,23,-1
 179 186 l 2,24,25
 167 129 167 129 199.5 91.5 c 128,-1,26
 232 54 232 54 287.5 35 c 128,-1,27
 343 16 343 16 412 17 c 128,-1,28
 481 18 481 18 545 36 c 128,-1,29
 609 54 609 54 656.5 92.5 c 128,-1,30
 704 131 704 131 716 186 c 2,31,-1
 786 516 l 2,16,17
424 538 m 0,32,33
 390 521 390 521 366 494.5 c 128,-1,34
 342 468 342 468 335 437 c 2,35,-1
 298 264 l 2,36,37
 291 233 291 233 304.5 206.5 c 128,-1,38
 318 180 318 180 343 163 c 0,39,40
 367 147 367 147 406.5 139.5 c 128,-1,41
 446 132 446 132 488 138 c 128,-1,42
 530 144 530 144 568 163 c 128,-1,43
 606 182 606 182 628 219 c 1,44,-1
 663 202 l 1,45,46
 632 160 632 160 584 136.5 c 128,-1,47
 536 113 536 113 484.5 106.5 c 128,-1,48
 433 100 433 100 384.5 108 c 128,-1,49
 336 116 336 116 305 136 c 0,50,51
 277 156 277 156 259.5 183 c 128,-1,52
 242 210 242 210 249 245 c 2,53,-1
 295 456 l 2,54,55
 302 492 302 492 331.5 519 c 128,-1,56
 361 546 361 546 396 565 c 0,57,58
 436 585 436 585 487 593.5 c 128,-1,59
 538 602 538 602 587.5 595 c 128,-1,60
 637 588 637 588 676 564.5 c 128,-1,61
 715 541 715 541 726 499 c 1,62,-1
 684 483 l 1,63,64
 676 519 676 519 646 538.5 c 128,-1,65
 616 558 616 558 577 563.5 c 128,-1,66
 538 569 538 569 496.5 562 c 128,-1,67
 455 555 455 555 424 538 c 0,32,33
EndSplineSet
EndChar
StartChar: ordfeminine
Encoding: 170 170 109
Width: 369
VWidth: 1467
Flags: W
HStem: 278 343<230 251 224.5 287.5 287.5 287.5> 590.5 30.5<219.359 323.765>
VStem: 114 301<370 521 307 370>
Fore
373 474 m 1,0,1
 352 461 352 461 334.5 451.5 c 128,-1,2
 317 442 317 442 293 439 c 0,3,4
 223 427 223 427 189.5 415 c 128,-1,5
 156 403 156 403 147 362 c 0,6,7
 144 351 144 351 147 341.5 c 128,-1,8
 150 332 150 332 156.5 326 c 128,-1,9
 163 320 163 320 171 316.5 c 128,-1,10
 179 313 179 313 186 311 c 0,11,12
 217 307 217 307 243.5 311 c 128,-1,13
 270 315 270 315 290.5 324 c 128,-1,14
 311 333 311 333 325.5 343.5 c 128,-1,15
 340 354 340 354 349 359 c 1,16,-1
 349 362 l 1,17,-1
 373 472 l 1,18,-1
 373 474 l 1,0,1
364 282 m 1,19,20
 339 292 339 292 342 321 c 1,21,22
 332 314 332 314 314 305 c 128,-1,23
 296 296 296 296 273.5 289 c 128,-1,24
 251 282 251 282 224.5 278 c 128,-1,25
 198 274 198 274 172 280 c 0,26,27
 138 288 138 288 122.5 310 c 128,-1,28
 107 332 107 332 114 370 c 0,29,30
 120 401 120 401 140 418.5 c 128,-1,31
 160 436 160 436 186.5 445.5 c 128,-1,32
 213 455 213 455 243.5 459.5 c 128,-1,33
 274 464 274 464 301 470 c 0,34,35
 310 471 310 471 322.5 475.5 c 128,-1,36
 335 480 335 480 347 487 c 128,-1,37
 359 494 359 494 369 503 c 128,-1,38
 379 512 379 512 381 522 c 0,39,40
 389 549 389 549 361 572 c 0,41,42
 348 585 348 585 324.5 589 c 128,-1,43
 301 593 301 593 273.5 590.5 c 128,-1,44
 246 588 246 588 218.5 580 c 128,-1,45
 191 572 191 572 167 562 c 1,46,-1
 179 597 l 1,47,48
 230 621 230 621 287.5 621 c 128,-1,49
 345 621 345 621 383 600 c 0,50,51
 403 591 403 591 412 569 c 128,-1,52
 421 547 421 547 415 521 c 2,53,-1
 379 351 l 2,54,55
 376 336 376 336 376 324.5 c 128,-1,56
 376 313 376 313 390 301 c 1,57,58
 383 293 383 293 376.5 289 c 128,-1,59
 370 285 370 285 364 282 c 1,19,20
EndSplineSet
EndChar
StartChar: guillemotleft
Encoding: 171 171 110
Width: 648
VWidth: 1467
Flags: W
HStem: 32 464<352 450 450 450>
Fore
352 32 m 1,0,1
 332 73 332 73 299 110.5 c 128,-1,2
 266 148 266 148 227.5 177.5 c 128,-1,3
 189 207 189 207 149 229 c 128,-1,4
 109 251 109 251 72 263 c 1,5,6
 113 277 113 277 162 299 c 128,-1,7
 211 321 211 321 261 350.5 c 128,-1,8
 311 380 311 380 359.5 416.5 c 128,-1,9
 408 453 408 453 450 496 c 1,10,-1
 439 439 l 1,11,12
 377 386 377 386 303.5 337.5 c 128,-1,13
 230 289 230 289 156 266 c 1,14,15
 219 245 219 245 272.5 196.5 c 128,-1,16
 326 148 326 148 364 88 c 1,17,-1
 352 32 l 1,0,1
577 32 m 1,18,19
 556 73 556 73 523 110.5 c 128,-1,20
 490 148 490 148 452 177.5 c 128,-1,21
 414 207 414 207 373.5 229 c 128,-1,22
 333 251 333 251 296 263 c 1,23,24
 339 277 339 277 387.5 299 c 128,-1,25
 436 321 436 321 486 350.5 c 128,-1,26
 536 380 536 380 584 416.5 c 128,-1,27
 632 453 632 453 675 496 c 1,28,-1
 663 439 l 1,29,30
 602 386 602 386 528.5 337.5 c 128,-1,31
 455 289 455 289 380 266 c 1,32,33
 443 245 443 245 496.5 196.5 c 128,-1,34
 550 148 550 148 588 88 c 1,35,-1
 577 32 l 1,18,19
EndSplineSet
EndChar
StartChar: logicalnot
Encoding: 172 172 111
Width: 629
VWidth: 1467
Flags: W
HStem: 370 38<122 618>
Fore
568 136 m 1,0,-1
 618 370 l 1,1,-1
 113 370 l 1,2,-1
 122 408 l 1,3,-1
 665 408 l 1,4,-1
 606 136 l 1,5,-1
 568 136 l 1,0,-1
EndSplineSet
EndChar
StartChar: registered
Encoding: 174 174 112
Width: 538
VWidth: 1467
Flags: W
HStem: 204 36<230.675 364.452> 453 39<327 365.86> 599 29<402 425.352> 695 31<316.528 503.243>
VStem: 123 484<389 541 537.112 606.014>
Fore
153 541 m 0,0,1
 166 603 166 603 208.5 644 c 128,-1,2
 251 685 251 685 306 705.5 c 128,-1,3
 361 726 361 726 419.5 726 c 128,-1,4
 478 726 478 726 524.5 705.5 c 128,-1,5
 571 685 571 685 596 644 c 128,-1,6
 621 603 621 603 607 541 c 2,7,-1
 575 389 l 2,8,9
 562 327 562 327 520 286 c 128,-1,10
 478 245 478 245 424 224.5 c 128,-1,11
 370 204 370 204 311 204 c 128,-1,12
 252 204 252 204 206.5 224.5 c 128,-1,13
 161 245 161 245 136.5 286 c 128,-1,14
 112 327 112 327 123 389 c 0,15,16
 129 423 129 423 137 465.5 c 128,-1,17
 145 508 145 508 153 541 c 0,0,1
192 534 m 0,18,19
 191 527 191 527 186.5 508.5 c 128,-1,20
 182 490 182 490 177.5 468 c 128,-1,21
 173 446 173 446 168.5 426 c 128,-1,22
 164 406 164 406 163 398 c 0,23,24
 151 346 151 346 171.5 311 c 128,-1,25
 192 276 192 276 229.5 258.5 c 128,-1,26
 267 241 267 241 315.5 240 c 128,-1,27
 364 239 364 239 408.5 255 c 128,-1,28
 453 271 453 271 487.5 305.5 c 128,-1,29
 522 340 522 340 534 392 c 0,30,31
 538 414 538 414 541 426.5 c 128,-1,32
 544 439 544 439 547 452 c 128,-1,33
 550 465 550 465 554 483.5 c 128,-1,34
 558 502 558 502 565 536 c 0,35,36
 577 588 577 588 557 624 c 128,-1,37
 537 660 537 660 499.5 677.5 c 128,-1,38
 462 695 462 695 413.5 695 c 128,-1,39
 365 695 365 695 320.5 677.5 c 128,-1,40
 276 660 276 660 240 624 c 128,-1,41
 204 588 204 588 192 534 c 0,18,19
414 467 m 1,42,43
 475 483 475 483 489 538 c 0,44,45
 494 569 494 569 487 586.5 c 128,-1,46
 480 604 480 604 466 613 c 128,-1,47
 452 622 452 622 434.5 625 c 128,-1,48
 417 628 417 628 402 628 c 2,49,-1
 302 628 l 1,50,-1
 233 304 l 1,51,-1
 267 304 l 1,52,-1
 299 453 l 1,53,-1
 327 453 l 2,54,55
 346 453 346 453 366.5 450 c 128,-1,56
 387 447 387 447 402 438.5 c 128,-1,57
 417 430 417 430 423.5 411 c 128,-1,58
 430 392 430 392 423 359 c 2,59,-1
 409 304 l 1,60,-1
 442 304 l 1,61,-1
 455 361 l 2,62,63
 465 408 465 408 452 432 c 128,-1,64
 439 456 439 456 414 467 c 1,42,43
330 599 m 1,65,-1
 398 599 l 2,66,67
 424 599 424 599 444 588 c 128,-1,68
 464 577 464 577 456 538 c 0,69,70
 450 509 450 509 426 501.5 c 128,-1,71
 402 494 402 494 373 492 c 2,72,-1
 308 492 l 1,73,74
 314 515 314 515 317 528 c 128,-1,75
 320 541 320 541 321.5 550.5 c 128,-1,76
 323 560 323 560 325 570.5 c 128,-1,77
 327 581 327 581 330 599 c 1,65,-1
EndSplineSet
EndChar
StartChar: macron
Encoding: 175 175 113
Width: 316
VWidth: 1467
Flags: W
HStem: 625 41<176 399 167 408 176 176>
Fore
167 625 m 1,0,-1
 176 666 l 1,1,-1
 408 666 l 1,2,-1
 399 625 l 1,3,-1
 167 625 l 1,0,-1
EndSplineSet
EndChar
StartChar: degree
Encoding: 176 176 114
Width: 267
VWidth: 1467
Flags: W
HStem: 549 25<219.75 272.531> 695 24<234.142 312.465>
VStem: 172 36<610.017 668.7> 323 35<623.873 661.126>
Fore
286 719 m 2,0,1
 323 719 323 719 344 694 c 128,-1,2
 365 669 365 669 358 634 c 256,3,4
 351 599 351 599 318.5 574 c 128,-1,5
 286 549 286 549 248 549 c 2,6,-1
 246 549 l 2,7,8
 208 549 208 549 186 574 c 128,-1,9
 164 599 164 599 172 634 c 0,10,11
 179 671 179 671 212.5 695 c 128,-1,12
 246 719 246 719 285 719 c 2,13,-1
 286 719 l 2,0,1
255 574 m 2,14,15
 266 574 266 574 277 579.5 c 128,-1,16
 288 585 288 585 298 594 c 128,-1,17
 308 603 308 603 314.5 614 c 128,-1,18
 321 625 321 625 323 634 c 0,19,20
 327 651 327 651 314 672 c 128,-1,21
 301 693 301 693 280 695 c 1,22,-1
 279 695 l 2,23,24
 254 695 254 695 233.5 673 c 128,-1,25
 213 651 213 651 208 634 c 0,26,27
 205 618 205 618 218.5 596.5 c 128,-1,28
 232 575 232 575 254 574 c 2,29,-1
 255 574 l 2,14,15
EndSplineSet
EndChar
StartChar: plusminus
Encoding: 177 177 115
Width: 629
VWidth: 1467
Flags: W
HStem: 0 48<44 585> 335 46<116 351 405 649> 579 20G<401.872 450>
Fore
395 335 m 1,0,-1
 346 110 l 1,1,-1
 302 110 l 1,2,-1
 351 335 l 1,3,-1
 106 335 l 1,4,-1
 116 381 l 1,5,-1
 361 381 l 1,6,-1
 406 599 l 1,7,-1
 450 599 l 1,8,-1
 405 381 l 1,9,-1
 659 381 l 1,10,-1
 649 335 l 1,11,-1
 395 335 l 1,0,-1
41 0 m 1,12,-1
 44 48 l 1,13,-1
 588 48 l 1,14,-1
 585 0 l 1,15,-1
 41 0 l 1,12,-1
EndSplineSet
EndChar
StartChar: twosuperior
Encoding: 178 178 116
Width: 380
VWidth: 1467
Flags: W
HStem: 274 39<161.748 300.823 300.823 353.991 353.991 368> 662 39<306.03 374.195>
VStem: 98 348<274 607 374.323 427.491>
Fore
107 311 m 1,0,1
 123 324 123 324 149.5 347 c 128,-1,2
 176 370 176 370 204.5 394 c 128,-1,3
 233 418 233 418 257.5 438.5 c 128,-1,4
 282 459 282 459 293 470 c 0,5,6
 315 490 315 490 335 510 c 128,-1,7
 355 530 355 530 374 549 c 0,8,9
 409 585 409 585 406 614.5 c 128,-1,10
 403 644 403 644 387 653 c 256,11,12
 371 662 371 662 353 662 c 128,-1,13
 335 662 335 662 324 662 c 0,14,15
 298 662 298 662 260.5 643.5 c 128,-1,16
 223 625 223 625 186 600 c 1,17,-1
 197 643 l 1,18,19
 242 675 242 675 275 688 c 128,-1,20
 308 701 308 701 337 701 c 0,21,22
 393 701 393 701 424.5 680.5 c 128,-1,23
 456 660 456 660 446 607 c 0,24,25
 445 599 445 599 441 586.5 c 128,-1,26
 437 574 437 574 428.5 558.5 c 128,-1,27
 420 543 420 543 403 524 c 128,-1,28
 386 505 386 505 359 480 c 0,29,30
 352 472 352 472 335 457.5 c 128,-1,31
 318 443 318 443 296 424 c 128,-1,32
 274 405 274 405 251.5 385 c 128,-1,33
 229 365 229 365 209 349 c 128,-1,34
 189 333 189 333 176 322 c 128,-1,35
 163 311 163 311 161 311 c 1,36,37
 185 313 185 313 200.5 313 c 0,38,-1
 263.5 313 l 0,39,40
 311 313 311 313 337.5 312 c 128,-1,41
 364 311 364 311 377 311 c 1,42,-1
 368 274 l 1,43,-1
 98 274 l 1,44,-1
 107 311 l 1,0,1
EndSplineSet
EndChar
StartChar: threesuperior
Encoding: 179 179 117
Width: 377
VWidth: 1467
Flags: W
HStem: 274 426<207 296 207 296 318.727 362.337> 274 34<188.374 259.706> 483 39<216 233.78 234.218 270.639> 663 37<264.223 318.273 317.819 318.727 318.727 362.337>
VStem: 114 314<292 612 203 292>
Fore
216 522 m 1,0,1
 227 522 227 522 234 523 c 128,-1,2
 241 524 241 524 244 524 c 0,3,4
 268 524 268 524 290.5 530 c 128,-1,5
 313 536 313 536 329 543 c 0,6,7
 367 559 367 559 382.5 588.5 c 128,-1,8
 398 618 398 618 381 641 c 0,9,10
 373 656 373 656 345.5 659.5 c 128,-1,11
 318 663 318 663 292 663 c 0,12,13
 263 662 263 662 242.5 656 c 128,-1,14
 222 650 222 650 195 643 c 1,15,-1
 207 684 l 1,16,17
 238 690 238 690 257.5 694 c 128,-1,18
 277 698 277 698 296 700 c 0,19,20
 320 700 320 700 339.5 698.5 c 128,-1,21
 359 697 359 697 376 691 c 0,22,23
 402 679 402 679 416.5 663 c 128,-1,24
 431 647 431 647 428 612 c 0,25,26
 424 565 424 565 390.5 539.5 c 128,-1,27
 357 514 357 514 301 503 c 1,28,-1
 301 502 l 1,29,30
 357 502 357 502 380 478 c 0,31,32
 406 449 406 449 402.5 412.5 c 128,-1,33
 399 376 399 376 373.5 343.5 c 128,-1,34
 348 311 348 311 304.5 290.5 c 128,-1,35
 261 270 261 270 207 274 c 0,36,37
 200 274 200 274 188 275 c 128,-1,38
 176 276 176 276 162 278 c 128,-1,39
 148 280 148 280 135 284 c 128,-1,40
 122 288 122 288 114 292 c 1,41,-1
 120 332 l 1,42,43
 145 320 145 320 166.5 312.5 c 128,-1,44
 188 305 188 305 219 308 c 2,45,46
 248 307 248 307 273.5 315 c 128,-1,47
 299 323 299 323 318 336 c 128,-1,48
 337 349 337 349 349 366 c 128,-1,49
 361 383 361 383 362 401 c 0,50,51
 364 425 364 425 352 441.5 c 128,-1,52
 340 458 340 458 319.5 467.5 c 128,-1,53
 299 477 299 477 271.5 480.5 c 128,-1,54
 244 484 244 484 211 483 c 1,55,-1
 216 522 l 1,0,1
EndSplineSet
EndChar
StartChar: acute
Encoding: 180 180 118
Width: 311
VWidth: 1467
Flags: W
HStem: 518 207<249 293 293 293>
Fore
249 518 m 1,0,-1
 205 518 l 1,1,-1
 293 725 l 1,2,-1
 367 725 l 1,3,-1
 249 518 l 1,0,-1
EndSplineSet
EndChar
StartChar: mu
Encoding: 181 181 119
AltUni2: 0003bc.ffffffff.0
Width: 619
VWidth: 1467
Flags: W
HStem: -4 36<235.415 367.018> 489 20G<199.921 242 563.728 609>
Fore
475 0 m 1,0,-1
 486 98 l 1,1,2
 452 60 452 60 396 28 c 128,-1,3
 340 -4 340 -4 273 -4 c 0,4,5
 261 -4 261 -4 244 -2 c 128,-1,6
 227 0 227 0 210.5 7.5 c 128,-1,7
 194 15 194 15 177.5 30 c 128,-1,8
 161 45 161 45 150 72 c 1,9,-1
 85 -246 l 1,10,-1
 50 -246 l 1,11,-1
 204 509 l 1,12,-1
 242 509 l 1,13,-1
 180 219 l 2,14,15
 173 183 173 183 174 149.5 c 128,-1,16
 175 116 175 116 187.5 90.5 c 128,-1,17
 200 65 200 65 225.5 48.5 c 128,-1,18
 251 32 251 32 293 32 c 0,19,20
 326 32 326 32 360.5 47 c 128,-1,21
 395 62 395 62 424 85.5 c 128,-1,22
 453 109 453 109 474.5 139 c 128,-1,23
 496 169 496 169 502 200 c 2,24,-1
 568 509 l 1,25,-1
 609 509 l 1,26,-1
 528 125 l 2,27,28
 521 94 521 94 516 62.5 c 128,-1,29
 511 31 511 31 512 0 c 1,30,-1
 475 0 l 1,0,-1
EndSplineSet
EndChar
StartChar: paragraph
Encoding: 182 182 120
Width: 560
VWidth: 1467
Flags: W
HStem: 663 50<459 572>
VStem: 140 482<435 713 435 435>
Fore
622 713 m 1,0,-1
 459 -51 l 1,1,-1
 420 -51 l 1,2,-1
 572 663 l 1,3,-1
 459 663 l 1,4,-1
 307 -51 l 1,5,-1
 266 -51 l 1,6,-1
 348 335 l 1,7,8
 301 310 301 310 257 305.5 c 128,-1,9
 213 301 213 301 180 321 c 0,10,11
 156 339 156 339 146 369 c 128,-1,12
 136 399 136 399 140 435 c 128,-1,13
 144 471 144 471 162 511.5 c 128,-1,14
 180 552 180 552 211 590 c 0,15,16
 260 651 260 651 318.5 683 c 128,-1,17
 377 715 377 715 428 712 c 1,18,-1
 428 713 l 1,19,-1
 622 713 l 1,0,-1
EndSplineSet
EndChar
StartChar: periodcentered
Encoding: 183 183 121
Width: 337
VWidth: 1467
Flags: W
HStem: 252 190<190.731 279.836>
VStem: 141 189<317.256 410.892>
Fore
330 346 m 0,0,1
 321 307 321 307 287.5 279.5 c 128,-1,2
 254 252 254 252 214 252 c 0,3,4
 176 252 176 252 153.5 279.5 c 128,-1,5
 131 307 131 307 141 346 c 0,6,7
 148 386 148 386 182 414 c 128,-1,8
 216 442 216 442 254 442 c 0,9,10
 293 442 293 442 315 414 c 128,-1,11
 337 386 337 386 330 346 c 0,0,1
EndSplineSet
EndChar
StartChar: cedilla
Encoding: 184 184 122
Width: 313
VWidth: 1467
Flags: W
HStem: -198 199<100 178 178 178>
VStem: 21 180<-192 -95 -192 -192>
Fore
201 -95 m 0,0,1
 204 -128 204 -128 174 -157 c 128,-1,2
 144 -186 144 -186 100 -198 c 0,3,4
 54 -211 54 -211 21 -192 c 1,5,-1
 34 -164 l 1,6,7
 44 -172 44 -172 63 -170.5 c 128,-1,8
 82 -169 82 -169 98 -164 c 0,9,10
 109 -161 109 -161 122.5 -155.5 c 128,-1,11
 136 -150 136 -150 148 -142 c 128,-1,12
 160 -134 160 -134 167.5 -124 c 128,-1,13
 175 -114 175 -114 175 -104 c 1,14,15
 176 -94 176 -94 167 -88 c 128,-1,16
 158 -82 158 -82 146 -80 c 128,-1,17
 134 -78 134 -78 119 -79.5 c 128,-1,18
 104 -81 104 -81 92 -82 c 1,19,20
 85 -85 85 -85 75.5 -88.5 c 128,-1,21
 66 -92 66 -92 57 -97 c 1,22,-1
 59 -95 l 1,23,-1
 57 -97 l 1,24,-1
 59 -95 l 1,25,-1
 60 -92 l 1,26,-1
 66 -88 l 1,27,-1
 147 0 l 1,28,-1
 178 1 l 1,29,-1
 125 -53 l 1,30,31
 156 -50 156 -50 177 -61 c 128,-1,32
 198 -72 198 -72 201 -95 c 0,0,1
EndSplineSet
EndChar
StartChar: onesuperior
Encoding: 185 185 123
Width: 242
VWidth: 1467
Flags: W
HStem: 280 411<211 276 276 276>
Fore
263 663 m 1,0,-1
 214 638 l 1,1,-1
 220 663 l 1,2,-1
 276 691 l 1,3,-1
 299 691 l 1,4,-1
 211 280 l 1,5,-1
 178 280 l 1,6,-1
 263 663 l 1,0,-1
EndSplineSet
EndChar
StartChar: ordmasculine
Encoding: 186 186 124
Width: 369
VWidth: 1467
Flags: W
HStem: 267 31<184.567 287.722> 594 28<249.118 361.108>
VStem: 106 328<393 497 434.77 473.244>
Fore
126 497 m 0,0,1
 135 538 135 538 163.5 566 c 128,-1,2
 192 594 192 594 229.5 608 c 128,-1,3
 267 622 267 622 306.5 622 c 128,-1,4
 346 622 346 622 377.5 608 c 128,-1,5
 409 594 409 594 426 566 c 128,-1,6
 443 538 443 538 434 497 c 2,7,-1
 411 393 l 2,8,9
 402 351 402 351 373.5 323.5 c 128,-1,10
 345 296 345 296 309 281.5 c 128,-1,11
 273 267 273 267 233.5 267 c 128,-1,12
 194 267 194 267 163 281 c 128,-1,13
 132 295 132 295 115 323.5 c 128,-1,14
 98 352 98 352 106 393 c 0,15,16
 110 415 110 415 115 444.5 c 128,-1,17
 120 474 120 474 126 497 c 0,0,1
156 481 m 1,18,19
 156 477 156 477 153.5 466.5 c 128,-1,20
 151 456 151 456 150 450.5 c 0,21,-1
 145.5 428.5 l 0,22,23
 142 412 142 412 141 406 c 0,24,25
 132 370 132 370 144.5 345.5 c 128,-1,26
 157 321 157 321 181 309.5 c 128,-1,27
 205 298 205 298 236 298 c 128,-1,28
 267 298 267 298 296.5 310.5 c 128,-1,29
 326 323 326 323 349.5 346.5 c 128,-1,30
 373 370 373 370 380 406 c 0,31,32
 384 421 384 421 385 426 c 128,-1,33
 386 431 386 431 386.5 435.5 c 128,-1,34
 387 440 387 440 389.5 449 c 128,-1,35
 392 458 392 458 396 481 c 0,36,37
 403 519 403 519 391 544 c 128,-1,38
 379 569 379 569 354.5 581.5 c 128,-1,39
 330 594 330 594 299 594 c 128,-1,40
 268 594 268 594 239 581.5 c 128,-1,41
 210 569 210 569 187 544 c 128,-1,42
 164 519 164 519 156 481 c 1,18,19
EndSplineSet
EndChar
StartChar: guillemotright
Encoding: 187 187 125
Width: 432
VWidth: 1467
Flags: W
HStem: 72 390<244 263 263 263>
VStem: 25 427<72 266 72 72>
Fore
244 72 m 1,0,-1
 182 72 l 1,1,-1
 387 266 l 1,2,3
 358 313 358 313 325 364 c 128,-1,4
 292 415 292 415 263 462 c 1,5,-1
 326 462 l 1,6,-1
 452 266 l 1,7,-1
 244 72 l 1,0,-1
87 72 m 1,8,-1
 25 72 l 1,9,-1
 230 266 l 1,10,11
 201 313 201 313 168.5 364 c 128,-1,12
 136 415 136 415 107 462 c 1,13,-1
 170 462 l 1,14,-1
 295 266 l 1,15,-1
 87 72 l 1,8,-1
EndSplineSet
EndChar
StartChar: onequarter
Encoding: 188 188 126
Width: 802
VWidth: 1467
Flags: W
HStem: -15 21G<117 170.236> 117 31<524 668 706 748>
Fore
271 662 m 1,0,-1
 224 637 l 1,1,-1
 229 662 l 1,2,-1
 283 690 l 1,3,-1
 308 690 l 1,4,-1
 222 279 l 1,5,-1
 188 279 l 1,6,-1
 271 662 l 1,0,-1
732 697 m 1,7,-1
 154 -15 l 1,8,-1
 117 -15 l 1,9,-1
 694 697 l 1,10,-1
 732 697 l 1,7,-1
748 117 m 1,11,-1
 700 117 l 1,12,13
 697 110 697 110 689.5 75 c 128,-1,14
 682 40 682 40 675 3 c 1,15,-1
 643 3 l 1,16,17
 650 35 650 35 653 52 c 128,-1,18
 656 69 656 69 658 78.5 c 128,-1,19
 660 88 660 88 661.5 95.5 c 128,-1,20
 663 103 663 103 668 117 c 1,21,-1
 478 117 l 1,22,-1
 483 139 l 1,23,24
 547 214 547 214 609 284.5 c 128,-1,25
 671 355 671 355 719 414 c 1,26,-1
 763 414 l 1,27,28
 756 380 756 380 747 341 c 128,-1,29
 738 302 738 302 730 264.5 c 128,-1,30
 722 227 722 227 715.5 196.5 c 128,-1,31
 709 166 709 166 706 148 c 1,32,-1
 754 148 l 1,33,-1
 748 117 l 1,11,-1
673 148 m 1,34,35
 685 204 685 204 700 266.5 c 128,-1,36
 715 329 715 329 725 380 c 1,37,-1
 524 148 l 1,38,-1
 673 148 l 1,34,35
EndSplineSet
Ligature2: "'frac' Diagonal Fractions in Latin lookup 0 subtable" one fraction four
Ligature2: "'frac' Diagonal Fractions in Latin lookup 0 subtable" one slash four
EndChar
StartChar: onehalf
Encoding: 189 189 127
Width: 884
VWidth: 1467
Flags: W
HStem: 3 38<563.752 710.819 710.819 756.743 756.743 772> 390 40<710.625 778.119>
Fore
279 646 m 1,0,-1
 232 621 l 1,1,-1
 238 646 l 1,2,-1
 291 673 l 1,3,-1
 317 673 l 1,4,-1
 230 263 l 1,5,-1
 197 263 l 1,6,-1
 279 646 l 1,0,-1
741 681 m 1,7,-1
 163 -31 l 1,8,-1
 126 -31 l 1,9,-1
 703 681 l 1,10,-1
 741 681 l 1,7,-1
508 40 m 1,11,12
 525 53 525 53 552.5 75.5 c 128,-1,13
 580 98 580 98 607.5 122.5 c 128,-1,14
 635 147 635 147 659.5 167.5 c 128,-1,15
 684 188 684 188 695 198 c 0,16,17
 719 219 719 219 739 238.5 c 128,-1,18
 759 258 759 258 778 277 c 0,19,20
 813 314 813 314 810 343.5 c 128,-1,21
 807 373 807 373 791 381 c 256,22,23
 775 390 775 390 756.5 390 c 128,-1,24
 738 390 738 390 728 390 c 0,25,26
 701 390 701 390 663 372 c 128,-1,27
 625 354 625 354 588 329 c 1,28,-1
 597 371 l 1,29,30
 643 403 643 403 677.5 416.5 c 128,-1,31
 712 430 712 430 741 430 c 0,32,33
 797 430 797 430 827.5 409.5 c 128,-1,34
 858 389 858 389 850 336 c 0,35,36
 848 327 848 327 844.5 314.5 c 128,-1,37
 841 302 841 302 831.5 286.5 c 128,-1,38
 822 271 822 271 805.5 252 c 128,-1,39
 789 233 789 233 763 208 c 0,40,41
 756 201 756 201 739 186.5 c 128,-1,42
 722 172 722 172 700 153 c 128,-1,43
 678 134 678 134 654.5 114 c 128,-1,44
 631 94 631 94 611 78 c 128,-1,45
 591 62 591 62 578 51 c 128,-1,46
 565 40 565 40 563 40 c 1,47,48
 587 41 587 41 619 41 c 128,-1,49
 651 41 651 41 682 41 c 128,-1,50
 713 41 713 41 739.5 40.5 c 128,-1,51
 766 40 766 40 779 40 c 1,52,-1
 772 3 l 1,53,-1
 500 3 l 1,54,-1
 508 40 l 1,11,12
EndSplineSet
Ligature2: "'frac' Diagonal Fractions in Latin lookup 0 subtable" one fraction two
Ligature2: "'frac' Diagonal Fractions in Latin lookup 0 subtable" one slash two
EndChar
StartChar: threequarters
Encoding: 190 190 128
Width: 802
VWidth: 1467
Flags: W
HStem: -15 21G<188 240.264> 117 31<524 668 706 748> 278 28.5<151.781 169.5 169.5 182.273 182.273 199.089 199.089 204.577 204.577 271.428> 480 42<222 240.265 240.733 275.031> 663 37<271.615 326.137 325.546 326.727 326.727 369.89>
VStem: 398.5 37.5<596.57 634.844>
Fore
803 697 m 1,0,-1
 224 -15 l 1,1,-1
 188 -15 l 1,2,-1
 764 697 l 1,3,-1
 803 697 l 1,0,-1
748 117 m 1,4,-1
 700 117 l 1,5,6
 697 110 697 110 689.5 75 c 128,-1,7
 682 40 682 40 675 3 c 1,8,-1
 643 3 l 1,9,10
 650 35 650 35 653 52 c 128,-1,11
 656 69 656 69 658 78.5 c 128,-1,12
 660 88 660 88 661.5 95.5 c 128,-1,13
 663 103 663 103 668 117 c 1,14,-1
 478 117 l 1,15,-1
 483 139 l 1,16,17
 547 214 547 214 609 284.5 c 128,-1,18
 671 355 671 355 719 414 c 1,19,-1
 763 414 l 1,20,21
 756 380 756 380 747 341 c 128,-1,22
 738 302 738 302 730 264.5 c 128,-1,23
 722 227 722 227 715.5 196.5 c 128,-1,24
 709 166 709 166 706 148 c 1,25,-1
 754 148 l 1,26,-1
 748 117 l 1,4,-1
673 148 m 1,27,28
 685 204 685 204 700 266.5 c 128,-1,29
 715 329 715 329 725 380 c 1,30,-1
 524 148 l 1,31,-1
 673 148 l 1,27,28
222 522 m 1,32,33
 233 522 233 522 240.5 523 c 128,-1,34
 248 524 248 524 251 524 c 0,35,36
 302 524 302 524 336 538 c 0,37,38
 355 546 355 546 369 559 c 128,-1,39
 383 572 383 572 390.5 586 c 128,-1,40
 398 600 398 600 398.5 614.5 c 128,-1,41
 399 629 399 629 392 641 c 0,42,43
 383 656 383 656 354.5 659.5 c 128,-1,44
 326 663 326 663 299 663 c 0,45,46
 270 662 270 662 249.5 656 c 128,-1,47
 229 650 229 650 202 643 c 1,48,-1
 214 684 l 1,49,50
 245 690 245 690 265 694 c 128,-1,51
 285 698 285 698 304 700 c 0,52,53
 327 700 327 700 347 698.5 c 128,-1,54
 367 697 367 697 383 691 c 0,55,56
 409 679 409 679 424 663 c 128,-1,57
 439 647 439 647 436 612 c 0,58,59
 431 565 431 565 397.5 539.5 c 128,-1,60
 364 514 364 514 308 503 c 1,61,-1
 308 502 l 1,62,63
 364 502 364 502 387 478 c 0,64,65
 414 449 414 449 410 412.5 c 128,-1,66
 406 376 406 376 380.5 343.5 c 128,-1,67
 355 311 355 311 311.5 290.5 c 128,-1,68
 268 270 268 270 214 274 c 0,69,70
 207 274 207 274 195 275 c 128,-1,71
 183 276 183 276 169.5 278 c 128,-1,72
 156 280 156 280 142.5 284 c 128,-1,73
 129 288 129 288 120 292 c 1,74,-1
 125 323 l 1,75,76
 151 311 151 311 172.5 306.5 c 128,-1,77
 194 302 194 302 226 305 c 2,78,79
 252 302 252 302 276.5 308.5 c 128,-1,80
 301 315 301 315 320.5 329 c 128,-1,81
 340 343 340 343 354 361.5 c 128,-1,82
 368 380 368 380 373 401 c 0,83,84
 377 425 377 425 364.5 441.5 c 128,-1,85
 352 458 352 458 329.5 466.5 c 128,-1,86
 307 475 307 475 276 478 c 128,-1,87
 245 481 245 481 213 480 c 1,88,-1
 222 522 l 1,32,33
EndSplineSet
Ligature2: "'frac' Diagonal Fractions in Latin lookup 0 subtable" three fraction four
Ligature2: "'frac' Diagonal Fractions in Latin lookup 0 subtable" three slash four
EndChar
StartChar: questiondown
Encoding: 191 191 129
Width: 544
VWidth: 1467
Flags: W
VStem: 75.5 381.5<-129 -128 -6 11.5 -129 11.5 -129 -129> 342 79<401 483.5> 422.5 34.5<-27.0977 -6 -6 20.1398>
Fore
295 -34 m 0,0,1
 318 12 318 12 355 40.5 c 128,-1,2
 392 69 392 69 421 60 c 0,3,4
 452 51 452 51 457 11.5 c 128,-1,5
 462 -28 462 -28 439 -76 c 0,6,7
 431 -89 431 -89 422.5 -102.5 c 128,-1,8
 414 -116 414 -116 403 -128 c 0,9,10
 376 -161 376 -161 337 -185.5 c 128,-1,11
 298 -210 298 -210 257 -217 c 0,12,13
 185 -233 185 -233 138 -206 c 128,-1,14
 91 -179 91 -179 75.5 -129 c 128,-1,15
 60 -79 60 -79 79 -18 c 128,-1,16
 98 43 98 43 157 95 c 0,17,18
 163 100 163 100 181.5 111 c 128,-1,19
 200 122 200 122 221 138 c 128,-1,20
 242 154 242 154 263.5 173 c 128,-1,21
 285 192 285 192 296 213 c 0,22,23
 310 235 310 235 317 254.5 c 128,-1,24
 324 274 324 274 329 291 c 0,25,26
 335 308 335 308 336 323 c 1,27,-1
 374 321 l 1,28,29
 374 307 374 307 368 289 c 0,30,31
 364 273 364 273 356 251 c 128,-1,32
 348 229 348 229 332 200 c 0,33,34
 320 179 320 179 298 157.5 c 128,-1,35
 276 136 276 136 252 119 c 0,36,37
 226 98 226 98 195 78 c 0,38,39
 147 41 147 41 125 -6.5 c 128,-1,40
 103 -54 103 -54 108 -96 c 128,-1,41
 113 -138 113 -138 144.5 -164.5 c 128,-1,42
 176 -191 176 -191 235 -185 c 0,43,44
 264 -182 264 -182 302 -164 c 1,45,46
 279 -151 279 -151 276 -114.5 c 128,-1,47
 273 -78 273 -78 295 -34 c 0,0,1
406 -66 m 0,48,49
 412 -53 412 -53 416.5 -37 c 128,-1,50
 421 -21 421 -21 422.5 -6 c 128,-1,51
 424 9 424 9 421 20.5 c 128,-1,52
 418 32 418 32 409 35 c 0,53,54
 399 38 399 38 387.5 31.5 c 128,-1,55
 376 25 376 25 365 12.5 c 128,-1,56
 354 0 354 0 343.5 -14.5 c 128,-1,57
 333 -29 333 -29 327 -43 c 0,58,59
 320 -56 320 -56 315.5 -72 c 128,-1,60
 311 -88 311 -88 309.5 -103.5 c 128,-1,61
 308 -119 308 -119 311.5 -130 c 128,-1,62
 315 -141 315 -141 324 -145 c 1,63,64
 335 -148 335 -148 346.5 -141 c 128,-1,65
 358 -134 358 -134 369 -121.5 c 128,-1,66
 380 -109 380 -109 389.5 -94 c 128,-1,67
 399 -79 399 -79 406 -66 c 0,48,49
368 386 m 1,68,69
 351 384 351 384 342 401 c 128,-1,70
 333 418 333 418 339 443 c 0,71,72
 343 467 343 467 359.5 483.5 c 128,-1,73
 376 500 376 500 393 500 c 0,74,75
 412 500 412 500 421 483.5 c 128,-1,76
 430 467 430 467 424 443 c 0,77,78
 418 418 418 418 402 401 c 128,-1,79
 386 384 386 384 368 386 c 1,68,69
EndSplineSet
EndChar
StartChar: Aring
Encoding: 197 197 134
Width: 676
VWidth: 1467
Flags: W
HStem: 1 21G<59 113.52 562.039 609> 230 40<232 550>
VStem: 538 48.5<455.167 521 521 549.608 549.608 570.696 570.696 578 595.5 609.954> 550 38<787.015 813 813 844.016 844.984 854.942 854.942 895.202> 563 46<1 73.8636>
Fore
609 1 m 1,0,-1
 563 1 l 1,1,-1
 552 230 l 1,2,-1
 213 230 l 1,3,-1
 104 1 l 1,4,-1
 59 1 l 1,5,-1
 311 546 l 2,6,7
 335 602 335 602 363.5 648 c 128,-1,8
 392 694 392 694 439 715 c 1,9,10
 420 731 420 731 414 759.5 c 128,-1,11
 408 788 408 788 417 822 c 0,12,13
 430 870 430 870 462 902.5 c 128,-1,14
 494 935 494 935 531 933 c 0,15,16
 566 932 566 932 583 896.5 c 128,-1,17
 600 861 600 861 585 813 c 0,18,19
 578 782 578 782 561 758 c 128,-1,20
 544 734 544 734 522 717 c 1,21,22
 546 709 546 709 559 690 c 128,-1,23
 572 671 572 671 578.5 646.5 c 128,-1,24
 585 622 585 622 586.5 595.5 c 128,-1,25
 588 569 588 569 588 546 c 2,26,-1
 609 1 l 1,0,-1
522 907 m 0,27,28
 511 908 511 908 500.5 899.5 c 128,-1,29
 490 891 490 891 481 877.5 c 128,-1,30
 472 864 472 864 465.5 848.5 c 128,-1,31
 459 833 459 833 455 820 c 0,32,33
 452 807 452 807 451 791.5 c 128,-1,34
 450 776 450 776 452.5 762 c 128,-1,35
 455 748 455 748 461 738 c 128,-1,36
 467 728 467 728 478 726 c 0,37,38
 492 726 492 726 503 735 c 128,-1,39
 514 744 514 744 523.5 757 c 128,-1,40
 533 770 533 770 539.5 786.5 c 128,-1,41
 546 803 546 803 549 816 c 256,42,43
 552 829 552 829 552.5 844.5 c 128,-1,44
 553 860 553 860 550 873 c 128,-1,45
 547 886 547 886 540 895.5 c 128,-1,46
 533 905 533 905 522 907 c 0,27,28
550 270 m 1,47,-1
 538 521 l 2,48,49
 536 553 536 553 535 578 c 128,-1,50
 534 603 534 603 527 632 c 0,51,52
 522 659 522 659 507.5 669 c 128,-1,53
 493 679 493 679 474.5 677.5 c 128,-1,54
 456 676 456 676 438 663.5 c 128,-1,55
 420 651 420 651 408 629 c 0,56,57
 390 600 390 600 377.5 576 c 128,-1,58
 365 552 365 552 349 521 c 2,59,-1
 232 270 l 1,60,-1
 550 270 l 1,47,-1
EndSplineSet
EndChar
StartChar: AE
Encoding: 198 198 135
Width: 1115
VWidth: 1467
Flags: W
HStem: -10 36<745.673 1020> 219 39<295 604> 317 40<684 977> 671 38<604.171 644 665 665.92 910.938 1165>
Fore
962 671 m 2,0,1
 924 671 924 671 886 663.5 c 128,-1,2
 848 656 848 656 815 636 c 128,-1,3
 782 616 782 616 755.5 581 c 128,-1,4
 729 546 729 546 713 489 c 2,5,-1
 684 357 l 1,6,-1
 986 357 l 1,7,-1
 977 317 l 1,8,-1
 675 317 l 1,9,-1
 662 251 l 2,10,11
 644 183 644 183 651.5 140 c 128,-1,12
 659 97 659 97 683 72.5 c 128,-1,13
 707 48 707 48 744.5 38 c 128,-1,14
 782 28 782 28 825 26 c 2,15,-1
 1027 26 l 1,16,-1
 1020 -10 l 1,17,-1
 820 -10 l 2,18,19
 751 -9 751 -9 697.5 5 c 128,-1,20
 644 19 644 19 619 67 c 1,21,-1
 603 -10 l 1,22,-1
 558 -10 l 1,23,-1
 604 219 l 1,24,-1
 266 219 l 1,25,-1
 98 -10 l 1,26,-1
 53 -10 l 1,27,-1
 446 534 l 2,28,29
 470 568 470 568 494 601 c 128,-1,30
 518 634 518 634 545 659.5 c 128,-1,31
 572 685 572 685 601.5 700.5 c 128,-1,32
 631 716 631 716 665 715 c 0,33,34
 707 712 707 712 722 686 c 128,-1,35
 737 660 737 660 735 626 c 1,36,37
 781 675 781 675 842.5 691 c 128,-1,38
 904 707 904 707 973 709 c 2,39,-1
 1172 709 l 1,40,-1
 1165 671 l 1,41,-1
 962 671 l 2,0,1
668 509 m 2,42,43
 673 541 673 541 678.5 566 c 128,-1,44
 684 591 684 591 684 621 c 0,45,46
 685 647 685 647 674 657.5 c 128,-1,47
 663 668 663 668 644 666.5 c 128,-1,48
 625 665 625 665 603.5 652.5 c 128,-1,49
 582 640 582 640 565 618 c 0,50,51
 540 588 540 588 521 564 c 128,-1,52
 502 540 502 540 478 509 c 2,53,-1
 295 258 l 1,54,-1
 613 258 l 1,55,-1
 668 509 l 2,42,43
EndSplineSet
EndChar
StartChar: Eth
Encoding: 208 208 145
Width: 683
VWidth: 1467
Flags: W
HStem: -4 36<147 209.215 209.215 281.101> 327 40<76 166 219 420> 676 37<283 362.412>
Fore
249 713 m 1,0,1
 352 713 352 713 438 703 c 128,-1,2
 524 693 524 693 580.5 655.5 c 128,-1,3
 637 618 637 618 658 546.5 c 128,-1,4
 679 475 679 475 656 355 c 0,5,6
 624 211 624 211 566 137 c 128,-1,7
 508 63 508 63 433.5 31.5 c 128,-1,8
 359 0 359 0 272.5 -2 c 128,-1,9
 186 -4 186 -4 95 -4 c 1,10,-1
 166 327 l 1,11,-1
 67 327 l 1,12,-1
 76 367 l 1,13,-1
 175 367 l 1,14,-1
 249 713 l 1,0,1
147 32 m 1,15,16
 260 28 260 28 340 44 c 128,-1,17
 420 60 420 60 474 99 c 128,-1,18
 528 138 528 138 560.5 202 c 128,-1,19
 593 266 593 266 612 355 c 0,20,21
 629 439 629 439 620.5 500.5 c 128,-1,22
 612 562 612 562 573 601.5 c 128,-1,23
 534 641 534 641 462 659.5 c 128,-1,24
 390 678 390 678 283 676 c 1,25,-1
 219 367 l 1,26,-1
 428 367 l 1,27,-1
 420 327 l 1,28,-1
 210 327 l 1,29,-1
 147 32 l 1,15,16
EndSplineSet
EndChar
StartChar: multiply
Encoding: 215 215 152
Width: 629
VWidth: 1467
Flags: W
HStem: 0 21G<56.8571 108.5 533.066 569.571>
Fore
549 0 m 1,0,-1
 357 241 l 1,1,2
 289 185 289 185 214 121 c 128,-1,3
 139 57 139 57 78 0 c 1,4,-1
 41 35 l 1,5,-1
 329 277 l 1,6,-1
 145 521 l 1,7,-1
 189 556 l 1,8,-1
 373 314 l 1,9,-1
 659 556 l 1,10,-1
 688 521 l 1,11,-1
 401 277 l 1,12,-1
 585 35 l 1,13,-1
 549 0 l 1,0,-1
EndSplineSet
EndChar
StartChar: Oslash
Encoding: 216 216 153
Width: 696
VWidth: 1467
Flags: W
HStem: -7 29<273.966 395.852> 685 30<408.674 544.125>
Fore
678 403 m 0,0,1
 669 345 669 345 656.5 295.5 c 128,-1,2
 644 246 644 246 622 200 c 0,3,4
 597 144 597 144 563.5 104.5 c 128,-1,5
 530 65 530 65 492.5 39 c 128,-1,6
 455 13 455 13 418 2 c 128,-1,7
 381 -9 381 -9 354 -7 c 0,8,9
 279 -4 279 -4 224 40 c 1,10,-1
 176 -31 l 1,11,-1
 129 -31 l 1,12,-1
 198 67 l 1,13,14
 169 104 169 104 158.5 158.5 c 128,-1,15
 148 213 148 213 160 285 c 0,16,17
 172 354 172 354 187 411 c 128,-1,18
 202 468 202 468 226 515 c 256,19,20
 249 562 249 562 278 598.5 c 128,-1,21
 307 635 307 635 340 660 c 0,22,23
 370 682 370 682 407.5 697.5 c 128,-1,24
 445 713 445 713 493 715 c 0,25,26
 541 713 541 713 572.5 705 c 128,-1,27
 604 697 604 697 625 676 c 1,28,-1
 666 735 l 1,29,-1
 712 735 l 1,30,-1
 649 646 l 1,31,32
 651 640 651 640 654 634.5 c 128,-1,33
 657 629 657 629 660 624 c 0,34,35
 681 581 681 581 685.5 529.5 c 128,-1,36
 690 478 690 478 678 403 c 0,0,1
200 288 m 0,37,38
 191 232 191 232 195.5 183 c 128,-1,39
 200 134 200 134 220 97 c 1,40,-1
 603 646 l 1,41,42
 587 666 587 666 559 677 c 128,-1,43
 531 688 531 688 489 685 c 0,44,45
 443 685 443 685 405 665.5 c 128,-1,46
 367 646 367 646 336 613.5 c 128,-1,47
 305 581 305 581 281.5 540.5 c 128,-1,48
 258 500 258 500 244 459 c 0,49,50
 229 420 229 420 218 377.5 c 128,-1,51
 207 335 207 335 200 288 c 0,37,38
599 241 m 0,52,53
 612 283 612 283 620.5 322.5 c 128,-1,54
 629 362 629 362 637 409 c 0,55,56
 644 450 644 450 644 484.5 c 128,-1,57
 644 519 644 519 640 552 c 0,58,59
 637 568 637 568 632.5 582.5 c 128,-1,60
 628 597 628 597 624 609 c 1,61,-1
 244 66 l 1,62,63
 286 23 286 23 362 22 c 0,64,65
 403 21 403 21 441.5 41.5 c 128,-1,66
 480 62 480 62 510.5 94 c 128,-1,67
 541 126 541 126 564 165 c 128,-1,68
 587 204 587 204 599 241 c 0,52,53
EndSplineSet
EndChar
StartChar: Thorn
Encoding: 222 222 159
Width: 622
VWidth: 1467
Flags: W
HStem: 1 21G<95 148.211> 89 39<297.938 421.452> 571 35.5<357.358 395.5 395.5 417.124 417.124 425.427 425.427 503.784>
VStem: 576 46.5<363.518 407.5 407.5 450.681>
Fore
443 609 m 0,0,1
 505 604 505 604 543.5 577 c 128,-1,2
 582 550 582 550 601.5 510 c 128,-1,3
 621 470 621 470 622.5 419 c 128,-1,4
 624 368 624 368 609 318 c 0,5,6
 596 274 596 274 571.5 232.5 c 128,-1,7
 547 191 547 191 514 159.5 c 128,-1,8
 481 128 481 128 440 108.5 c 128,-1,9
 399 89 399 89 354 89 c 0,10,11
 311 89 311 89 283 95 c 128,-1,12
 255 101 255 101 236 110 c 128,-1,13
 217 119 217 119 204 130 c 128,-1,14
 191 141 191 141 176 153 c 1,15,-1
 144 1 l 1,16,-1
 95 1 l 1,17,-1
 244 697 l 1,18,-1
 291 697 l 1,19,-1
 258 541 l 1,20,21
 274 560 274 560 301.5 573.5 c 128,-1,22
 329 587 329 587 356.5 595 c 128,-1,23
 384 603 384 603 407.5 606.5 c 128,-1,24
 431 610 431 610 443 609 c 0,0,1
562 323 m 0,25,26
 575 365 575 365 576 407.5 c 128,-1,27
 577 450 577 450 562 485.5 c 128,-1,28
 547 521 547 521 516.5 545 c 128,-1,29
 486 569 486 569 437 575 c 0,30,31
 420 577 420 577 395.5 571 c 128,-1,32
 371 565 371 565 344 553 c 128,-1,33
 317 541 317 541 290.5 523 c 128,-1,34
 264 505 264 505 245 481 c 1,35,-1
 186 202 l 1,36,37
 213 170 213 170 251 147.5 c 128,-1,38
 289 125 289 125 352 128 c 0,39,40
 389 129 389 129 422.5 145 c 128,-1,41
 456 161 456 161 483.5 188.5 c 128,-1,42
 511 216 511 216 530.5 250.5 c 128,-1,43
 550 285 550 285 562 323 c 0,25,26
EndSplineSet
EndChar
StartChar: uni00DF
Encoding: 223 223 160
Width: 715
VWidth: 1467
Flags: W
HStem: -141 38<-16 51.417> -19 38<293 448.404> 389 41<420 519.301> 656 37<366.732 614.051>
Fore
540 408 m 1,0,1
 565 402 565 402 595 388 c 128,-1,2
 625 374 625 374 648 349 c 128,-1,3
 671 324 671 324 682.5 286 c 128,-1,4
 694 248 694 248 681 194 c 0,5,6
 666 126 666 126 633 84.5 c 128,-1,7
 600 43 600 43 559.5 20 c 128,-1,8
 519 -3 519 -3 476.5 -11 c 128,-1,9
 434 -19 434 -19 401 -19 c 2,10,-1
 286 -19 l 1,11,-1
 293 19 l 1,12,-1
 418 19 l 2,13,14
 447 19 447 19 480.5 27 c 128,-1,15
 514 35 514 35 544.5 55 c 128,-1,16
 575 75 575 75 598.5 110 c 128,-1,17
 622 145 622 145 634 198 c 0,18,19
 643 242 643 242 631 276.5 c 128,-1,20
 619 311 619 311 595.5 335 c 128,-1,21
 572 359 572 359 542 372.5 c 128,-1,22
 512 386 512 386 484 389 c 2,23,-1
 411 389 l 1,24,-1
 420 430 l 1,25,-1
 493 430 l 2,26,27
 515 430 515 430 537.5 439.5 c 128,-1,28
 560 449 560 449 580 466 c 128,-1,29
 600 483 600 483 615.5 504 c 128,-1,30
 631 525 631 525 635 547 c 0,31,32
 644 593 644 593 622 625 c 128,-1,33
 600 657 600 657 555 656 c 2,34,-1
 439 656 l 2,35,36
 383 657 383 657 350 619 c 128,-1,37
 317 581 317 581 301 508 c 0,38,39
 288 442 288 442 273 371.5 c 128,-1,40
 258 301 258 301 245 239.5 c 128,-1,41
 232 178 232 178 222.5 131.5 c 128,-1,42
 213 85 213 85 208 67 c 0,43,44
 198 7 198 7 182.5 -33 c 128,-1,45
 167 -73 167 -73 142 -97.5 c 128,-1,46
 117 -122 117 -122 82 -131.5 c 128,-1,47
 47 -141 47 -141 -1 -141 c 2,48,-1
 -25 -141 l 1,49,-1
 -16 -103 l 1,50,-1
 3 -103 l 2,51,52
 44 -103 44 -103 72 -91 c 128,-1,53
 100 -79 100 -79 117.5 -58.5 c 128,-1,54
 135 -38 135 -38 145.5 -6.5 c 128,-1,55
 156 25 156 25 164 65 c 2,56,-1
 258 512 l 2,57,58
 261 524 261 524 268.5 553 c 128,-1,59
 276 582 276 582 295 613 c 128,-1,60
 314 644 314 644 347 668.5 c 128,-1,61
 380 693 380 693 436 693 c 2,62,-1
 563 693 l 2,63,64
 629 693 629 693 660 652.5 c 128,-1,65
 691 612 691 612 678 550 c 0,66,67
 668 502 668 502 629 461.5 c 128,-1,68
 590 421 590 421 540 408 c 1,0,1
EndSplineSet
EndChar
StartChar: ae
Encoding: 230 230 167
Width: 962
VWidth: 1467
Flags: W
HStem: 238 39<541 766.669 766.669 818.584> 492.5 39.5<322.842 422.843 723.803 809.125>
VStem: 916 45<314.941 364 364 409.17>
Fore
568 70 m 0,0,1
 593 53 593 53 634 46.5 c 128,-1,2
 675 40 675 40 719 45 c 128,-1,3
 763 50 763 50 803.5 70.5 c 128,-1,4
 844 91 844 91 867 129 c 1,5,-1
 904 113 l 1,6,7
 873 69 873 69 821.5 44 c 128,-1,8
 770 19 770 19 715 11.5 c 128,-1,9
 660 4 660 4 609.5 12.5 c 128,-1,10
 559 21 559 21 527 43 c 0,11,12
 525 44 525 44 518.5 49 c 128,-1,13
 512 54 512 54 505.5 61.5 c 128,-1,14
 499 69 499 69 492.5 77 c 128,-1,15
 486 85 486 85 484 92 c 0,16,17
 484 94 484 94 450 72 c 0,18,19
 434 62 434 62 407 47 c 128,-1,20
 380 32 380 32 345.5 21 c 128,-1,21
 311 10 311 10 270.5 5 c 128,-1,22
 230 0 230 0 189 9 c 0,23,24
 136 21 136 21 111.5 54 c 128,-1,25
 87 87 87 87 100 145 c 0,26,27
 110 195 110 195 141 222 c 128,-1,28
 172 249 172 249 212 263 c 128,-1,29
 252 277 252 277 298.5 284 c 128,-1,30
 345 291 345 291 386 299 c 0,31,32
 399 302 399 302 419 308.5 c 128,-1,33
 439 315 439 315 458.5 326 c 128,-1,34
 478 337 478 337 493 350.5 c 128,-1,35
 508 364 508 364 512 380 c 0,36,37
 516 401 516 401 509 424 c 128,-1,38
 502 447 502 447 483 464 c 0,39,40
 461 483 461 483 424 489.5 c 128,-1,41
 387 496 387 496 345.5 492.5 c 128,-1,42
 304 489 304 489 260 476.5 c 128,-1,43
 216 464 216 464 180 447 c 1,44,-1
 200 494 l 1,45,46
 239 512 239 512 282.5 521.5 c 128,-1,47
 326 531 326 531 367.5 532 c 128,-1,48
 409 533 409 533 447.5 524.5 c 128,-1,49
 486 516 486 516 515 500 c 0,50,51
 546 483 546 483 559 452 c 1,52,53
 585 477 585 477 622 496 c 0,54,55
 654 512 654 512 691 521.5 c 128,-1,56
 728 531 728 531 765.5 531 c 128,-1,57
 803 531 803 531 838 522.5 c 128,-1,58
 873 514 873 514 902 494 c 256,59,60
 932 475 932 475 949.5 441.5 c 128,-1,61
 967 408 967 408 961 368 c 0,62,63
 954 326 954 326 939 300 c 128,-1,64
 924 274 924 274 896.5 260 c 128,-1,65
 869 246 869 246 825.5 242 c 128,-1,66
 782 238 782 238 719 238 c 2,67,-1
 533 238 l 1,68,-1
 515 156 l 1,69,70
 516 131 516 131 531 109 c 128,-1,71
 546 87 546 87 568 70 c 0,0,1
651 468 m 0,72,73
 622 452 622 452 598.5 430.5 c 128,-1,74
 575 409 575 409 563 383 c 1,75,76
 563 380 563 380 562 379 c 1,77,-1
 541 277 l 1,78,-1
 728 277 l 2,79,80
 772 277 772 277 805 278 c 128,-1,81
 838 279 838 279 860.5 287.5 c 128,-1,82
 883 296 883 296 896.5 314 c 128,-1,83
 910 332 910 332 916 364 c 0,84,85
 921 392 921 392 908.5 419.5 c 128,-1,86
 896 447 896 447 876 462 c 0,87,88
 854 480 854 480 825.5 488 c 128,-1,89
 797 496 797 496 767 496 c 128,-1,90
 737 496 737 496 706.5 488.5 c 128,-1,91
 676 481 676 481 651 468 c 0,72,73
500 313 m 1,92,93
 468 292 468 292 440 281 c 128,-1,94
 412 270 412 270 379 264 c 256,95,96
 345 258 345 258 306.5 251 c 128,-1,97
 268 244 268 244 234.5 231.5 c 128,-1,98
 201 219 201 219 175.5 198.5 c 128,-1,99
 150 178 150 178 144 145 c 0,100,101
 135 106 135 106 152.5 78.5 c 128,-1,102
 170 51 170 51 208 47 c 0,103,104
 257 40 257 40 294.5 45.5 c 128,-1,105
 332 51 332 51 362 63.5 c 128,-1,106
 392 76 392 76 415.5 92.5 c 128,-1,107
 439 109 439 109 459 122 c 1,108,-1
 500 313 l 1,92,93
EndSplineSet
EndChar
StartChar: igrave
Encoding: 236 236 173
Width: 286
VWidth: 1467
Flags: W
HStem: 0 21G<106.984 151> 591 21G<237.405 298>
VStem: 103 195<0 591 1.53064e-18 1.53064e-18>
Fore
103 0 m 1,0,-1
 151 0 l 1,1,-1
 249 497 l 1,2,-1
 202 497 l 1,3,-1
 103 0 l 1,0,-1
251 591 m 1,4,-1
 147 744 l 1,5,-1
 223 744 l 1,6,-1
 298 591 l 1,7,-1
 251 591 l 1,4,-1
EndSplineSet
Ligature2: "'liga' Standard Ligatures in Latin lookup 19 subtable" i gravecomb
EndChar
StartChar: iacute
Encoding: 237 237 174
Width: 286
VWidth: 1467
Flags: W
HStem: 0 21G<106.984 151> 590 21G<208 282.579>
VStem: 103 322<0 742 1.53064e-18 1.53064e-18>
Fore
103 0 m 1,0,-1
 151 0 l 1,1,-1
 249 497 l 1,2,-1
 202 497 l 1,3,-1
 103 0 l 1,0,-1
261 590 m 1,4,-1
 208 590 l 1,5,-1
 345 742 l 1,6,-1
 425 742 l 1,7,-1
 261 590 l 1,4,-1
EndSplineSet
Ligature2: "'liga' Standard Ligatures in Latin lookup 19 subtable" i acutecomb
EndChar
StartChar: icircumflex
Encoding: 238 238 175
Width: 286
VWidth: 1467
Flags: W
HStem: 0 21G<103 154.944> 591 21G<123 203.5 332.5 405>
VStem: 103 302<0 591 1.53064e-18 1.53064e-18>
Fore
202 497 m 1,0,-1
 249 497 l 1,1,-1
 151 0 l 1,2,-1
 103 0 l 1,3,-1
 202 497 l 1,0,-1
123 591 m 1,4,5
 136 599 136 599 161 616.5 c 128,-1,6
 186 634 186 634 212.5 656.5 c 128,-1,7
 239 679 239 679 262.5 704 c 128,-1,8
 286 729 286 729 298 751 c 1,9,10
 307 713 307 713 337.5 669 c 128,-1,11
 368 625 368 625 405 591 c 1,12,-1
 345 591 l 1,13,14
 320 615 320 615 306.5 641.5 c 128,-1,15
 293 668 293 668 288 684 c 1,16,17
 277 668 277 668 248 638.5 c 128,-1,18
 219 609 219 609 188 591 c 1,19,-1
 123 591 l 1,4,5
EndSplineSet
EndChar
StartChar: idieresis
Encoding: 239 239 176
Width: 278
VWidth: 1467
Flags: W
HStem: 0 21G<103 154.944> 587 21G<149.5 167 336 353.5>
VStem: 132 75<618.148 660.577 660.577 679.468> 318.5 74.5<603 680>
Fore
202 497 m 1,0,-1
 249 497 l 1,1,-1
 151 0 l 1,2,-1
 103 0 l 1,3,-1
 202 497 l 1,0,-1
367 695 m 1,4,5
 384 697 384 697 393 680 c 128,-1,6
 402 663 402 663 396 641 c 0,7,8
 392 619 392 619 377 603 c 128,-1,9
 362 587 362 587 345 587 c 256,10,11
 327 587 327 587 318.5 603 c 128,-1,12
 310 619 310 619 315 641 c 256,13,14
 321 663 321 663 336 680 c 128,-1,15
 351 697 351 697 367 695 c 1,4,5
180 695 m 1,16,17
 198 697 198 697 207 680 c 128,-1,18
 216 663 216 663 210 641 c 0,19,20
 205 619 205 619 190.5 603 c 128,-1,21
 176 587 176 587 158 587 c 256,22,23
 141 587 141 587 132 603 c 128,-1,24
 123 619 123 619 129 641 c 256,25,26
 135 663 135 663 149.5 680 c 128,-1,27
 164 697 164 697 180 695 c 1,16,17
EndSplineSet
EndChar
StartChar: eth
Encoding: 240 240 177
Width: 664
VWidth: 1467
Flags: W
HStem: -2.5 30.5<233.781 257.5 274 296.759 296.759 313.575 305.167 411.468> 370 36<345.902 486.627> 684 20G<398 466.5>
VStem: 577 47<220.086 285>
Fore
624 286 m 0,0,1
 626 236 626 236 615 192 c 0,2,3
 607 154 607 154 591 124.5 c 128,-1,4
 575 95 575 95 552 72 c 0,5,6
 508 29 508 29 443 9 c 0,7,8
 386 -9 386 -9 321 -9 c 0,9,10
 285 -9 285 -9 257.5 -2.5 c 128,-1,11
 230 4 230 4 198 21 c 0,12,13
 150 48 150 48 131 101 c 0,14,15
 123 126 123 126 120 152.5 c 128,-1,16
 117 179 117 179 125 210 c 0,17,18
 131 236 131 236 142 260.5 c 128,-1,19
 153 285 153 285 167 307 c 0,20,21
 201 352 201 352 252 376 c 0,22,23
 279 389 279 389 318 397.5 c 128,-1,24
 357 406 357 406 395 406 c 0,25,26
 450 408 450 408 495.5 391 c 128,-1,27
 541 374 541 374 566 357 c 1,28,29
 562 373 562 373 557.5 390.5 c 128,-1,30
 553 408 553 408 546 425 c 0,31,32
 537 450 537 450 526.5 476.5 c 128,-1,33
 516 503 516 503 503 530 c 1,34,-1
 352 468 l 1,35,-1
 343 509 l 1,36,-1
 484 565 l 1,37,38
 467 600 467 600 445 634.5 c 128,-1,39
 423 669 423 669 398 704 c 1,40,-1
 456 704 l 1,41,42
 477 671 477 671 494 640.5 c 128,-1,43
 511 610 511 610 527 582 c 1,44,-1
 663 637 l 1,45,-1
 672 597 l 1,46,-1
 546 546 l 1,47,48
 547 540 547 540 550 531 c 1,49,50
 571 493 571 493 584 459 c 128,-1,51
 597 425 597 425 604 396 c 0,52,53
 613 365 613 365 617.5 337.5 c 128,-1,54
 622 310 622 310 624 286 c 0,0,1
524 103 m 0,55,56
 560 147 560 147 571 198 c 0,57,58
 580 235 580 235 577 285 c 1,59,60
 544 326 544 326 490 347 c 128,-1,61
 436 368 436 368 384 370 c 0,62,63
 337 371 337 371 300 361.5 c 128,-1,64
 263 352 263 352 236 329 c 0,65,66
 183 285 183 285 169 216 c 0,67,68
 158 164 158 164 172 119 c 0,69,70
 178 97 178 97 191.5 79.5 c 128,-1,71
 205 62 205 62 226 47 c 0,72,73
 246 35 246 35 274 28 c 128,-1,74
 302 21 302 21 337 21 c 0,75,76
 364 21 364 21 391 26 c 128,-1,77
 418 31 418 31 440 41 c 0,78,79
 490 63 490 63 524 103 c 0,55,56
EndSplineSet
EndChar
StartChar: divide
Encoding: 247 247 184
Width: 629
VWidth: 1467
Flags: W
HStem: 261 44<100 634>
VStem: 293.5 79<68 150.5> 368 79.5<420 502.5>
Fore
89 261 m 1,0,-1
 100 305 l 1,1,-1
 644 305 l 1,2,-1
 634 261 l 1,3,-1
 89 261 l 1,0,-1
346 166 m 1,4,5
 364 167 364 167 372.5 150.5 c 128,-1,6
 381 134 381 134 376 109 c 0,7,8
 371 85 371 85 355 68 c 128,-1,9
 339 51 339 51 321 51 c 0,10,11
 302 51 302 51 293.5 68 c 128,-1,12
 285 85 285 85 291 109 c 0,13,14
 296 134 296 134 312.5 150.5 c 128,-1,15
 329 167 329 167 346 166 c 1,4,5
421 518 m 1,16,17
 439 519 439 519 447.5 502.5 c 128,-1,18
 456 486 456 486 450 461 c 0,19,20
 446 437 446 437 430 420 c 128,-1,21
 414 403 414 403 396 403 c 0,22,23
 377 403 377 403 368 420 c 128,-1,24
 359 437 359 437 365 461 c 0,25,26
 371 486 371 486 387 502.5 c 128,-1,27
 403 519 403 519 421 518 c 1,16,17
EndSplineSet
EndChar
StartChar: oslash
Encoding: 248 248 185
Width: 625
VWidth: 1467
Flags: W
HStem: -10.5 37<240.158 410.14> 476.5 36.5<315.86 450.335>
VStem: 123 486<175 327 215.361 245.741>
Fore
547 480 m 1,0,1
 585 458 585 458 603 419.5 c 128,-1,2
 621 381 621 381 609 327 c 2,3,-1
 577 175 l 2,4,5
 563 114 563 114 522 73 c 128,-1,6
 481 32 481 32 428.5 11.5 c 128,-1,7
 376 -9 376 -9 318.5 -10.5 c 128,-1,8
 261 -12 261 -12 216 7 c 1,9,-1
 170 -56 l 1,10,-1
 138 -40 l 1,11,-1
 182 25 l 1,12,13
 147 47 147 47 130 84.5 c 128,-1,14
 113 122 113 122 123 175 c 0,15,16
 129 208 129 208 137 250.5 c 128,-1,17
 145 293 145 293 153 327 c 0,18,19
 166 386 166 386 206 427 c 128,-1,20
 246 468 246 468 299 489.5 c 128,-1,21
 352 511 352 511 409.5 513 c 128,-1,22
 467 515 467 515 514 497 c 1,23,-1
 559 565 l 1,24,-1
 593 544 l 1,25,-1
 547 480 l 1,0,1
173 194 m 0,26,27
 163 148 163 148 173 115 c 128,-1,28
 183 82 183 82 207 62 c 1,29,-1
 487 462 l 1,30,31
 450 478 450 478 404 476.5 c 128,-1,32
 358 475 358 475 314.5 456 c 128,-1,33
 271 437 271 437 238 400.5 c 128,-1,34
 205 364 205 364 194 310 c 0,35,36
 192 302 192 302 190 286.5 c 128,-1,37
 188 271 188 271 184 253.5 c 128,-1,38
 180 236 180 236 177.5 219 c 128,-1,39
 175 202 175 202 173 194 c 0,26,27
536 194 m 0,40,41
 540 216 540 216 542 224 c 128,-1,42
 544 232 544 232 545 239 c 128,-1,43
 546 246 546 246 549 260 c 128,-1,44
 552 274 552 274 559 308 c 0,45,46
 568 355 568 355 556 388 c 128,-1,47
 544 421 544 421 519 442 c 1,48,-1
 239 43 l 1,49,50
 276 25 276 25 322 26.5 c 128,-1,51
 368 28 368 28 411.5 47 c 128,-1,52
 455 66 455 66 488.5 102.5 c 128,-1,53
 522 139 522 139 536 194 c 0,40,41
EndSplineSet
EndChar
StartChar: thorn
Encoding: 254 254 191
Width: 638
VWidth: 1467
Flags: W
HStem: -213 21G<54 104.259> -13 38<278.938 401.968> 468 36<336.874 376 376 397.411 397.411 405.427 405.427 486.178>
VStem: 555.5 46<261.415 305.5 305.5 381.904>
Fore
423 506 m 0,0,1
 484 502 484 502 523 474.5 c 128,-1,2
 562 447 562 447 581 407 c 128,-1,3
 600 367 600 367 601.5 316.5 c 128,-1,4
 603 266 603 266 588 216 c 0,5,6
 575 172 575 172 551 130 c 128,-1,7
 527 88 527 88 494.5 56.5 c 128,-1,8
 462 25 462 25 421 6 c 128,-1,9
 380 -13 380 -13 335 -13 c 0,10,11
 292 -13 292 -13 264 -7 c 128,-1,12
 236 -1 236 -1 216.5 7.5 c 128,-1,13
 197 16 197 16 183.5 27 c 128,-1,14
 170 38 170 38 156 50 c 1,15,-1
 100 -213 l 1,16,-1
 54 -213 l 1,17,-1
 245 694 l 1,18,-1
 292 694 l 1,19,-1
 238 439 l 1,20,21
 254 458 254 458 281 471 c 128,-1,22
 308 484 308 484 336 492 c 128,-1,23
 364 500 364 500 387.5 504 c 128,-1,24
 411 508 411 508 423 506 c 0,0,1
541 220 m 0,25,26
 555 263 555 263 555.5 305.5 c 128,-1,27
 556 348 556 348 542 383 c 128,-1,28
 528 418 528 418 497.5 442.5 c 128,-1,29
 467 467 467 467 417 472 c 0,30,31
 401 474 401 474 376 468 c 128,-1,32
 351 462 351 462 323.5 450.5 c 128,-1,33
 296 439 296 439 270 420.5 c 128,-1,34
 244 402 244 402 224 379 c 1,35,-1
 166 100 l 1,36,37
 192 67 192 67 230 44.5 c 128,-1,38
 268 22 268 22 332 25 c 0,39,40
 370 26 370 26 403 42.5 c 128,-1,41
 436 59 436 59 463 86 c 128,-1,42
 490 113 490 113 510 147.5 c 128,-1,43
 530 182 530 182 541 220 c 0,25,26
EndSplineSet
EndChar
StartChar: Lslash
Encoding: 321 321 193
Width: 517
VWidth: 1467
Flags: W
HStem: 0 50<151 497> 482 20G<378 394.636> 690 20G<228.69 292>
VStem: 40 460<50 241 341.66 422.252>
Fore
89 0 m 1,0,-1
 147 310 l 1,1,2
 120 293 120 293 92.5 275 c 128,-1,3
 65 257 65 257 40 241 c 1,4,-1
 51 293 l 1,5,-1
 158 362 l 1,6,-1
 233 710 l 1,7,-1
 292 710 l 1,8,-1
 224 398 l 1,9,10
 267 423 267 423 312 450 c 128,-1,11
 357 477 357 477 399 502 c 1,12,-1
 387 447 l 1,13,-1
 213 345 l 1,14,-1
 151 50 l 1,15,-1
 500 50 l 1,16,-1
 497 0 l 1,17,-1
 89 0 l 1,0,-1
EndSplineSet
EndChar
StartChar: lslash
Encoding: 322 322 194
Width: 237
VWidth: 1467
Flags: W
HStem: 0 21G<89 150.812> 482 20G<309.5 315.714>
VStem: 67 253<280 502 740.896 817.558>
Fore
220 383 m 1,0,-1
 147 0 l 1,1,-1
 89 0 l 1,2,-1
 154 343 l 1,3,4
 134 329 134 329 111 312 c 128,-1,5
 88 295 88 295 67 280 c 1,6,-1
 79 336 l 1,7,-1
 166 396 l 1,8,-1
 244 756 l 1,9,-1
 301 756 l 1,10,-1
 232 442 l 1,11,12
 252 456 252 456 275.5 471.5 c 128,-1,13
 299 487 299 487 320 502 c 1,14,-1
 308 446 l 1,15,-1
 220 383 l 1,0,-1
EndSplineSet
EndChar
StartChar: OE
Encoding: 338 338 195
Width: 1016
VWidth: 1467
Flags: W
HStem: -12 37<209.013 240.5 240.5 296.766 296.766 316.938 316.938 342.5 361.5 446.375 690.899 933> 315 40<597 891> 669 38<339.119 495.375 824.403 1077>
Fore
874 669 m 2,0,1
 833 669 833 669 793 660 c 128,-1,2
 753 651 753 651 718.5 627 c 128,-1,3
 684 603 684 603 656.5 559.5 c 128,-1,4
 629 516 629 516 616 446 c 2,5,-1
 597 355 l 1,6,-1
 899 355 l 1,7,-1
 891 315 l 1,8,-1
 588 315 l 1,9,-1
 575 249 l 2,10,11
 559 179 559 179 567 135.5 c 128,-1,12
 575 92 575 92 599.5 68 c 128,-1,13
 624 44 624 44 660.5 34.5 c 128,-1,14
 697 25 697 25 738 25 c 2,15,-1
 940 25 l 1,16,-1
 933 -12 l 1,17,-1
 734 -12 l 2,18,19
 668 -10 668 -10 616.5 3 c 128,-1,20
 565 16 565 16 538 59 c 1,21,22
 500 25 500 25 448 6.5 c 128,-1,23
 396 -12 396 -12 342.5 -15.5 c 128,-1,24
 289 -19 289 -19 240.5 -10 c 128,-1,25
 192 -1 192 -1 163 19 c 256,26,27
 134 40 134 40 115.5 70 c 128,-1,28
 97 100 97 100 104 138 c 2,29,-1
 197 560 l 2,30,31
 204 599 204 599 235 629 c 128,-1,32
 266 659 266 659 304 678 c 0,33,34
 340 697 340 697 392.5 706.5 c 128,-1,35
 445 716 445 716 497 712.5 c 128,-1,36
 549 709 549 709 593.5 690.5 c 128,-1,37
 638 672 638 672 662 638 c 1,38,39
 706 681 706 681 763 693.5 c 128,-1,40
 820 706 820 706 886 707 c 2,41,-1
 1086 707 l 1,42,-1
 1077 669 l 1,43,-1
 874 669 l 2,0,1
205 48 m 0,44,45
 230 31 230 31 272.5 23.5 c 128,-1,46
 315 16 315 16 361.5 20.5 c 128,-1,47
 408 25 408 25 452 43.5 c 128,-1,48
 496 62 496 62 522 95 c 1,49,50
 515 123 515 123 515.5 161.5 c 128,-1,51
 516 200 516 200 528 251 c 2,52,-1
 569 445 l 2,53,54
 591 546 591 546 631 602 c 1,55,56
 619 635 619 635 583 653.5 c 128,-1,57
 547 672 547 672 501.5 677 c 128,-1,58
 456 682 456 682 410.5 675 c 128,-1,59
 365 668 365 668 333 650 c 0,60,61
 299 631 299 631 272 602.5 c 128,-1,62
 245 574 245 574 238 541 c 2,63,-1
 156 157 l 2,64,65
 148 123 148 123 163.5 94.5 c 128,-1,66
 179 66 179 66 205 48 c 0,44,45
EndSplineSet
EndChar
StartChar: oe
Encoding: 339 339 196
Width: 1009
VWidth: 1467
Flags: W
HStem: 216 39<580 806.7 806.7 859.584> 474 35<764.803 850.125>
VStem: 957 45<292.941 302 342 386.307>
Fore
990 305 m 1,0,-1
 987 305 l 1,1,-1
 986 302 l 1,2,-1
 990 305 l 1,0,-1
609 48 m 0,3,4
 634 31 634 31 675 24.5 c 128,-1,5
 716 18 716 18 760 23 c 128,-1,6
 804 28 804 28 844.5 48.5 c 128,-1,7
 885 69 885 69 908 107 c 1,8,-1
 945 91 l 1,9,10
 913 47 913 47 862 22 c 128,-1,11
 811 -3 811 -3 756 -10.5 c 128,-1,12
 701 -18 701 -18 650 -9.5 c 128,-1,13
 599 -1 599 -1 566 21 c 0,14,15
 550 32 550 32 536 46 c 128,-1,16
 522 60 522 60 515 78 c 1,17,18
 483 41 483 41 437.5 19 c 128,-1,19
 392 -3 392 -3 343.5 -10.5 c 128,-1,20
 295 -18 295 -18 248 -10.5 c 128,-1,21
 201 -3 201 -3 166.5 20 c 128,-1,22
 132 43 132 43 114.5 80 c 128,-1,23
 97 117 97 117 107 170 c 0,24,25
 114 204 114 204 121.5 246.5 c 128,-1,26
 129 289 129 289 136 323 c 0,27,28
 148 376 148 376 181 413 c 128,-1,29
 214 450 214 450 259 473 c 128,-1,30
 304 496 304 496 354.5 504 c 128,-1,31
 405 512 405 512 451 504.5 c 128,-1,32
 497 497 497 497 533 474.5 c 128,-1,33
 569 452 569 452 587 415 c 1,34,35
 602 433 602 433 622.5 447.5 c 128,-1,36
 643 462 643 462 663 474 c 0,37,38
 695 490 695 490 732 499.5 c 128,-1,39
 769 509 769 509 806.5 509 c 128,-1,40
 844 509 844 509 879 500.5 c 128,-1,41
 914 492 914 492 943 472 c 0,42,43
 971 453 971 453 988.5 419.5 c 128,-1,44
 1006 386 1006 386 1002 346 c 0,45,46
 995 304 995 304 980 278 c 128,-1,47
 965 252 965 252 937.5 238 c 128,-1,48
 910 224 910 224 866.5 220 c 128,-1,49
 823 216 823 216 760 216 c 2,50,-1
 572 216 l 1,51,-1
 559 156 l 2,52,53
 552 123 552 123 567 95 c 128,-1,54
 582 67 582 67 609 48 c 0,3,4
580 255 m 1,55,-1
 767 255 l 2,56,57
 813 255 813 255 846 256 c 128,-1,58
 879 257 879 257 901.5 265.5 c 128,-1,59
 924 274 924 274 937.5 292 c 128,-1,60
 951 310 951 310 957 342 c 0,61,62
 961 370 961 370 949.5 397.5 c 128,-1,63
 938 425 938 425 917 440 c 0,64,65
 895 458 895 458 866.5 466 c 128,-1,66
 838 474 838 474 808 474 c 128,-1,67
 778 474 778 474 747.5 466.5 c 128,-1,68
 717 459 717 459 693 446 c 0,69,70
 659 427 659 427 632.5 399 c 128,-1,71
 606 371 606 371 599 339 c 2,72,-1
 580 255 l 1,55,-1
156 189 m 0,73,74
 144 134 144 134 162 96.5 c 128,-1,75
 180 59 180 59 216 40.5 c 128,-1,76
 252 22 252 22 299 22 c 128,-1,77
 346 22 346 22 390 40.5 c 128,-1,78
 434 59 434 59 469.5 95.5 c 128,-1,79
 505 132 505 132 518 186 c 2,80,-1
 544 307 l 2,81,82
 555 362 555 362 535 399 c 128,-1,83
 515 436 515 436 478.5 454 c 128,-1,84
 442 472 442 472 395 472 c 128,-1,85
 348 472 348 472 304 453 c 128,-1,86
 260 434 260 434 225.5 397.5 c 128,-1,87
 191 361 191 361 179 305 c 0,88,89
 178 298 178 298 174 282.5 c 128,-1,90
 170 267 170 267 167 249.5 c 128,-1,91
 164 232 164 232 160.5 215 c 128,-1,92
 157 198 157 198 156 189 c 0,73,74
EndSplineSet
EndChar
StartChar: florin
Encoding: 402 402 202
Width: 431
VWidth: 1467
Flags: W
HStem: 377 35<123 210 268 396> 662 38<448.221 518>
Fore
531 700 m 1,0,-1
 518 662 l 1,1,-1
 492 662 l 2,2,3
 445 662 445 662 414 651 c 128,-1,4
 383 640 383 640 361 619.5 c 128,-1,5
 339 599 339 599 324.5 568.5 c 128,-1,6
 310 538 310 538 298 499 c 2,7,-1
 285 459 l 1,8,-1
 268 412 l 1,9,-1
 403 412 l 1,10,-1
 396 377 l 1,11,-1
 257 377 l 1,12,-1
 150 57 l 1,13,-1
 117 -28 l 2,14,15
 107 -48 107 -48 88.5 -65 c 128,-1,16
 70 -82 70 -82 50 -89 c 1,17,18
 44 -84 44 -84 36.5 -77 c 128,-1,19
 29 -70 29 -70 23 -60 c 1,20,21
 53 -41 53 -41 67 -23.5 c 128,-1,22
 81 -6 81 -6 88 18 c 2,23,-1
 210 377 l 1,24,-1
 116 377 l 1,25,-1
 123 412 l 1,26,-1
 222 412 l 1,27,-1
 249 493 l 2,28,29
 268 552 268 552 290.5 591.5 c 128,-1,30
 313 631 313 631 342 655 c 128,-1,31
 371 679 371 679 410.5 689.5 c 128,-1,32
 450 700 450 700 506 700 c 2,33,-1
 531 700 l 1,0,-1
EndSplineSet
EndChar
StartChar: circumflex
Encoding: 710 710 203
Width: 490
VWidth: 1467
Flags: W
HStem: 697 160<244 418 418 418>
VStem: 244 281<697 697 697 697>
Fore
244 697 m 1,0,1
 257 704 257 704 282 721.5 c 128,-1,2
 307 739 307 739 333 762 c 128,-1,3
 359 785 359 785 382.5 810 c 128,-1,4
 406 835 406 835 418 857 c 1,5,6
 427 819 427 819 458 775 c 128,-1,7
 489 731 489 731 525 697 c 1,8,-1
 465 697 l 1,9,10
 440 720 440 720 427 746.5 c 128,-1,11
 414 773 414 773 408 789 c 1,12,13
 398 773 398 773 368.5 744 c 128,-1,14
 339 715 339 715 308 697 c 1,15,-1
 244 697 l 1,0,1
EndSplineSet
EndChar
StartChar: caron
Encoding: 711 711 204
Width: 490
VWidth: 1467
Flags: W
HStem: 698 160<386 560 560 560>
VStem: 279 281<858 858 858 858>
Fore
560 858 m 1,0,1
 547 851 547 851 522 834 c 128,-1,2
 497 817 497 817 471 794.5 c 128,-1,3
 445 772 445 772 421.5 746 c 128,-1,4
 398 720 398 720 386 698 c 1,5,6
 376 738 376 738 345.5 781.5 c 128,-1,7
 315 825 315 825 279 858 c 1,8,-1
 326 858 l 1,9,10
 352 835 352 835 372.5 802 c 128,-1,11
 393 769 393 769 396 753 c 1,12,13
 401 760 401 760 414 774.5 c 128,-1,14
 427 789 427 789 444 804.5 c 128,-1,15
 461 820 461 820 478.5 835 c 128,-1,16
 496 850 496 850 512 858 c 1,17,-1
 560 858 l 1,0,1
EndSplineSet
EndChar
StartChar: breve
Encoding: 728 728 205
Width: 440
VWidth: 1467
Flags: W
HStem: 616 41<291.134 400.346>
VStem: 222 45<722.761 775> 489 45<749.064 775>
Fore
534 775 m 1,0,1
 527 742 527 742 508.5 713.5 c 128,-1,2
 490 685 490 685 464.5 663 c 128,-1,3
 439 641 439 641 408 628.5 c 128,-1,4
 377 616 377 616 343 616 c 0,5,6
 311 616 311 616 284.5 628.5 c 128,-1,7
 258 641 258 641 242.5 663 c 128,-1,8
 227 685 227 685 220.5 713.5 c 128,-1,9
 214 742 214 742 222 775 c 1,10,-1
 267 775 l 1,11,12
 257 725 257 725 280.5 691 c 128,-1,13
 304 657 304 657 352 657 c 256,14,15
 401 657 401 657 439.5 691 c 128,-1,16
 478 725 478 725 489 775 c 1,17,-1
 534 775 l 1,0,1
EndSplineSet
EndChar
StartChar: dotaccent
Encoding: 729 729 206
Width: 231
VWidth: 1467
Flags: W
HStem: 621 114<246.911 272.5>
VStem: 213 78<637.5 720>
Fore
266 735 m 1,0,1
 283 737 283 737 291 720 c 128,-1,2
 299 703 299 703 295 678 c 0,3,4
 289 654 289 654 273 637.5 c 128,-1,5
 257 621 257 621 241 621 c 0,6,7
 222 621 222 621 213 637.5 c 128,-1,8
 204 654 204 654 211 678 c 0,9,10
 216 703 216 703 232 720 c 128,-1,11
 248 737 248 737 266 735 c 1,0,1
EndSplineSet
EndChar
StartChar: ring
Encoding: 730 730 207
Width: 403
VWidth: 1467
Flags: W
HStem: 612 25<295.766 349.125> 759 23<311.113 390.717>
VStem: 249 37<670.534 733.581> 401 35<686.873 724.786>
Fore
362 782 m 2,0,1
 401 782 401 782 422 757 c 128,-1,2
 443 732 443 732 436 697 c 256,3,4
 428 662 428 662 396 637 c 128,-1,5
 364 612 364 612 326 612 c 2,6,-1
 324 612 l 2,7,8
 286 612 286 612 264 637 c 128,-1,9
 242 662 242 662 249 697 c 0,10,11
 257 734 257 734 290 758 c 128,-1,12
 323 782 323 782 361 782 c 2,13,-1
 362 782 l 2,0,1
333 637 m 2,14,15
 343 637 343 637 355 643 c 128,-1,16
 367 649 367 649 376.5 657.5 c 128,-1,17
 386 666 386 666 392.5 677 c 128,-1,18
 399 688 399 688 401 697 c 0,19,20
 405 715 405 715 392 735.5 c 128,-1,21
 379 756 379 756 357 759 c 2,22,-1
 355 759 l 2,23,24
 330 759 330 759 310.5 737 c 128,-1,25
 291 715 291 715 286 697 c 0,26,27
 282 681 282 681 295 659.5 c 128,-1,28
 308 638 308 638 332 637 c 2,29,-1
 333 637 l 2,14,15
EndSplineSet
EndChar
StartChar: tilde
Encoding: 732 732 209
Width: 316
VWidth: 1467
Flags: W
HStem: 599 35<328.507 388.498> 651 39<215.5 247.732>
VStem: 139 33<600.798 644.387>
Fore
447 693 m 1,0,1
 440 650 440 650 410.5 626 c 128,-1,2
 381 602 381 602 345 599 c 0,3,4
 323 597 323 597 308 605 c 128,-1,5
 293 613 293 613 280.5 622.5 c 128,-1,6
 268 632 268 632 257 641.5 c 128,-1,7
 246 651 246 651 233 651 c 0,8,9
 216 653 216 653 197 634 c 128,-1,10
 178 615 178 615 172 594 c 1,11,-1
 139 594 l 1,12,13
 147 632 147 632 175.5 661 c 128,-1,14
 204 690 204 690 236 690 c 0,15,16
 255 690 255 690 268.5 681 c 128,-1,17
 282 672 282 672 294.5 661 c 128,-1,18
 307 650 307 650 319.5 642 c 128,-1,19
 332 634 332 634 348 634 c 0,20,21
 373 635 373 635 389 650.5 c 128,-1,22
 405 666 405 666 414 693 c 1,23,-1
 447 693 l 1,0,1
EndSplineSet
EndChar
StartChar: uni0E01
Encoding: 3585 3585 212
Width: 625
VWidth: 1467
Flags: W
HStem: 0 21G<101 145.766 481 530.697> 550.5 34.5<250.063 358.758 358.758 379.365 379.365 465.483>
VStem: 101 493.5<0 481 -101.477 89.1613>
Fore
249 546 m 1,0,1
 251 543 251 543 259.5 534 c 128,-1,2
 268 525 268 525 278.5 515 c 128,-1,3
 289 505 289 505 296.5 496 c 128,-1,4
 304 487 304 487 304 486 c 2,5,-1
 293 442 l 1,6,7
 288 437 288 437 279.5 432.5 c 128,-1,8
 271 428 271 428 266 423 c 0,9,10
 216 379 216 379 200 308 c 2,11,-1
 142 0 l 1,12,-1
 101 0 l 1,13,-1
 150 267 l 2,14,15
 160 323 160 323 186.5 381 c 128,-1,16
 213 439 213 439 267 471 c 1,17,-1
 204 544 l 1,18,-1
 213 585 l 1,19,-1
 317 585 l 2,20,21
 383 585 383 585 441.5 582.5 c 128,-1,22
 500 580 500 580 540 557 c 128,-1,23
 580 534 580 534 594.5 481 c 128,-1,24
 609 428 609 428 588 330 c 2,25,-1
 527 0 l 1,26,-1
 481 0 l 1,27,-1
 540 333 l 2,28,29
 555 398 555 398 548 439.5 c 128,-1,30
 541 481 541 481 520 504.5 c 128,-1,31
 499 528 499 528 466.5 538.5 c 128,-1,32
 434 549 434 549 396.5 550.5 c 128,-1,33
 359 552 359 552 321 549.5 c 128,-1,34
 283 547 283 547 249 546 c 1,0,1
EndSplineSet
EndChar
StartChar: uni0E02
Encoding: 3586 3586 213
Width: 492
VWidth: 1467
Flags: W
HStem: -7.5 37<174.591 265.766> 564 20G<457.5 514>
VStem: 171 32<400.345 408 408 446.385> 311.5 33.5<502.055 546.655>
Fore
514 584 m 1,0,1
 490 474 490 474 467.5 366 c 128,-1,2
 445 258 445 258 421 148 c 0,3,4
 409 97 409 97 378.5 63 c 128,-1,5
 348 29 348 29 309.5 11.5 c 128,-1,6
 271 -6 271 -6 230 -7.5 c 128,-1,7
 189 -9 189 -9 158 7 c 256,8,9
 128 23 128 23 110 57 c 128,-1,10
 92 91 92 91 104 142 c 0,11,12
 119 210 119 210 154 249.5 c 128,-1,13
 189 289 189 289 224 323 c 0,14,15
 244 342 244 342 260.5 360.5 c 128,-1,16
 277 379 277 379 292 402 c 1,17,18
 279 386 279 386 263.5 376.5 c 128,-1,19
 248 367 248 367 233 362 c 0,20,21
 220 358 220 358 204 362 c 0,22,23
 175 370 175 370 171 408 c 128,-1,24
 167 446 167 446 189 493 c 0,25,26
 205 528 205 528 230 552.5 c 128,-1,27
 255 577 255 577 280 584 c 0,28,29
 295 588 295 588 310 585 c 0,30,31
 329 580 329 580 337.5 560.5 c 128,-1,32
 346 541 346 541 345 515 c 0,33,34
 348 467 348 467 337 433 c 128,-1,35
 326 399 326 399 306 372 c 128,-1,36
 286 345 286 345 262 322 c 128,-1,37
 214 276 l 0,38,39
 194 252 194 252 177 225 c 128,-1,40
 160 198 160 198 153 161 c 0,41,42
 145 126 145 126 150.5 99.5 c 128,-1,43
 156 73 156 73 169 57 c 0,44,45
 188 34 188 34 219.5 29.5 c 128,-1,46
 251 25 251 25 282.5 39 c 128,-1,47
 314 53 314 53 341 86 c 128,-1,48
 368 119 368 119 380 170 c 0,49,50
 401 268 401 268 424 376 c 128,-1,51
 447 484 447 484 468 584 c 1,52,-1
 514 584 l 1,0,1
293 462 m 0,53,54
 299 475 299 475 304.5 490.5 c 128,-1,55
 310 506 310 506 311.5 521 c 128,-1,56
 313 536 313 536 309 547 c 128,-1,57
 305 558 305 558 296 560 c 256,58,59
 288 563 288 563 274 556 c 0,60,61
 258 546 258 546 243.5 524.5 c 128,-1,62
 229 503 229 503 220 484 c 0,63,64
 214 471 214 471 209 455.5 c 128,-1,65
 204 440 204 440 203 425.5 c 128,-1,66
 202 411 202 411 205 400 c 128,-1,67
 208 389 208 389 217 386 c 1,68,69
 227 384 227 384 239 392 c 0,70,71
 255 402 255 402 270.5 423.5 c 128,-1,72
 286 445 286 445 293 462 c 0,53,54
EndSplineSet
EndChar
StartChar: uni0E03
Encoding: 3587 3587 214
Width: 569
VWidth: 1467
Flags: W
HStem: -6.5 36.5<262.72 373.094> 573 20G<388.923 424.333 539 596>
VStem: 168.5 427.5<415.5 590 415.5 455.375> 168.5 32.5<407.345 415.5 415.5 455.375>
Fore
373 528 m 1,0,-1
 396 593 l 1,1,-1
 424 593 l 1,2,-1
 425 533 l 2,3,4
 428 484 428 484 417 449 c 128,-1,5
 406 414 406 414 387 386 c 128,-1,6
 368 358 368 358 344 335.5 c 128,-1,7
 320 313 320 313 296.5 288.5 c 128,-1,8
 273 264 273 264 254 234.5 c 128,-1,9
 235 205 235 205 227 166 c 0,10,11
 217 120 217 120 228 90 c 128,-1,12
 239 60 239 60 262 44.5 c 128,-1,13
 285 29 285 29 315 30 c 128,-1,14
 345 31 345 31 374 47 c 128,-1,15
 403 63 403 63 427.5 94.5 c 128,-1,16
 452 126 452 126 462 175 c 0,17,18
 483 276 483 276 505.5 382.5 c 128,-1,19
 528 489 528 489 550 590 c 1,20,-1
 596 590 l 1,21,22
 571 477 571 477 549.5 372 c 128,-1,23
 528 267 528 267 503 153 c 0,24,25
 492 101 492 101 460 66 c 128,-1,26
 428 31 428 31 388.5 12.5 c 128,-1,27
 349 -6 349 -6 307.5 -6.5 c 128,-1,28
 266 -7 266 -7 233.5 9 c 128,-1,29
 201 25 201 25 184 59.5 c 128,-1,30
 167 94 167 94 179 147 c 0,31,32
 189 200 189 200 213.5 235 c 128,-1,33
 238 270 238 270 267 298.5 c 128,-1,34
 296 327 296 327 325.5 355 c 128,-1,35
 355 383 355 383 376 418 c 1,36,37
 386 452 386 452 376.5 469.5 c 128,-1,38
 367 487 367 487 354 500 c 1,39,-1
 346 515 l 1,40,41
 345 490 345 490 329 461 c 0,42,43
 305 414 305 414 268.5 386.5 c 128,-1,44
 232 359 232 359 202 367 c 0,45,46
 173 376 173 376 168.5 415.5 c 128,-1,47
 164 455 164 455 186 502 c 256,48,49
 208 549 208 549 245 576 c 128,-1,50
 282 603 282 603 313 596 c 0,51,52
 330 590 330 590 348.5 567 c 128,-1,53
 367 544 367 544 373 528 c 1,0,-1
219 493 m 0,54,55
 211 480 211 480 206.5 463.5 c 128,-1,56
 202 447 202 447 201 432.5 c 128,-1,57
 200 418 200 418 202.5 407 c 128,-1,58
 205 396 205 396 216 393 c 1,59,60
 224 389 224 389 236 395.5 c 128,-1,61
 248 402 248 402 259 414.5 c 128,-1,62
 270 427 270 427 280.5 441.5 c 128,-1,63
 291 456 291 456 296 470 c 256,64,65
 302 483 302 483 307.5 499 c 128,-1,66
 313 515 313 515 313.5 529.5 c 128,-1,67
 314 544 314 544 311 555 c 128,-1,68
 308 566 308 566 298 569 c 0,69,70
 288 574 288 574 277 566.5 c 128,-1,71
 266 559 266 559 255 547.5 c 128,-1,72
 244 536 244 536 234 521 c 128,-1,73
 224 506 224 506 219 493 c 0,54,55
EndSplineSet
EndChar
StartChar: uni0E04
Encoding: 3588 3588 215
Width: 670
VWidth: 1467
Flags: W
HStem: 213 36<335.332 354 354 362 362 390.531> 333 34.5<354.25 380 380 404.713> 558 32<402.718 506.374>
Fore
621 552 m 0,0,1
 679 512 679 512 662 428 c 2,2,-1
 571 3 l 1,3,-1
 527 3 l 1,4,-1
 615 415 l 2,5,6
 622 453 622 453 615.5 479 c 128,-1,7
 609 505 609 505 581 525 c 0,8,9
 559 541 559 541 524.5 549.5 c 128,-1,10
 490 558 490 558 452 558 c 128,-1,11
 414 558 414 558 376.5 549.5 c 128,-1,12
 339 541 339 541 310 525 c 0,13,14
 271 505 271 505 253.5 478.5 c 128,-1,15
 236 452 236 452 229 415 c 2,16,-1
 204 299 l 1,17,18
 235 327 235 327 274 344 c 128,-1,19
 313 361 313 361 354 365 c 0,20,21
 362 367 362 367 371 367.5 c 128,-1,22
 380 368 380 368 389 367 c 1,23,-1
 395 367 l 2,24,25
 440 364 440 364 467 339.5 c 128,-1,26
 494 315 494 315 486 283 c 0,27,28
 477 252 477 252 439 231.5 c 128,-1,29
 401 211 401 211 355 213 c 0,30,31
 354 213 354 213 354 213.5 c 128,-1,32
 354 214 354 214 352 214 c 0,33,34
 308 217 308 217 281 239 c 128,-1,35
 254 261 254 261 258 291 c 1,36,37
 255 288 255 288 251.5 285.5 c 128,-1,38
 248 283 248 283 245 280 c 0,39,40
 220 257 220 257 201.5 229 c 128,-1,41
 183 201 183 201 176 166 c 2,42,-1
 141 3 l 1,43,-1
 97 3 l 1,44,-1
 188 431 l 2,45,46
 195 468 195 468 219.5 500.5 c 128,-1,47
 244 533 244 533 279 552 c 0,48,49
 315 571 315 571 363 580.5 c 128,-1,50
 411 590 411 590 458.5 590 c 128,-1,51
 506 590 506 590 549.5 580.5 c 128,-1,52
 593 571 593 571 621 552 c 0,0,1
381 333 m 2,53,54
 368 333 368 333 352.5 331.5 c 128,-1,55
 337 330 337 330 322.5 325.5 c 128,-1,56
 308 321 308 321 297 314 c 128,-1,57
 286 307 286 307 283 296 c 256,58,59
 280 286 280 286 286.5 277 c 128,-1,60
 293 268 293 268 305.5 262.5 c 128,-1,61
 318 257 318 257 333 253 c 128,-1,62
 348 249 348 249 361 249 c 0,63,64
 362 249 362 249 362 248 c 1,65,66
 376 248 376 248 391 250 c 128,-1,67
 406 252 406 252 420 256.5 c 128,-1,68
 434 261 434 261 445 268.5 c 128,-1,69
 456 276 456 276 461 286 c 0,70,71
 464 296 464 296 457 304.5 c 128,-1,72
 450 313 450 313 437.5 318.5 c 128,-1,73
 425 324 425 324 410.5 328 c 128,-1,74
 396 332 396 332 384 333 c 2,75,-1
 381 333 l 2,53,54
EndSplineSet
EndChar
StartChar: uni0E05
Encoding: 3589 3589 216
Width: 674
VWidth: 1467
Flags: W
HStem: 0 21G<104 151.429 538 585.906> 224 36<341.437 399.016> 342 35<361.468 410.584> 568 20G<392.5 413 502.5 529>
VStem: 268 25<288.518 305>
Fore
626 553 m 0,0,1
 653 534 653 534 662.5 499 c 128,-1,2
 672 464 672 464 665 425 c 2,3,-1
 582 0 l 1,4,-1
 538 0 l 1,5,-1
 618 408 l 2,6,7
 625 442 625 442 619 471 c 128,-1,8
 613 500 613 500 588 519 c 0,9,10
 577 530 577 530 559 535 c 128,-1,11
 541 540 541 540 521 544 c 1,12,-1
 431 445 l 1,13,-1
 384 543 l 1,14,15
 364 538 364 538 345 533 c 128,-1,16
 326 528 326 528 311 518 c 0,17,18
 242 480 242 480 229 415 c 2,19,-1
 205 308 l 1,20,21
 274 370 274 370 373 377 c 2,22,-1
 396 377 l 1,23,-1
 402 377 l 2,24,25
 449 374 449 374 476 349 c 128,-1,26
 503 324 503 324 494 292 c 0,27,28
 486 263 486 263 448.5 242.5 c 128,-1,29
 411 222 411 222 364 224 c 2,30,-1
 359 224 l 2,31,32
 314 227 314 227 287.5 250.5 c 128,-1,33
 261 274 261 274 268 305 c 1,34,35
 257 298 257 298 246 288 c 0,36,37
 222 267 222 267 203.5 238.5 c 128,-1,38
 185 210 185 210 178 175 c 2,39,-1
 148 0 l 1,40,-1
 104 0 l 1,41,-1
 188 431 l 2,42,43
 195 470 195 470 223 502 c 128,-1,44
 251 534 251 534 288 553 c 0,45,46
 314 568 314 568 345 576 c 128,-1,47
 376 584 376 584 409 588 c 1,48,49
 425 544 l 128,-1,50
 433 522 433 522 443 500 c 1,51,52
 459 524 459 524 476 544.5 c 128,-1,53
 493 565 493 565 512 588 c 1,54,55
 546 584 546 584 575 576 c 128,-1,56
 604 568 604 568 626 553 c 0,0,1
389 342 m 2,57,58
 376 342 376 342 361 340.5 c 128,-1,59
 346 339 346 339 332 334.5 c 128,-1,60
 318 330 318 330 307 322.5 c 128,-1,61
 296 315 296 315 293 305 c 256,62,63
 291 295 291 295 297.5 287 c 128,-1,64
 304 279 304 279 315.5 273 c 128,-1,65
 327 267 327 267 341 263.5 c 128,-1,66
 355 260 355 260 368 260 c 2,67,-1
 371 260 l 2,68,69
 384 260 384 260 399.5 261.5 c 128,-1,70
 415 263 415 263 430 267 c 128,-1,71
 445 271 445 271 456 278.5 c 128,-1,72
 467 286 467 286 470 295 c 0,73,74
 472 305 472 305 465.5 313 c 128,-1,75
 459 321 459 321 446.5 327 c 128,-1,76
 434 333 434 333 419.5 336.5 c 128,-1,77
 405 340 405 340 392 342 c 2,78,-1
 389 342 l 2,57,58
EndSplineSet
EndChar
StartChar: uni0E06
Encoding: 3590 3590 217
Width: 720
VWidth: 1467
Flags: W
HStem: -4 38<183.267 226.119 391.08 503.007> 235 38<230.655 264.539> 567 20G<385.064 421 693 748>
VStem: 125 45<71.0159 134.126> 164.5 32<402.376 410.5 410.5 448.91> 271.5 47.5<140.016 154.877 154.877 197.015>
Fore
128 135 m 0,0,1
 134 161 134 161 146 186 c 128,-1,2
 158 211 158 211 176 230 c 128,-1,3
 194 249 194 249 213.5 261 c 128,-1,4
 233 273 233 273 254 273 c 0,5,6
 273 273 273 273 285 264 c 1,7,8
 293 301 293 301 320 335 c 0,9,10
 335 354 335 354 346.5 372 c 128,-1,11
 358 390 358 390 371 414 c 1,12,13
 381 447 381 447 372.5 465.5 c 128,-1,14
 364 484 364 484 352 497 c 2,15,-1
 342 511 l 1,16,17
 340 487 340 487 326 456 c 0,18,19
 302 409 302 409 264.5 381.5 c 128,-1,20
 227 354 227 354 198 362 c 256,21,22
 169 371 169 371 164.5 410.5 c 128,-1,23
 160 450 160 450 183 497 c 256,24,25
 207 544 207 544 243 571.5 c 128,-1,26
 279 599 279 599 308 590 c 0,27,28
 326 584 326 584 345 562 c 128,-1,29
 364 540 364 540 368 524 c 1,30,-1
 393 587 l 1,31,-1
 421 587 l 1,32,-1
 421 528 l 2,33,34
 424 490 424 490 419 460 c 128,-1,35
 414 430 414 430 403.5 405 c 128,-1,36
 393 380 393 380 379 359.5 c 128,-1,37
 365 339 365 339 351 318 c 256,38,39
 336 298 336 298 328.5 273 c 128,-1,40
 321 248 321 248 319 222.5 c 128,-1,41
 317 197 317 197 318.5 174 c 128,-1,42
 320 151 320 151 320 136 c 1,43,44
 327 120 327 120 337.5 103.5 c 128,-1,45
 348 87 348 87 361 72 c 128,-1,46
 374 57 374 57 392.5 47.5 c 128,-1,47
 411 38 411 38 434 38 c 0,48,49
 496 38 496 38 549.5 75.5 c 128,-1,50
 603 113 603 113 619 188 c 0,51,52
 640 288 640 288 661 387.5 c 128,-1,53
 682 487 682 487 704 588 c 1,54,-1
 748 588 l 1,55,56
 737 533 737 533 726 483 c 128,-1,57
 715 433 715 433 704 384 c 128,-1,58
 693 335 693 335 682.5 285 c 128,-1,59
 672 235 672 235 660 180 c 0,60,61
 650 136 650 136 628 101.5 c 128,-1,62
 606 67 606 67 576 44 c 128,-1,63
 546 21 546 21 512 10 c 128,-1,64
 478 -1 478 -1 443 -1 c 0,65,66
 383 -1 383 -1 348.5 27.5 c 128,-1,67
 314 56 314 56 296 87 c 1,68,69
 280 48 280 48 252 22 c 128,-1,70
 224 -4 224 -4 195 -4 c 0,71,72
 176 -4 176 -4 161.5 7.5 c 128,-1,73
 147 19 147 19 137.5 38 c 128,-1,74
 128 57 128 57 125 82 c 128,-1,75
 122 107 122 107 128 135 c 0,0,1
214 487 m 0,76,77
 207 474 207 474 202.5 458.5 c 128,-1,78
 198 443 198 443 196.5 428.5 c 128,-1,79
 195 414 195 414 198.5 402 c 128,-1,80
 202 390 202 390 213 387 c 0,81,82
 222 384 222 384 233.5 391 c 128,-1,83
 245 398 245 398 256 410.5 c 128,-1,84
 267 423 267 423 276.5 437.5 c 128,-1,85
 286 452 286 452 292 465 c 256,86,87
 298 478 298 478 303 494.5 c 128,-1,88
 308 511 308 511 309 525.5 c 128,-1,89
 310 540 310 540 307 551 c 128,-1,90
 304 562 304 562 293 565 c 1,91,92
 285 569 285 569 274 562 c 128,-1,93
 263 555 263 555 252 543 c 128,-1,94
 241 531 241 531 230.5 515.5 c 128,-1,95
 220 500 220 500 214 487 c 0,76,77
173 135 m 256,96,97
 170 122 170 122 170 104.5 c 128,-1,98
 170 87 170 87 173 70.5 c 128,-1,99
 176 54 176 54 183.5 44 c 128,-1,100
 191 34 191 34 202 34 c 256,101,102
 214 34 214 34 225 45 c 128,-1,103
 236 56 236 56 244 71.5 c 128,-1,104
 252 87 252 87 258 104.5 c 128,-1,105
 264 122 264 122 267 135 c 256,106,107
 270 148 270 148 271.5 165 c 128,-1,108
 273 182 273 182 270.5 197.5 c 128,-1,109
 268 213 268 213 262.5 224 c 128,-1,110
 257 235 257 235 244 235 c 256,111,112
 230 235 230 235 219 224 c 128,-1,113
 208 213 208 213 198.5 197.5 c 128,-1,114
 189 182 189 182 182.5 165 c 128,-1,115
 176 148 176 148 173 135 c 256,96,97
EndSplineSet
EndChar
StartChar: uni0E07
Encoding: 3591 3591 218
Width: 507
VWidth: 1467
Flags: W
HStem: -4 21G<244.224 264>
VStem: 341.5 33.5<401.345 409 409 448.094>
Fore
483 585 m 0,0,1
 506 578 506 578 514 554 c 128,-1,2
 522 530 522 530 515 496 c 2,3,-1
 445 163 l 2,4,5
 434 116 434 116 404 80.5 c 128,-1,6
 374 45 374 45 335 23 c 0,7,8
 314 12 314 12 296.5 5.5 c 128,-1,9
 279 -1 279 -1 249 -4 c 1,10,-1
 153 398 l 1,11,-1
 194 417 l 1,12,13
 216 332 216 332 241 233 c 128,-1,14
 266 134 266 134 288 43 c 1,15,16
 321 56 321 56 346 76 c 0,17,18
 390 114 390 114 403 179 c 2,19,-1
 449 387 l 1,20,21
 427 370 427 370 406 364 c 0,22,23
 390 359 390 359 376 364 c 0,24,25
 346 371 346 371 341.5 409 c 128,-1,26
 337 447 337 447 359 493 c 0,27,28
 376 528 376 528 402 552.5 c 128,-1,29
 428 577 428 577 453 584 c 0,30,31
 468 588 468 588 483 585 c 0,0,1
468 464 m 0,32,33
 474 475 474 475 478.5 490.5 c 128,-1,34
 483 506 483 506 484.5 521 c 128,-1,35
 486 536 486 536 482 547 c 128,-1,36
 478 558 478 558 470 560 c 256,37,38
 461 563 461 563 447 556 c 0,39,40
 431 546 431 546 415 524.5 c 128,-1,41
 399 503 399 503 392 486 c 0,42,43
 386 472 386 472 381 457 c 128,-1,44
 376 442 376 442 375 427 c 128,-1,45
 374 412 374 412 377 401 c 128,-1,46
 380 390 380 390 390 387 c 0,47,48
 402 384 402 384 412 393 c 1,49,50
 428 403 428 403 443.5 424.5 c 128,-1,51
 459 446 459 446 468 464 c 0,32,33
EndSplineSet
EndChar
StartChar: uni0E08
Encoding: 3592 3592 219
Width: 607
VWidth: 1467
Flags: W
HStem: -6 21G<321 370> 549 35<338.805 441.408>
VStem: 357 39.5<238.188 270.515 251.571 306.025>
Fore
559 547 m 0,0,1
 615 508 615 508 600 436 c 0,2,3
 584 367 584 367 568 289 c 128,-1,4
 552 211 552 211 537 141 c 2,5,6
 532.5 127.5 l 2,7,8
 528 114 528 114 518 96 c 128,-1,9
 508 78 508 78 489.5 58 c 128,-1,10
 471 38 471 38 443 23 c 0,11,12
 423 15 423 15 402 7.5 c 128,-1,13
 381 0 381 0 359 -6 c 1,14,-1
 321 -6 l 1,15,-1
 362 188 l 1,16,17
 354 178 354 178 348.5 172.5 c 128,-1,18
 343 167 343 167 321 161 c 0,19,20
 310 158 310 158 293 166 c 0,21,22
 273 175 273 175 256 197.5 c 128,-1,23
 239 220 239 220 236 254 c 0,24,25
 235 276 235 276 240 297 c 128,-1,26
 245 318 245 318 255.5 336 c 128,-1,27
 266 354 266 354 279.5 366.5 c 128,-1,28
 293 379 293 379 310 383 c 256,29,30
 326 387 326 387 339 383 c 0,31,32
 358 377 358 377 372 362.5 c 128,-1,33
 386 348 386 348 392 329 c 0,34,35
 401 304 401 304 401 265.5 c 128,-1,36
 401 227 401 227 396.5 185.5 c 128,-1,37
 392 144 392 144 384 103 c 128,-1,38
 376 62 376 62 370 31 c 1,39,40
 417 47 417 47 449 72.5 c 128,-1,41
 481 98 481 98 490 141 c 0,42,43
 496 172 496 172 504 207 c 128,-1,44
 512 242 512 242 519.5 278.5 c 128,-1,45
 527 315 527 315 534 349.5 c 128,-1,46
 541 384 541 384 549 415 c 0,47,48
 556 449 556 449 548.5 474.5 c 128,-1,49
 541 500 541 500 516 518 c 0,50,51
 492 534 492 534 453.5 543 c 128,-1,52
 415 552 415 552 374 549 c 0,53,54
 340 547 340 547 305.5 540 c 128,-1,55
 271 533 271 533 246 518 c 0,56,57
 235 512 235 512 226 505.5 c 128,-1,58
 217 499 217 499 210 493 c 1,59,-1
 167 508 l 1,60,61
 175 519 175 519 188.5 528 c 128,-1,62
 202 537 202 537 219 547 c 0,63,64
 251 563 251 563 294 572.5 c 128,-1,65
 337 582 337 582 381 584 c 0,66,67
 433 585 433 585 480 576.5 c 128,-1,68
 527 568 527 568 559 547 c 0,0,1
318 186 m 0,69,70
 329 189 329 189 337 200 c 128,-1,71
 345 211 345 211 350 226 c 128,-1,72
 355 241 355 241 357 256 c 128,-1,73
 359 271 359 271 359 285 c 1,74,75
 357 302 357 302 351 322.5 c 128,-1,76
 345 343 345 343 333 354 c 0,77,78
 324 362 324 362 313 359 c 256,79,80
 301 357 301 357 293.5 346 c 128,-1,81
 286 335 286 335 281 321 c 128,-1,82
 276 307 276 307 273.5 291.5 c 128,-1,83
 271 276 271 276 273 263 c 0,84,85
 274 244 274 244 280 223 c 128,-1,86
 286 202 286 202 298 191 c 0,87,88
 308 182 308 182 318 186 c 0,69,70
EndSplineSet
EndChar
StartChar: uni0E09
Encoding: 3593 3593 220
Width: 738
VWidth: 1467
Flags: W
HStem: -3.5 44.5<314.375 399.639> -1 33<577.409 620.529> 195 34<621.526 654.657> 549 50<360.939 484.333>
VStem: 139 32.5<190.86 199.5 199.5 237.118> 284 34.5<292.412 314 314 337>
Fore
157 286 m 0,0,1
 179 333 179 333 216.5 361 c 128,-1,2
 254 389 254 389 283 380 c 0,3,4
 313 373 313 373 318.5 337 c 128,-1,5
 324 301 324 301 305 255 c 1,6,7
 302 235 302 235 297.5 216.5 c 128,-1,8
 293 198 293 198 289 178 c 0,9,10
 274 112 274 112 302 76 c 128,-1,11
 330 40 330 40 381 41 c 0,12,13
 405 43 405 43 433 56 c 128,-1,14
 461 69 461 69 487.5 93 c 128,-1,15
 514 117 514 117 534.5 151 c 128,-1,16
 555 185 555 185 563 227 c 2,17,-1
 606 424 l 2,18,19
 612 453 612 453 604 477.5 c 128,-1,20
 596 502 596 502 572 518 c 0,21,22
 549 533 549 533 507 541 c 128,-1,23
 465 549 465 549 418 549 c 128,-1,24
 371 549 371 549 325.5 541 c 128,-1,25
 280 533 280 533 251 518 c 1,26,27
 241 511 241 511 231.5 505.5 c 128,-1,28
 222 500 222 500 214 493 c 1,29,-1
 173 521 l 1,30,31
 183 533 183 533 196.5 541.5 c 128,-1,32
 210 550 210 550 226 559 c 0,33,34
 263 578 263 578 317 588.5 c 128,-1,35
 371 599 371 599 428.5 599 c 128,-1,36
 486 599 486 599 537 588.5 c 128,-1,37
 588 578 588 578 618 559 c 0,38,39
 673 518 673 518 660 449 c 0,40,41
 650 393 650 393 637 334.5 c 128,-1,42
 624 276 624 276 610 220 c 1,43,44
 625 229 625 229 643 229 c 0,45,46
 673 229 673 229 688.5 195 c 128,-1,47
 704 161 704 161 694 114 c 0,48,49
 684 66 684 66 654 32.5 c 128,-1,50
 624 -1 624 -1 593 -1 c 0,51,52
 560 -1 560 -1 545 32.5 c 128,-1,53
 530 66 530 66 540 113 c 1,54,55
 521 73 521 73 490 47 c 128,-1,56
 459 21 459 21 424.5 7.5 c 128,-1,57
 390 -6 390 -6 355 -3.5 c 128,-1,58
 320 -1 320 -1 293 15 c 128,-1,59
 266 31 266 31 249.5 63 c 128,-1,60
 233 95 233 95 236 144 c 1,61,62
 238 145 238 145 237 152.5 c 128,-1,63
 236 160 236 160 238 167 c 1,64,65
 205 144 205 144 173 151 c 0,66,67
 144 160 144 160 139 199.5 c 128,-1,68
 134 239 134 239 157 286 c 0,0,1
575 114 m 0,69,70
 569 89 569 89 575 61.5 c 128,-1,71
 581 34 581 34 600 32 c 0,72,73
 609 32 609 32 617.5 40 c 128,-1,74
 626 48 626 48 634.5 60.5 c 128,-1,75
 643 73 643 73 648 88 c 128,-1,76
 653 103 653 103 656 114 c 0,77,78
 662 138 662 138 656.5 166 c 128,-1,79
 651 194 651 194 634 195 c 0,80,81
 624 195 624 195 614 187 c 128,-1,82
 604 179 604 179 597 166.5 c 128,-1,83
 590 154 590 154 584 140 c 128,-1,84
 578 126 578 126 575 114 c 0,69,70
191 277 m 0,85,86
 183 264 183 264 178 248 c 128,-1,87
 173 232 173 232 171.5 217 c 128,-1,88
 170 202 170 202 174 190.5 c 128,-1,89
 178 179 178 179 188 176 c 0,90,91
 197 173 197 173 208.5 179.5 c 128,-1,92
 220 186 220 186 231 198.5 c 128,-1,93
 242 211 242 211 251.5 226 c 128,-1,94
 261 241 261 241 267 254 c 256,95,96
 273 267 273 267 278 283 c 128,-1,97
 283 299 283 299 284 314 c 128,-1,98
 285 329 285 329 282 340.5 c 128,-1,99
 279 352 279 352 270 355 c 0,100,101
 260 358 260 358 248 351.5 c 128,-1,102
 236 345 236 345 225 332.5 c 128,-1,103
 214 320 214 320 205.5 305.5 c 128,-1,104
 197 291 197 291 191 277 c 0,85,86
EndSplineSet
EndChar
